<?xml version="1.0" standalone="no"?>
<!DOCTYPE svg PUBLIC "-//W3C//DTD SVG 1.1//EN" "http://www.w3.org/Graphics/SVG/1.1/DTD/svg11.dtd" >
<svg xmlns="http://www.w3.org/2000/svg" xmlns:xlink="http://www.w3.org/1999/xlink" version="1.1">
<metadata>
Created by FontForge 20160407 at Fri Oct  7 17:11:47 2016
 By Jimmy Warting
(c) 2014 Sergiy S. Tkachenko / 4th february
(c) 2014 FirstSiteGuide.com
http://creativecommons.org/licenses/by-nd/4.0/
</metadata>
<defs>
<font id="BloggerSans-Light" horiz-adv-x="250" >
  <font-face 
    font-family="Blogger Sans Light"
    font-weight="300"
    font-stretch="squinchy"
    units-per-em="1000"
    panose-1="2 0 5 6 3 0 0 2 0 4"
    ascent="760"
    descent="-240"
    x-height="505"
    cap-height="705"
    bbox="-69.2758 -249 846.505 945"
    underline-thickness="20"
    underline-position="-143"
    stemh="75"
    stemv="78"
    unicode-range="U+0020-F0434"
  />
<missing-glyph horiz-adv-x="760" 
 />
    <glyph glyph-name="ff" unicode="ff" horiz-adv-x="598" 
d="M355 27v519c0 126 75 183 174 187c15 1 85 1 85 -39c0 -19 -14 -30 -31 -30c-9 0 -17 1 -22 2c-14 2 -28 5 -41 5c-66 0 -100 -54 -100 -117v-71h116c16 0 29 -13 29 -31c0 -16 -14 -29 -29 -29h-116v-396c0 -18 -10 -31 -32 -31c-21 0 -33 13 -33 31zM78 27v519
c0 126 74 183 173 187c16 1 86 1 86 -39c0 -19 -15 -30 -31 -30c-9 0 -18 1 -23 2c-13 2 -28 5 -40 5c-66 0 -100 -54 -100 -117v-71h116c16 0 28 -13 28 -31c0 -16 -13 -29 -28 -29h-116v-396c0 -18 -10 -31 -32 -31c-21 0 -33 13 -33 31z" />
    <glyph glyph-name="fi" unicode="fi" horiz-adv-x="517" 
d="M451 681c0 -22 -18 -41 -41 -41s-42 19 -42 41c0 24 19 42 42 42s41 -18 41 -42zM442 25c0 -18 -14 -32 -32 -32s-33 14 -33 32v454c0 18 15 33 33 33s32 -15 32 -33v-454zM79 27v519c0 126 66 183 153 187c15 1 85 1 85 -39c0 -19 -14 -30 -30 -30c-10 0 -18 1 -23 2
c-14 2 -28 5 -40 5c-52 0 -80 -54 -80 -117v-71h116c16 0 29 -13 29 -31c0 -16 -13 -29 -29 -29h-116v-396c0 -18 -11 -31 -32 -31s-33 13 -33 31z" />
    <glyph glyph-name="fl" unicode="fl" horiz-adv-x="517" 
d="M79 27v519c0 126 66 183 153 187c15 1 85 1 85 -39c0 -19 -14 -30 -31 -30c-9 0 -17 1 -22 2c-14 2 -28 5 -40 5c-52 0 -80 -54 -80 -117v-71h116c16 0 29 -13 29 -31c0 -16 -13 -29 -29 -29h-116v-396c0 -18 -11 -31 -32 -31s-33 13 -33 31zM377 90v610
c0 17 15 33 33 33s32 -15 32 -33v-610c0 -24 2 -38 15 -52c0 -2 0 -1 2 -3c2 -3 5 -10 5 -13c0 -17 -13 -29 -29 -29c-23 0 -58 11 -58 97z" />
    <glyph glyph-name="ffi" unicode="ffi" horiz-adv-x="754" 
d="M695 681c0 -22 -19 -41 -41 -41c-24 0 -43 19 -43 41c0 24 19 42 43 42c22 0 41 -18 41 -42zM686 25c0 -18 -15 -32 -32 -32c-19 0 -33 14 -33 32v454c0 18 14 33 33 33c17 0 32 -15 32 -33v-454zM343 27v519c0 126 66 183 153 187c11 1 65 1 65 -39
c0 -19 -14 -30 -31 -30c-6 0 -9 1 -13 2c-10 2 -20 5 -29 5c-52 0 -80 -54 -80 -117v-71h116c16 0 29 -13 29 -31c0 -16 -13 -29 -29 -29h-116v-396c0 -18 -11 -31 -32 -31s-33 13 -33 31zM78 27v519c0 126 74 183 173 187c15 1 85 1 85 -39c0 -19 -14 -30 -31 -30
c-9 0 -17 1 -22 2c-14 2 -28 5 -41 5c-65 0 -99 -54 -99 -117v-71h115c15 0 29 -13 29 -31c0 -16 -14 -29 -29 -29h-115v-396c0 -18 -11 -31 -32 -31c-22 0 -33 13 -33 31z" />
    <glyph glyph-name="ffl" unicode="ffl" horiz-adv-x="785" 
d="M353 27v519c0 126 66 183 153 187c15 1 86 1 86 -39c0 -19 -15 -30 -31 -30c-10 0 -18 1 -23 2c-13 2 -28 5 -40 5c-52 0 -80 -54 -80 -117v-71h116c16 0 29 -13 29 -31c0 -16 -13 -29 -29 -29h-116v-396c0 -18 -11 -31 -32 -31s-33 13 -33 31zM651 90v610
c0 17 15 33 33 33s32 -15 32 -33v-610c0 -23 4 -40 18 -54c2 -3 4 -10 4 -14c0 -17 -12 -29 -29 -29c-23 0 -58 11 -58 97zM77 27v519c0 126 74 183 173 187c16 1 86 1 86 -39c0 -19 -14 -30 -31 -30c-9 0 -17 1 -23 2c-13 2 -27 5 -40 5c-66 0 -100 -54 -100 -117v-71h116
c16 0 28 -13 28 -31c0 -16 -13 -29 -28 -29h-116v-396c0 -18 -10 -31 -32 -31c-21 0 -33 13 -33 31z" />
    <glyph glyph-name="uni0457_uni0457" unicode="&#x457;&#x457;" horiz-adv-x="480" 
d="M156 25c0 -18 -15 -32 -32 -32c-19 0 -33 14 -33 32v454c0 18 14 33 33 33c17 0 32 -15 32 -33v-454zM288 631c0 -27 -21 -48 -46 -48c-26 0 -48 22 -48 48c0 24 22 46 48 46c25 0 46 -21 46 -46zM73 631c0 -27 -20 -48 -46 -48s-46 22 -46 48c0 24 20 46 46 46
s46 -21 46 -46zM391 25c0 -18 -15 -32 -32 -32c-19 0 -33 14 -33 32v454c0 18 14 33 33 33c17 0 32 -15 32 -33v-454zM502 631c0 -27 -21 -48 -46 -48c-26 0 -48 22 -48 48c0 24 22 46 48 46c25 0 46 -21 46 -46z" />
    <glyph glyph-name=".notdef" horiz-adv-x="760" 
 />
    <glyph glyph-name="space" unicode=" " horiz-adv-x="300" 
 />
    <glyph glyph-name="exclam" unicode="!" horiz-adv-x="227" 
d="M91 199l-11 484c0 17 16 33 34 33c19 0 33 -16 34 -33l-11 -484c0 -13 -11 -24 -23 -24c-13 0 -23 11 -23 24zM162 39c0 -27 -20 -48 -46 -48s-48 21 -48 48c0 25 22 47 48 47s46 -22 46 -47z" />
    <glyph glyph-name="quotedbl" unicode="&#x22;" horiz-adv-x="342" 
d="M62 487l30 249c4 15 21 26 40 24c19 -3 33 -18 28 -34l-57 -247c-2 -10 -14 -17 -24 -18c-10 3 -19 16 -17 26zM195 487l30 249c4 15 21 26 40 24c19 -3 32 -18 28 -34l-57 -247c-2 -10 -14 -17 -24 -18c-11 3 -19 16 -17 26z" />
    <glyph glyph-name="numbersign" unicode="#" horiz-adv-x="541" 
d="M110 479h68l47 211c4 14 16 23 31 23c13 -3 26 -15 25 -30v-7l-44 -197h125l47 211c4 13 15 22 29 23c16 -2 28 -14 27 -30v-7l-44 -197h45c16 0 32 -14 32 -32s-15 -32 -32 -32h-59l-27 -120h55c17 0 32 -14 32 -32s-14 -32 -32 -32h-69l-47 -214
c-4 -14 -16 -23 -31 -23l1 -1c-16 2 -28 15 -28 32c0 2 1 5 2 7l44 199h-125l-47 -214c-4 -14 -16 -23 -31 -23l1 -1c-15 2 -28 15 -28 32c0 2 1 5 2 7l44 199h-43c-19 0 -33 14 -33 32s16 32 33 32h57l27 120h-54c-18 0 -32 14 -32 32s16 32 32 32zM223 415l-27 -120h125
l26 120h-124z" />
    <glyph glyph-name="dollar" unicode="$" horiz-adv-x="500" 
d="M234 -36v56c-69 2 -180 21 -180 69c0 16 14 33 31 33c6 0 22 -7 34 -12c24 -10 59 -21 115 -24v245c-89 30 -179 63 -179 180c0 102 69 164 179 174v57c0 10 9 19 20 19c10 0 18 -9 18 -19v-57c59 -5 149 -19 149 -62c0 -16 -12 -30 -32 -30c-13 0 -25 4 -36 9
c-17 7 -40 13 -81 18v-233c88 -29 179 -64 179 -180c0 -106 -75 -171 -179 -186v-57c0 -10 -8 -18 -18 -18c-11 0 -20 8 -20 18zM380 199c0 64 -34 88 -62 101c-8 3 -16 8 -46 18v-231c72 12 108 51 108 112zM189 418c11 -5 33 -14 45 -20v221c-59 -8 -109 -35 -109 -102
c0 -63 39 -87 64 -99z" />
    <glyph glyph-name="percent" unicode="%" horiz-adv-x="703" 
d="M196 406c-87 0 -137 67 -137 155s48 156 137 156s136 -68 136 -156s-47 -155 -136 -155zM514 -9c-89 0 -137 67 -137 155s48 156 137 156c88 0 136 -68 136 -156s-47 -155 -136 -155zM553 674l-344 -661v1c-8 -14 -22 -19 -35 -16h1c-15 6 -24 22 -19 38v-1l4 8l344 660
v-1c8 13 21 18 35 14c13 -5 22 -22 16 -39c0 -1 -1 -2 -2 -3zM196 454c57 0 82 40 82 109c0 66 -25 106 -82 106c-56 0 -82 -40 -82 -106c0 -69 26 -109 82 -109zM514 39c56 0 82 40 82 109c0 67 -26 106 -82 106s-83 -39 -83 -106c0 -69 27 -109 83 -109z" />
    <glyph glyph-name="ampersand" unicode="&#x26;" horiz-adv-x="642" 
d="M596 24c0 -18 -13 -33 -30 -33c-14 0 -21 7 -30 18l-71 84c-53 -54 -118 -102 -209 -102c-122 0 -204 81 -204 186c0 106 80 170 158 216c-53 58 -89 113 -89 169c0 95 80 152 167 152c88 0 157 -63 157 -125c0 -18 -15 -31 -31 -31c-14 0 -25 11 -29 24
c-10 37 -46 75 -94 75c-55 0 -106 -37 -106 -97c0 -42 37 -87 83 -141l195 -226c32 50 51 91 69 129c9 20 16 21 28 21c16 0 30 -14 30 -31c0 -41 -47 -119 -84 -170l83 -99c5 -5 7 -11 7 -19zM425 142l-178 204c-65 -35 -132 -83 -132 -161c0 -73 53 -136 135 -136
c72 0 127 40 175 93z" />
    <glyph glyph-name="quotesingle" unicode="'" horiz-adv-x="222" 
d="M63 487l30 249c4 15 21 26 40 24c19 -3 32 -18 28 -34l-57 -247c-2 -10 -14 -17 -25 -18c-10 3 -18 16 -16 26z" />
    <glyph glyph-name="parenleft" unicode="(" horiz-adv-x="276" 
d="M137 219c0 -136 35 -285 99 -405c3 -6 10 -18 10 -23c0 -18 -10 -35 -31 -35c-11 0 -22 6 -28 15c-76 132 -115 299 -115 448c0 148 39 315 115 447c7 10 17 17 28 17c21 0 31 -19 31 -36c0 -7 -6 -16 -10 -24c-64 -119 -99 -268 -99 -404z" />
    <glyph glyph-name="parenright" unicode=")" horiz-adv-x="275" 
d="M140 219c0 138 -34 285 -98 404c-5 8 -11 20 -11 24c0 17 11 36 32 36c11 0 20 -7 28 -17c76 -131 114 -299 114 -447c0 -149 -38 -317 -114 -448c-7 -9 -17 -15 -28 -15c-21 0 -32 17 -32 35c0 4 6 15 11 23c64 120 98 267 98 405z" />
    <glyph glyph-name="asterisk" unicode="*" horiz-adv-x="495" 
d="M437 599v-1c6 -17 -9 -30 -22 -36l-130 -36l84 -106c8 -12 11 -30 -5 -41c-15 -11 -32 -3 -40 7l-74 115l-75 -114c-9 -11 -26 -17 -41 -8c-14 10 -13 30 -4 41l85 106l-131 36c-13 6 -26 21 -21 37c6 19 23 22 37 17l128 -48l-7 135c-1 15 8 31 29 31
c20 0 29 -16 28 -31l-7 -135l127 48c14 5 32 2 39 -17z" />
    <glyph glyph-name="plus" unicode="+" horiz-adv-x="500" 
d="M220 141v182h-171c-18 0 -32 14 -32 32s16 32 32 32h171v181c0 16 14 33 33 33c17 0 31 -15 31 -33v-181h172c16 0 32 -14 32 -32s-15 -32 -32 -32h-172v-182c0 -17 -14 -32 -31 -32c-19 0 -33 16 -33 32z" />
    <glyph glyph-name="comma" unicode="," horiz-adv-x="230" 
d="M162 39c0 -66 -45 -160 -69 -160c-6 0 -13 2 -13 10c0 14 9 27 18 44c7 12 13 20 22 56c-29 3 -52 23 -52 50c0 25 22 47 48 47s46 -22 46 -47z" />
    <glyph glyph-name="hyphen" unicode="-" horiz-adv-x="399" 
d="M357 294c0 -16 -12 -28 -28 -28h-255c-17 0 -30 12 -30 28c0 17 13 31 30 31h255c16 0 28 -14 28 -31z" />
    <glyph glyph-name="period" unicode="." horiz-adv-x="230" 
d="M162 39c0 -27 -20 -48 -46 -48s-48 21 -48 48c0 25 22 47 48 47s46 -22 46 -47z" />
    <glyph glyph-name="slash" unicode="/" horiz-adv-x="280" 
d="M302 720l-264 -744c-5 -14 -19 -22 -34 -20c-17 3 -27 19 -25 37c0 1 1 5 2 7l263 740c5 14 19 21 34 19c16 -3 30 -23 24 -39z" />
    <glyph glyph-name="zero" unicode="0" horiz-adv-x="500" 
d="M253 667c-95 0 -133 -66 -133 -159v-313c0 -86 47 -144 133 -144c85 0 131 58 131 144v313c0 93 -37 159 -131 159zM253 726c137 0 197 -102 197 -226v-305c0 -114 -70 -204 -197 -204c-128 0 -199 90 -199 204v305c0 124 61 226 199 226z" />
    <glyph glyph-name="one" unicode="1" horiz-adv-x="500" 
d="M282 25v606l-137 -87c-13 -10 -29 -19 -41 -19c-14 0 -29 12 -29 27c0 12 6 22 16 29l201 129c7 4 13 6 20 6c21 0 36 -16 36 -37v-654c0 -18 -14 -33 -33 -33c-18 0 -33 15 -33 33z" />
    <glyph glyph-name="two" unicode="2" horiz-adv-x="500" 
d="M453 32c0 -18 -14 -31 -32 -31h-336c-20 0 -35 15 -35 35c0 11 1 25 6 37c36 84 114 163 179 226c32 31 65 62 92 93c30 35 57 79 57 135c0 80 -44 140 -133 140c-38 0 -73 -8 -101 -20c-7 -3 -19 -10 -27 -16c-10 -6 -22 -12 -31 -12c-16 0 -31 12 -31 30
c0 12 9 23 23 33c50 29 106 44 168 44c124 0 197 -83 197 -188c0 -82 -30 -137 -72 -183c-31 -37 -59 -63 -84 -87c-64 -60 -126 -123 -165 -205h293c18 0 32 -14 32 -31z" />
    <glyph glyph-name="three" unicode="3" horiz-adv-x="500" 
d="M416 642l-181 -232c122 -3 212 -72 212 -193c0 -102 -61 -225 -209 -225c-39 0 -180 9 -180 67c0 17 13 32 30 32c4 0 10 -2 18 -6c34 -17 69 -35 129 -35c112 0 146 87 146 163c0 100 -62 140 -146 140c-14 0 -26 -3 -37 -8c-13 -6 -17 -5 -24 -5c-21 0 -36 29 -20 49
l193 250h-244c-18 0 -32 14 -32 31c0 19 14 35 32 35h286c20 0 35 -15 35 -39c0 -10 -2 -17 -8 -24z" />
    <glyph glyph-name="four" unicode="4" horiz-adv-x="500" 
d="M402 153v-129c0 -18 -15 -32 -32 -32c-18 0 -33 14 -33 32v129h-262c-21 0 -35 17 -35 36c0 2 3 14 8 25l196 491c7 10 18 19 28 19c15 0 32 -15 32 -33c0 -4 0 -8 -1 -11l-187 -465h221v207c0 18 15 33 33 33c17 0 32 -15 32 -33v-207h52c16 0 29 -15 29 -31
c0 -17 -13 -31 -29 -31h-52z" />
    <glyph glyph-name="five" unicode="5" horiz-adv-x="500" 
d="M447 223c0 -111 -58 -231 -198 -231c-41 0 -191 9 -191 67c0 17 13 32 30 32c4 0 10 -2 18 -6v1c28 -18 63 -36 119 -36c120 0 156 84 156 169c0 107 -59 158 -135 158c-31 0 -56 -9 -79 -22l-21 -14c-9 -7 -18 -13 -30 -13c-19 0 -35 15 -34 36l10 305c1 25 21 38 40 38
h246c19 0 39 -8 39 -32c0 -21 -20 -29 -39 -29h-228l-8 -242c37 21 72 30 106 30c116 0 199 -78 199 -211z" />
    <glyph glyph-name="six" unicode="6" horiz-adv-x="500" 
d="M115 385c43 35 98 47 146 47c109 0 197 -72 197 -214c0 -124 -66 -227 -204 -227c-162 0 -208 143 -208 341c0 247 72 384 218 384c33 0 149 -6 149 -49c0 -14 -12 -29 -29 -29c-7 0 -13 2 -20 4c-23 7 -55 16 -87 16c-131 0 -162 -121 -162 -273zM113 308v-28
c0 -118 24 -225 145 -225c101 0 135 78 135 161c0 105 -55 154 -135 154c-59 0 -116 -27 -145 -62z" />
    <glyph glyph-name="seven" unicode="7" horiz-adv-x="500" 
d="M449 672c0 -6 -1 -14 -3 -19l-255 -641c-5 -13 -17 -20 -29 -20c-17 0 -32 11 -34 28c0 6 1 11 3 17v-1l244 606h-288c-16 0 -32 14 -32 31c0 20 15 34 32 34h327c20 0 35 -15 35 -35z" />
    <glyph glyph-name="eight" unicode="8" horiz-adv-x="500" 
d="M470 192c0 -115 -90 -201 -217 -201s-220 83 -220 197c0 87 59 145 134 185c-62 38 -108 92 -108 166c0 109 87 176 193 176c108 0 192 -71 192 -173c0 -67 -39 -121 -107 -163c75 -40 133 -98 133 -187zM380 537c0 72 -56 121 -127 121c-74 0 -130 -49 -130 -121
c0 -73 62 -119 133 -132c68 15 124 64 124 132zM405 193c0 88 -77 137 -156 152c-84 -17 -151 -71 -151 -153s67 -142 155 -142c89 0 152 62 152 143z" />
    <glyph glyph-name="nine" unicode="9" horiz-adv-x="500" 
d="M390 335c-35 -45 -97 -60 -146 -60c-108 0 -198 68 -198 215c0 122 62 226 202 226c161 0 210 -140 210 -350c0 -248 -68 -375 -217 -375c-33 0 -150 6 -150 48c0 15 14 30 30 30c4 0 11 -2 20 -5c26 -7 58 -15 97 -15c123 0 152 130 152 286zM392 397v29
c0 128 -39 226 -148 226c-98 0 -132 -80 -132 -163c0 -104 54 -152 137 -152c59 0 113 26 143 60z" />
    <glyph glyph-name="colon" unicode=":" horiz-adv-x="230" 
d="M162 39c0 -27 -20 -48 -46 -48s-48 21 -48 48c0 25 22 47 48 47s46 -22 46 -47zM162 339c0 -27 -20 -48 -46 -48s-48 21 -48 48c0 25 22 47 48 47s46 -22 46 -47z" />
    <glyph glyph-name="semicolon" unicode=";" horiz-adv-x="230" 
d="M162 39c0 -66 -45 -160 -69 -160c-6 0 -13 2 -13 10c0 14 9 27 18 44c7 12 13 20 22 56c-29 3 -52 23 -52 50c0 25 22 47 48 47s46 -22 46 -47zM162 339c0 -27 -20 -48 -46 -48s-48 21 -48 48c0 25 22 47 48 47s46 -22 46 -47z" />
    <glyph glyph-name="less" unicode="&#x3c;" horiz-adv-x="625" 
d="M154 353l380 -192c13 -7 23 -18 23 -29c0 -23 -21 -42 -41 -32l-411 214c-16 8 -32 18 -32 39c0 22 14 30 31 39l411 214c22 7 42 -9 42 -32c0 -12 -10 -24 -23 -30z" />
    <glyph glyph-name="equal" unicode="=" horiz-adv-x="500" 
d="M90 295h325c16 0 32 -14 32 -32s-14 -32 -32 -32h-325c-18 0 -32 14 -32 32s16 32 32 32zM90 479h325c16 0 32 -14 32 -32s-14 -32 -32 -32h-325c-18 0 -32 14 -32 32s16 32 32 32z" />
    <glyph glyph-name="greater" unicode="&#x3e;" horiz-adv-x="625" 
d="M98 161l380 192l-380 191c-15 7 -25 18 -25 30c0 23 23 43 43 32l412 -214c16 -8 29 -16 29 -39c0 -22 -14 -31 -30 -39l-411 -214c-20 -11 -43 9 -43 32c0 11 10 22 25 29z" />
    <glyph glyph-name="question" unicode="?" horiz-adv-x="462" 
d="M269 250c-6 -13 -7 -29 -7 -43c0 -17 -14 -32 -33 -32c-18 0 -33 15 -33 32c0 12 1 26 6 37c15 43 45 77 74 110c12 12 23 25 33 38c29 35 57 80 57 135c0 80 -45 140 -134 140c-37 0 -72 -8 -100 -20c-7 -3 -19 -10 -27 -16c-11 -6 -22 -12 -31 -12c-16 0 -32 12 -32 30
c0 12 10 23 24 33c50 29 106 44 167 44c125 0 198 -83 198 -188c0 -82 -30 -137 -72 -183c-20 -25 -23 -26 -33 -35c-22 -23 -45 -44 -57 -70zM276 39c0 -27 -20 -48 -46 -48s-48 21 -48 48c0 25 22 47 48 47s46 -22 46 -47z" />
    <glyph glyph-name="at" unicode="@" horiz-adv-x="744" 
d="M516 14c-35 -14 -94 -26 -150 -26c-185 0 -298 132 -298 325c0 189 109 322 306 322c202 0 309 -141 309 -314c0 -91 -31 -159 -116 -159c-43 0 -72 18 -93 47c-40 -41 -76 -57 -113 -57c-83 0 -129 70 -129 161c0 96 51 161 146 161c92 0 122 -69 132 -157
c3 -39 11 -96 57 -96c39 0 51 37 51 93c0 150 -83 262 -243 262c-157 0 -242 -108 -242 -265s85 -265 247 -265c57 0 89 13 111 22c12 6 15 6 20 8c13 3 33 -3 40 -18c3 -21 -16 -34 -35 -44zM444 321c-3 40 -7 95 -70 95c-55 0 -78 -40 -78 -106c0 -64 22 -102 72 -102
c29 0 59 16 88 43c-6 24 -10 47 -12 70z" />
    <glyph glyph-name="A" unicode="A" horiz-adv-x="549" 
d="M142 163l-45 -148c-6 -12 -21 -24 -32 -24c-19 0 -35 13 -35 33c0 3 1 10 2 13l199 630c8 28 20 49 46 49c25 0 38 -22 47 -49l199 -630c0 -2 1 -9 1 -13c0 -20 -15 -33 -35 -33c-12 0 -28 10 -32 24l-46 148h-269zM277 607l-116 -379h231z" />
    <glyph glyph-name="B" unicode="B" horiz-adv-x="542" 
d="M145 400h126c69 0 147 40 147 128c0 58 -33 114 -130 114h-143v-242zM274 335h-129v-270h133c107 0 159 54 159 131c0 90 -69 139 -163 139zM289 1h-169c-23 0 -41 18 -41 41v622c0 24 19 42 41 42h173c128 0 191 -88 191 -179c0 -84 -54 -130 -126 -164
c66 -24 146 -57 146 -166c0 -110 -82 -196 -215 -196z" />
    <glyph glyph-name="C" unicode="C" horiz-adv-x="482" 
d="M50 244v219c0 153 71 253 223 253c89 0 173 -37 173 -80c0 -16 -12 -28 -29 -28c-9 0 -14 4 -22 9c-2 2 -7 4 -10 6c-33 22 -67 34 -107 34c-121 0 -161 -75 -161 -194v-219c0 -118 40 -193 161 -193c40 0 74 10 105 32l11 7c10 7 16 10 23 10c17 0 29 -13 29 -28
c0 -44 -84 -80 -173 -80c-152 0 -223 100 -223 252z" />
    <glyph glyph-name="D" unicode="D" horiz-adv-x="554" 
d="M508 263c0 -136 -69 -262 -272 -262h-116c-22 0 -41 18 -41 41v623c0 23 19 42 41 42h116c202 0 272 -121 272 -253v-191zM441 263v191c0 105 -50 189 -188 189h-108v-578h108c140 0 188 88 188 198z" />
    <glyph glyph-name="E" unicode="E" horiz-adv-x="474" 
d="M440 35c0 -20 -15 -34 -33 -34h-271c-30 0 -57 9 -57 40v624c0 21 17 41 41 41h277c18 0 32 -15 32 -34c0 -17 -14 -30 -32 -30h-252v-255h232c17 0 32 -14 32 -32s-14 -32 -32 -32h-232v-258h262c17 0 33 -14 33 -30z" />
    <glyph glyph-name="F" unicode="F" horiz-adv-x="474" 
d="M145 323v-299c0 -18 -14 -33 -32 -33c-19 0 -34 15 -34 33v641c0 21 17 41 41 41h277c18 0 32 -15 32 -34c0 -17 -14 -30 -32 -30h-252v-255h232c17 0 32 -14 32 -32s-14 -32 -32 -32h-232z" />
    <glyph glyph-name="G" unicode="G" horiz-adv-x="520" 
d="M117 463v-219c0 -118 40 -193 161 -193c51 0 90 15 123 41v232h-107c-16 0 -31 13 -31 31c0 17 15 31 31 31h122c29 0 50 -12 50 -40v-244c0 -76 -106 -110 -193 -110c-152 0 -223 100 -223 252v219c0 153 71 253 223 253c89 0 173 -37 173 -80c0 -16 -13 -28 -29 -28
c-9 0 -14 4 -22 9c-2 2 -8 4 -11 6c-32 22 -66 34 -106 34c-121 0 -161 -75 -161 -194z" />
    <glyph glyph-name="H" unicode="H" horiz-adv-x="580" 
d="M506 25c0 -19 -15 -34 -33 -34c-17 0 -34 15 -34 34v297h-294v-297c0 -19 -14 -34 -33 -34c-18 0 -33 15 -33 34v658c0 17 15 33 33 33c19 0 33 -16 33 -33v-297h294v297c0 17 17 33 34 33s33 -16 33 -33v-658z" />
    <glyph glyph-name="I" unicode="I" horiz-adv-x="227" 
d="M80 24v659c0 17 16 33 34 33c19 0 33 -16 33 -33v-659c0 -18 -14 -33 -33 -33c-18 0 -34 15 -34 33z" />
    <glyph glyph-name="J" unicode="J" horiz-adv-x="385" 
d="M309 683v-460c0 -144 -46 -232 -198 -232c-27 0 -80 2 -80 38c0 21 16 32 28 32c2 0 9 -1 16 -2c11 -2 26 -5 47 -5c100 0 120 66 120 169v460c0 18 15 33 34 33c17 0 33 -16 33 -33z" />
    <glyph glyph-name="K" unicode="K" horiz-adv-x="498" 
d="M432 6l-228 331l-59 -73v-239c0 -19 -14 -34 -33 -34c-18 0 -33 15 -33 34v658c0 17 15 33 33 33c19 0 33 -16 33 -33v-320l273 336c6 9 19 17 31 17s29 -10 28 -32c-1 -10 -4 -17 -8 -23v1l-223 -274l241 -346h-1c3 -5 4 -9 4 -15c0 -16 -6 -36 -29 -36
c-14 0 -22 6 -29 15z" />
    <glyph glyph-name="L" unicode="L" horiz-adv-x="448" 
d="M437 33c0 -18 -14 -32 -31 -32h-288c-21 0 -39 16 -39 38v644c0 17 15 33 34 33c18 0 32 -16 32 -33v-619h261c16 0 31 -14 31 -31z" />
    <glyph glyph-name="M" unicode="M" horiz-adv-x="699" 
d="M630 680v-658c0 -17 -15 -31 -32 -31c-18 0 -35 14 -35 31v530c-53 -115 -125 -265 -179 -380c-7 -13 -19 -20 -32 -20c-14 0 -26 8 -32 20l-180 380v-530c0 -17 -15 -31 -35 -31c-17 0 -31 14 -31 31v658c0 21 15 36 36 36c17 0 28 -8 36 -23v1l207 -443l206 444v-1
c9 16 22 22 36 22c19 0 35 -16 35 -36z" />
    <glyph glyph-name="N" unicode="N" horiz-adv-x="600" 
d="M489 -9c-13 0 -29 7 -35 19l-309 571v-556c0 -19 -15 -34 -34 -34c-18 0 -33 15 -33 34v653c0 22 16 38 37 38c15 0 29 -8 36 -21l309 -572v559c0 18 16 34 34 34s32 -16 32 -34v-654c0 -21 -15 -37 -37 -37z" />
    <glyph glyph-name="O" unicode="O" horiz-adv-x="551" 
d="M278 -9c-151 0 -228 112 -228 253v219c0 138 64 253 228 253c162 0 227 -115 227 -253v-219c0 -141 -76 -253 -227 -253zM278 652c-119 0 -161 -76 -161 -189v-219c0 -111 51 -189 161 -189s160 78 160 189v219c0 113 -43 189 -160 189z" />
    <glyph glyph-name="P" unicode="P" horiz-adv-x="530" 
d="M271 267h-126v-241c0 -19 -14 -35 -33 -35c-17 0 -33 15 -33 35v638c0 23 19 42 42 42h150c163 0 221 -106 221 -222c0 -140 -86 -217 -221 -217zM145 642v-311h126c102 0 155 49 155 154c0 78 -29 157 -155 157h-126z" />
    <glyph glyph-name="Q" unicode="Q" horiz-adv-x="551" 
d="M388 -180c-85 0 -135 69 -141 172c-130 16 -197 122 -197 252v219c0 138 64 253 228 253c162 0 227 -115 227 -253v-219c0 -129 -65 -233 -191 -251c2 -85 32 -115 88 -115c6 0 12 1 18 1h11c19 0 32 -11 32 -30c0 -28 -33 -29 -75 -29zM278 652
c-119 0 -161 -76 -161 -189v-219c0 -111 51 -189 161 -189s160 78 160 189v219c0 113 -43 189 -160 189z" />
    <glyph glyph-name="R" unicode="R" horiz-adv-x="575" 
d="M511 509c0 -104 -63 -169 -162 -189l169 -278l-1 1c2 -5 4 -13 4 -21c0 -17 -23 -30 -36 -30c-11 0 -21 6 -27 15l-183 311h-130v-292c0 -19 -15 -35 -34 -35c-17 0 -33 15 -33 35v638c0 23 19 42 40 42h178c163 0 215 -99 215 -197zM444 509c0 64 -27 133 -152 133h-147
v-261h153c95 0 146 44 146 128z" />
    <glyph glyph-name="S" unicode="S" horiz-adv-x="486" 
d="M372 188c0 68 -35 96 -62 110c-21 11 -51 22 -80 32c-88 30 -183 61 -183 194c0 120 77 192 200 192c49 0 166 -11 166 -62c0 -16 -12 -31 -33 -31c-11 0 -24 4 -35 9c-23 9 -51 20 -92 20c-70 0 -136 -28 -136 -123c0 -71 39 -96 64 -109c22 -11 52 -23 80 -32
c85 -28 182 -65 182 -193c0 -130 -92 -204 -216 -204c-63 0 -181 18 -181 67c0 17 14 33 30 33c6 0 22 -6 37 -11c26 -11 63 -25 115 -25c96 0 144 49 144 133z" />
    <glyph glyph-name="T" unicode="T" horiz-adv-x="483" 
d="M210 24v618h-146c-20 0 -34 14 -34 31c0 15 15 33 34 33h359c18 0 34 -14 34 -33c0 -17 -15 -31 -34 -31h-147v-618c0 -18 -14 -33 -32 -33c-19 0 -34 15 -34 33z" />
    <glyph glyph-name="U" unicode="U" horiz-adv-x="572" 
d="M507 228c0 -137 -81 -237 -218 -237c-141 0 -219 101 -219 237v452c0 21 16 36 35 36c18 0 32 -16 32 -36v-452c0 -102 49 -173 152 -173s150 73 150 173v452c0 19 15 36 33 36c19 0 35 -17 35 -36v-452z" />
    <glyph glyph-name="V" unicode="V" horiz-adv-x="529" 
d="M87 691l180 -592l180 592c4 15 20 25 32 25c20 0 35 -13 35 -33c0 -5 -1 -13 -1 -14l-199 -630c-9 -27 -22 -48 -47 -48c-26 0 -38 20 -46 48l-199 630c-1 3 -2 10 -2 14c0 20 16 33 35 33c11 0 26 -13 32 -25z" />
    <glyph glyph-name="W" unicode="W" horiz-adv-x="776" 
d="M517 33l-125 554c-37 -167 -89 -389 -126 -555c-6 -18 -19 -41 -47 -41c-25 0 -41 18 -48 41l-153 648v4c0 18 21 28 39 28c12 0 25 -10 30 -24l134 -578l125 552c8 33 18 54 46 54c27 0 38 -22 45 -54l127 -553l133 579c5 14 15 24 27 24c18 0 41 -9 41 -29
c0 -1 0 -6 -1 -9v-1l-152 -641c-6 -21 -22 -41 -47 -41c-26 0 -42 21 -48 42z" />
    <glyph glyph-name="X" unicode="X" horiz-adv-x="500" 
d="M253 319l-170 -303c-6 -11 -15 -25 -32 -25c-16 0 -31 16 -31 34c0 7 2 14 5 18l188 325l-173 297l1 -1c-3 6 -5 14 -5 20c0 16 14 32 31 32c13 0 27 -15 36 -32l150 -268l149 268h-1c8 14 21 32 39 32c15 0 28 -15 28 -33c0 -7 -2 -14 -4 -19l1 1l-172 -297l188 -325
c2 -4 4 -11 4 -18c0 -18 -15 -34 -30 -34s-26 14 -33 25z" />
    <glyph glyph-name="Y" unicode="Y" horiz-adv-x="476" 
d="M241 -9c-20 0 -35 15 -35 35v253l-182 386c-2 5 -4 12 -4 17c0 18 17 34 35 34c9 0 19 -4 24 -13v1l162 -351l161 351v-1c5 9 15 13 25 13c17 0 33 -16 33 -34c0 -5 -2 -13 -3 -17l-183 -390v-249c0 -19 -14 -35 -33 -35z" />
    <glyph glyph-name="Z" unicode="Z" horiz-adv-x="484" 
d="M453 35c0 -20 -14 -34 -33 -34h-350c-21 0 -36 16 -36 37c0 6 6 21 10 28l322 574h-297c-19 0 -33 14 -33 32s14 34 33 34h346c21 0 36 -16 36 -37c0 -8 -6 -20 -9 -27l-323 -575h301c18 0 33 -14 33 -32z" />
    <glyph glyph-name="bracketleft" unicode="[" horiz-adv-x="294" 
d="M264 -92c0 -23 -24 -31 -44 -31h-104c-17 0 -32 15 -32 31v864c0 24 21 32 46 32h104c14 0 30 -14 30 -31c0 -23 -23 -30 -43 -30h-72v-804h72c22 0 43 -7 43 -31z" />
    <glyph glyph-name="backslash" unicode="\" horiz-adv-x="280" 
d="M244 -24l-263 742l-2 5c-2 17 9 33 26 36c14 2 28 -5 33 -19l264 -740c3 -21 -7 -41 -24 -44c-15 -2 -29 6 -34 20z" />
    <glyph glyph-name="bracketright" unicode="]" horiz-adv-x="294" 
d="M211 -92c0 -17 -13 -31 -30 -31h-105c-22 0 -46 8 -46 31c0 25 23 31 45 31h71v804h-71c-21 0 -45 6 -45 30s24 31 46 31h105c15 0 30 -16 30 -32v-864z" />
    <glyph glyph-name="asciicircum" unicode="^" horiz-adv-x="326" 
d="M164 669l-115 -142c-3 -4 -11 -8 -18 -8c-14 0 -24 7 -24 18c1 11 9 23 19 35l113 139c6 8 14 13 25 13c10 0 18 -5 24 -13l114 -139c10 -12 17 -24 18 -35l-1 1c0 -11 -9 -19 -22 -19c-8 0 -16 4 -19 8z" />
    <glyph glyph-name="underscore" unicode="_" horiz-adv-x="600" 
d="M2 -179h603c16 0 31 -14 31 -33c0 -17 -14 -31 -31 -31h-603c-19 0 -33 14 -33 31c0 19 16 33 33 33z" />
    <glyph glyph-name="grave" unicode="`" horiz-adv-x="197" 
d="M83 716l86 -91c3 -3 4 -7 4 -10c0 -16 -13 -28 -26 -28c-11 0 -19 6 -28 16l-81 88c-3 4 -4 9 -4 12c0 15 13 27 24 27s16 -6 25 -14z" />
    <glyph glyph-name="a" unicode="a" horiz-adv-x="482" 
d="M335 272v69c0 81 -38 119 -117 119c-37 0 -58 -8 -81 -22c-6 -4 -14 -8 -24 -8c-15 0 -21 14 -22 26c-4 42 70 59 137 59c123 0 172 -70 172 -201v-226c0 -26 9 -39 27 -39c4 0 6 1 8 1c15 0 22 -14 22 -27c0 -20 -20 -27 -38 -27c-31 0 -58 22 -76 57
c-42 -40 -89 -60 -143 -60c-101 0 -150 60 -150 147v4c0 96 57 146 174 146c34 0 72 -7 111 -18zM223 237c-92 0 -109 -43 -109 -94v-4c0 -52 23 -90 99 -90c46 0 83 16 122 49v120c-40 13 -82 19 -112 19z" />
    <glyph glyph-name="b" unicode="b" horiz-adv-x="485" 
d="M144 404v-257c0 -59 45 -95 117 -95c79 0 115 44 115 116v194c0 62 -32 99 -106 99c-53 0 -94 -22 -126 -57zM79 147v554c0 16 12 32 33 32s32 -16 32 -32v-235c45 32 91 49 146 49c111 0 151 -67 151 -153v-194c0 -99 -60 -175 -180 -175c-116 0 -182 68 -182 154z" />
    <glyph glyph-name="c" unicode="c" horiz-adv-x="393" 
d="M50 174v156c0 102 54 182 178 182c45 0 135 -12 135 -55c0 -15 -12 -27 -27 -27c-6 0 -10 1 -15 2h1c-25 13 -49 25 -86 25c-87 0 -121 -47 -121 -127v-156c0 -79 34 -126 121 -126c39 0 62 12 86 24h-1c7 2 11 3 15 3c15 0 27 -13 27 -28c0 -42 -90 -54 -135 -54
c-124 0 -178 79 -178 181z" />
    <glyph glyph-name="d" unicode="d" horiz-adv-x="488" 
d="M215 511c33 0 78 -8 121 -22v212c0 17 12 32 33 32s32 -15 32 -32v-591c0 -31 6 -50 30 -68c2 -4 4 -8 4 -14c0 -17 -14 -28 -28 -28c-21 0 -39 14 -52 35c-47 -24 -99 -42 -148 -42c-104 0 -157 76 -157 186v131c0 119 39 201 165 201zM336 110v322
c-39 16 -86 25 -111 25c-81 0 -110 -45 -110 -147v-131c0 -85 35 -130 108 -130c36 0 79 13 117 32c-4 17 -4 23 -4 29z" />
    <glyph glyph-name="e" unicode="e" horiz-adv-x="435" 
d="M236 48c46 0 74 13 110 29c2 1 7 3 11 3c16 0 28 -14 28 -28c0 -45 -106 -59 -159 -59c-112 0 -176 71 -176 163v192c0 95 64 167 182 167c109 0 162 -63 162 -160c0 -90 -49 -145 -166 -145c-33 0 -74 3 -113 11v-71c0 -61 41 -102 121 -102zM330 355
c0 73 -37 103 -101 103c-72 0 -114 -40 -114 -102v-85c43 -6 96 -8 117 -8c84 0 98 45 98 92z" />
    <glyph glyph-name="f" unicode="f" horiz-adv-x="329" 
d="M80 27v519c0 126 74 183 173 187c16 1 86 1 86 -39c0 -19 -14 -30 -31 -30c-9 0 -18 1 -23 2c-13 2 -27 5 -40 5c-66 0 -100 -54 -100 -117v-71h116c16 0 28 -13 28 -31c0 -16 -12 -29 -28 -29h-116v-396c0 -18 -11 -31 -32 -31s-33 13 -33 31z" />
    <glyph glyph-name="g" unicode="g" horiz-adv-x="493" 
d="M234 515c46 0 97 -13 139 -38c24 44 59 63 78 63c17 0 30 -12 30 -29c0 -8 -2 -13 -4 -15l-9 -10c-34 -32 -50 -48 -50 -95v-64c0 -100 -59 -178 -178 -178c-30 0 -59 6 -85 16c-13 -23 -17 -43 -17 -58c0 -42 38 -52 64 -52h43c113 0 198 -44 198 -139
c0 -99 -86 -159 -203 -159c-112 0 -190 55 -190 150c0 46 20 85 57 118c-26 25 -34 56 -34 79c0 22 9 53 44 84c-40 37 -60 87 -60 146c0 103 58 181 177 181zM354 390c0 5 1 19 3 34c-36 22 -74 35 -113 35c-81 0 -122 -46 -122 -127c0 -74 35 -124 118 -124
c79 0 114 44 114 117v65zM204 -4c-19 0 -36 2 -49 5c-28 -22 -41 -50 -41 -83c0 -67 44 -103 128 -103c79 0 136 32 136 99c0 58 -43 82 -131 82h-43z" />
    <glyph glyph-name="h" unicode="h" horiz-adv-x="507" 
d="M143 25c0 -18 -13 -32 -30 -32c-19 0 -33 14 -33 32v681c0 16 13 33 31 33s32 -14 32 -33v-243c43 33 91 52 138 52c105 0 152 -68 152 -164v-326c0 -18 -14 -32 -32 -32s-33 14 -33 32v325c0 68 -28 106 -97 106c-43 0 -94 -21 -128 -66v-365z" />
    <glyph glyph-name="i" unicode="i" horiz-adv-x="245" 
d="M165 681c0 -22 -19 -41 -41 -41c-24 0 -42 19 -42 41c0 24 18 42 42 42c22 0 41 -18 41 -42zM156 25c0 -18 -15 -32 -32 -32c-19 0 -33 14 -33 32v454c0 18 14 33 33 33c17 0 32 -15 32 -33v-454z" />
    <glyph glyph-name="j" unicode="j" horiz-adv-x="245" 
d="M157 479v-502c0 -101 -54 -171 -139 -185c-8 -1 -12 0 -18 0c-12 0 -24 8 -27 20c-5 23 12 33 25 35c60 14 94 46 94 126v506c0 18 14 33 33 33c17 0 32 -15 32 -33zM166 681c0 -22 -19 -41 -41 -41c-24 0 -43 19 -43 41c0 24 19 42 43 42c22 0 41 -18 41 -42z" />
    <glyph glyph-name="k" unicode="k" horiz-adv-x="439" 
d="M145 700v-403l200 207c4 5 12 7 19 7c17 0 30 -13 30 -30c0 -9 -2 -16 -7 -21l-156 -159l177 -263c3 -4 6 -14 6 -19c1 -16 -14 -26 -31 -26c-12 0 -21 5 -27 15l-165 251l-46 -48v-186c0 -18 -15 -32 -32 -32c-19 0 -33 14 -33 32v675c0 18 14 33 33 33
c17 0 32 -15 32 -33z" />
    <glyph glyph-name="l" unicode="l" horiz-adv-x="228" 
d="M82 90v610c0 17 14 33 32 33s32 -15 32 -33v-610c0 -23 5 -40 18 -54c2 -3 4 -10 4 -14c0 -17 -12 -29 -29 -29c-22 0 -57 11 -57 97z" />
    <glyph glyph-name="m" unicode="m" horiz-adv-x="778" 
d="M125 466c48 31 100 49 153 49s90 -20 118 -56c46 35 96 56 151 56c106 0 163 -68 163 -168v-322c0 -18 -10 -31 -32 -31c-21 0 -33 13 -33 31v320c0 62 -32 112 -101 112c-47 0 -94 -26 -121 -60c3 -15 5 -31 5 -50v-322c0 -18 -10 -31 -32 -31s-33 13 -33 31v299
c0 78 -13 133 -93 133c-46 0 -95 -22 -127 -46c2 -12 3 -23 3 -36v-350c0 -18 -11 -31 -32 -31c-22 0 -33 13 -33 31v350c0 35 -4 56 -18 76c-4 5 -6 11 -6 17c0 17 14 29 29 29c13 0 28 -9 39 -31z" />
    <glyph glyph-name="n" unicode="n" horiz-adv-x="509" 
d="M129 464c49 34 101 49 150 49c104 0 155 -75 155 -187v-301c0 -18 -11 -31 -32 -31s-33 13 -33 31v301c0 83 -35 131 -102 131c-42 0 -84 -19 -122 -48c2 -11 3 -23 3 -34v-350c0 -18 -11 -31 -32 -31c-22 0 -33 13 -33 31v350c0 35 -4 56 -18 76c-4 5 -6 11 -6 17
c0 17 14 29 29 29c13 0 30 -11 41 -33z" />
    <glyph glyph-name="o" unicode="o" horiz-adv-x="464" 
d="M235 -7c-120 0 -185 76 -185 175v172c0 99 65 176 185 176c121 0 185 -77 185 -176v-172c0 -99 -64 -175 -185 -175zM235 52c80 0 120 44 120 116v173c0 72 -40 117 -120 117c-79 0 -120 -45 -120 -117v-173c0 -72 41 -116 120 -116z" />
    <glyph glyph-name="p" unicode="p" horiz-adv-x="478" 
d="M270 -6c-36 0 -81 8 -122 21v-199c0 -17 -12 -31 -32 -31c-22 0 -33 14 -33 31v557c0 35 -4 56 -18 76c-4 5 -6 11 -6 17c0 17 14 29 29 29c13 0 27 -12 38 -28c50 27 102 48 153 48c103 0 155 -76 155 -187v-134c0 -118 -39 -200 -164 -200zM148 373v-301
c36 -16 84 -24 112 -24c80 0 109 45 109 146v134c0 85 -34 131 -107 131c-36 0 -80 -16 -119 -40c3 -15 5 -30 5 -46z" />
    <glyph glyph-name="q" unicode="q" horiz-adv-x="485" 
d="M347 100v257c0 62 -44 100 -116 100c-79 0 -116 -46 -116 -121v-163c0 -77 30 -125 109 -125c45 0 89 16 123 52zM412 357v-541c0 -17 -11 -31 -32 -31c-22 0 -33 14 -33 31v221c-42 -27 -88 -43 -139 -43c-120 0 -158 77 -158 179v163c0 101 61 179 181 179
c115 0 181 -70 181 -158z" />
    <glyph glyph-name="r" unicode="r" horiz-adv-x="337" 
d="M149 373v-348c0 -18 -15 -32 -32 -32c-19 0 -33 14 -33 32v348c0 35 -4 56 -18 76c-4 5 -6 11 -6 17c0 17 14 29 30 29c13 0 28 -13 39 -31c47 30 106 47 143 47c35 0 46 -14 46 -32c0 -20 -15 -35 -32 -34c-45 1 -83 1 -138 -40v-1s1 -1 1 -31z" />
    <glyph glyph-name="s" unicode="s" horiz-adv-x="406" 
d="M59 374c0 85 55 141 159 141c51 0 129 -12 129 -50c0 -16 -12 -29 -29 -29c-6 0 -10 2 -15 4c-23 11 -43 20 -82 20c-68 0 -99 -28 -99 -81c0 -36 14 -54 53 -75c79 -39 187 -49 187 -169c0 -88 -56 -142 -165 -142c-51 0 -145 10 -145 51c0 15 12 30 31 30c2 0 3 0 6 -1
c30 -12 63 -25 108 -25c61 0 102 25 102 84c0 42 -19 61 -41 73c-78 39 -199 49 -199 169z" />
    <glyph glyph-name="t" unicode="t" horiz-adv-x="321" 
d="M81 202v431c0 17 11 32 32 32s32 -15 32 -32v-150h116c16 0 29 -13 29 -31c0 -16 -13 -29 -29 -29h-116v-214c0 -111 12 -152 93 -152c7 0 13 1 20 1c19 0 45 -3 45 -30c0 -28 -26 -31 -50 -31c-138 0 -172 68 -172 205z" />
    <glyph glyph-name="u" unicode="u" horiz-adv-x="509" 
d="M366 120v360c0 18 11 32 33 32c21 0 32 -14 32 -32v-360c0 -50 5 -58 11 -65s15 -18 15 -28c0 -16 -14 -28 -30 -28c-17 0 -30 13 -43 33c-48 -28 -101 -39 -148 -39c-104 0 -157 75 -157 186v301c0 18 12 32 33 32s32 -14 32 -32v-301c0 -82 36 -130 103 -130
c42 0 84 14 121 38c-1 10 -2 20 -2 33z" />
    <glyph glyph-name="v" unicode="v" horiz-adv-x="430" 
d="M406 471l-140 -436c-10 -30 -23 -42 -46 -42s-36 13 -45 41l-143 440c-7 20 11 38 32 38c11 0 23 -4 28 -21l128 -413l126 413c3 10 13 22 29 21c17 -1 32 -15 32 -33c0 -3 0 -5 -1 -8z" />
    <glyph glyph-name="w" unicode="w" horiz-adv-x="655" 
d="M636 477l-119 -444c-8 -26 -18 -40 -44 -40c-17 0 -34 11 -40 29l-99 389c-29 -117 -66 -273 -100 -389c-5 -18 -20 -29 -41 -29c-23 0 -38 16 -45 40l-120 446v2c0 16 14 31 33 31c12 0 25 -10 30 -23l103 -403c39 142 70 272 101 395c5 17 18 31 39 31
c19 0 32 -14 37 -31c23 -98 50 -200 102 -395l102 403c3 13 17 23 30 23c17 0 31 -14 31 -33v-2z" />
    <glyph glyph-name="x" unicode="x" horiz-adv-x="431" 
d="M184 259l-138 207c-3 4 -4 9 -4 15c0 18 17 31 31 31c16 0 23 -9 32 -23l115 -178l115 178c9 14 16 23 32 23c14 0 31 -13 31 -31c0 -6 -1 -11 -4 -15l-138 -207l148 -219c2 -3 3 -9 3 -13c0 -19 -14 -34 -33 -34c-16 0 -22 7 -33 23l-123 189l-128 -196
c-7 -11 -15 -16 -26 -16c-19 0 -34 13 -34 32c0 5 1 8 4 13z" />
    <glyph glyph-name="y" unicode="y" horiz-adv-x="412" 
d="M399 469l-126 -409c-46 -146 -92 -262 -215 -262c-20 0 -34 13 -34 31c0 15 11 30 30 31c71 3 100 37 133 135l-164 476c-3 3 -3 8 -3 11c0 18 15 30 33 30c12 0 24 -9 29 -21l136 -415c36 127 84 287 120 415c6 11 18 21 30 21c16 0 32 -13 32 -33c0 -5 -1 -8 -1 -10z
" />
    <glyph glyph-name="z" unicode="z" horiz-adv-x="384" 
d="M367 471c0 -7 -4 -20 -7 -25l-262 -387h241c17 0 30 -14 30 -30c0 -17 -13 -29 -30 -29h-285c-18 0 -34 15 -34 35c0 5 2 16 6 22l264 389h-230c-17 0 -30 13 -30 29c0 18 13 30 30 30h273c19 0 34 -12 34 -34z" />
    <glyph glyph-name="braceleft" unicode="{" horiz-adv-x="417" 
d="M69 210c-19 0 -32 10 -32 29s13 30 32 30c57 0 84 30 88 99c1 26 4 59 5 87l6 102c6 71 69 118 154 118c24 0 52 -4 52 -36c0 -28 -21 -26 -34 -24c-12 1 -26 3 -29 3c-38 0 -76 -26 -79 -73c-2 -57 -6 -115 -8 -171c-4 -59 -31 -107 -84 -135c53 -27 80 -76 84 -135
l8 -170c2 -46 40 -73 78 -73c9 0 22 1 30 2c13 2 34 4 34 -23c0 -32 -28 -36 -52 -36c-86 0 -149 45 -154 117l-11 189c-4 70 -31 100 -88 100z" />
    <glyph glyph-name="bar" unicode="|" horiz-adv-x="227" 
d="M85 -216v948c0 15 13 29 29 29c17 0 29 -14 29 -29v-948c0 -15 -12 -28 -29 -28c-16 0 -29 13 -29 28z" />
    <glyph glyph-name="braceright" unicode="}" horiz-adv-x="417" 
d="M352 210c-57 0 -84 -30 -88 -100c-3 -62 -8 -126 -11 -189c-5 -72 -67 -117 -153 -117c-26 0 -53 4 -53 36c0 27 21 25 34 23c9 -1 22 -2 30 -2c39 0 77 27 79 73c2 56 6 114 8 170c3 61 30 108 83 135c-53 28 -80 75 -83 135l-8 171c-3 47 -41 73 -80 73
c-3 0 -16 -2 -29 -3c-13 -2 -34 -4 -34 24c0 32 27 36 53 36c85 0 147 -47 153 -118l6 -102l5 -87c4 -69 31 -99 88 -99c19 0 32 -11 32 -30s-13 -29 -32 -29z" />
    <glyph glyph-name="asciitilde" unicode="~" horiz-adv-x="454" 
d="M391 353c0 -39 -53 -65 -94 -68l1 1c-29 0 -52 10 -73 22c-15 7 -31 14 -57 18c-19 0 -36 -11 -48 -22c-7 -6 -13 -12 -23 -12c-16 0 -28 10 -30 27c0 40 45 71 94 71c22 0 50 -12 69 -21c14 -7 34 -16 53 -19c31 0 45 11 56 21c6 5 16 12 24 14c15 -1 28 -15 28 -32z
" />
    <glyph glyph-name="exclamdown" unicode="&#xa1;" horiz-adv-x="227" 
d="M80 -186l11 483c0 14 10 26 23 26c12 0 23 -12 23 -26c3 -160 14 -323 11 -483c0 -17 -15 -33 -34 -33c-18 0 -34 16 -34 33zM162 458c0 -26 -20 -46 -46 -46s-48 20 -48 46s22 49 48 49s46 -23 46 -49z" />
    <glyph glyph-name="cent" unicode="&#xa2;" horiz-adv-x="500" 
d="M233 -36v58c-108 12 -155 86 -155 181v104c0 94 47 168 155 179v51c0 11 9 20 20 20c10 0 18 -9 18 -20v-50c49 -4 117 -19 117 -55c0 -14 -11 -26 -27 -26c-6 0 -10 1 -14 2h1c-20 9 -39 18 -77 23v-353c38 4 56 14 77 24h-1c6 2 10 3 14 3c16 0 27 -13 27 -27
c0 -36 -68 -51 -117 -56v-58c0 -10 -8 -18 -18 -18s-20 8 -20 18zM143 203c0 -66 25 -109 90 -123v349c-65 -13 -90 -56 -90 -122v-104z" />
    <glyph glyph-name="yen" unicode="&#xa5;" horiz-adv-x="476" 
d="M78 363h88c-44 96 -97 206 -142 302c-2 5 -4 12 -4 17c0 18 17 34 35 34c9 0 19 -4 24 -13v1l162 -351l161 351v-1c5 9 15 13 25 13c17 0 33 -16 33 -34c0 -5 -2 -13 -3 -17l-143 -302h89c16 0 32 -14 32 -31c0 -16 -15 -30 -32 -30h-116l-13 -27v-45h129
c16 0 32 -13 32 -31c0 -16 -15 -29 -32 -29h-129v-144c0 -19 -14 -35 -33 -35c-20 0 -35 15 -35 35v144h-128c-18 0 -33 13 -33 29c0 18 17 31 33 31h128v49l-12 23h-116c-18 0 -33 14 -33 30c0 17 17 31 33 31z" />
    <glyph glyph-name="dieresis" unicode="&#xa8;" horiz-adv-x="403" 
d="M332 646c0 -24 -18 -42 -40 -42s-42 19 -42 42c0 21 20 41 42 41s40 -19 40 -41zM159 646c0 -24 -18 -42 -41 -42c-22 0 -40 19 -40 42c0 21 18 41 40 41c23 0 41 -19 41 -41z" />
    <glyph glyph-name="copyright" unicode="&#xa9;" horiz-adv-x="740" 
d="M678 313c0 -188 -107 -321 -304 -321s-306 133 -306 321c0 189 109 322 306 322s304 -133 304 -322zM632 313c0 162 -90 276 -258 276s-260 -114 -260 -276s92 -275 260 -275s258 113 258 275zM244 282v62c0 80 42 143 139 143c36 0 105 -9 105 -43c0 -10 -8 -19 -19 -19
h-7c-21 12 -43 22 -72 22c-70 0 -98 -38 -98 -103v-62c0 -64 28 -101 98 -101c30 0 46 8 65 16h-3l7 2c5 2 8 3 10 3c11 0 19 -10 19 -21c0 -32 -69 -41 -105 -41c-97 0 -139 62 -139 142z" />
    <glyph glyph-name="guillemotleft" unicode="&#xab;" horiz-adv-x="431" 
d="M123 256l146 -216c1 -3 3 -9 3 -13c0 -19 -13 -34 -32 -34c-16 0 -22 7 -33 23c-52 80 -106 159 -158 238l152 230c9 15 16 24 32 24c14 0 30 -13 30 -31c0 -6 0 -12 -3 -15zM287 254l98 -149c2 -3 3 -9 3 -15c0 -16 -16 -30 -31 -30s-22 8 -31 23l-114 171l114 172
c9 14 16 24 31 24s31 -14 31 -31c0 -6 0 -12 -3 -15z" />
    <glyph glyph-name="registered" unicode="&#xae;" horiz-adv-x="700" 
d="M638 425c0 -170 -99 -290 -284 -290s-285 120 -285 290c0 177 100 301 285 301s284 -124 284 -301zM592 425c0 150 -83 255 -238 255c-156 0 -239 -105 -239 -255c0 -143 83 -244 239 -244c155 0 238 101 238 244zM459 489c0 -40 -21 -69 -56 -85l70 -107
c14 -21 -35 -27 -44 -13l-73 114h-59v-103c0 -9 -12 -17 -24 -17c-11 0 -22 7 -22 17v261c0 14 13 27 26 27h79c76 0 103 -47 103 -94zM413 489c0 24 -10 49 -59 49h-57v-96h60c38 0 56 18 56 47z" />
    <glyph glyph-name="macron" unicode="&#xaf;" horiz-adv-x="403" 
d="M359 644c0 -17 -12 -29 -28 -29h-255c-17 0 -30 12 -30 29c0 16 13 30 30 30h255c16 0 28 -14 28 -30z" />
    <glyph glyph-name="degree" unicode="&#xb0;" horiz-adv-x="392" 
d="M198 447c-88 0 -137 59 -137 134c0 76 48 136 137 136s136 -60 136 -136c0 -75 -47 -134 -136 -134zM198 495c56 0 82 30 82 88c0 55 -26 86 -82 86s-83 -31 -83 -86c0 -59 27 -88 83 -88z" />
    <glyph glyph-name="plusminus" unicode="&#xb1;" horiz-adv-x="500" 
d="M220 172v182h-171c-18 0 -32 14 -32 31c0 19 16 33 32 33h171v181c0 16 14 32 33 32c17 0 31 -14 31 -32v-181h172c16 0 32 -14 32 -33c0 -17 -15 -31 -32 -31h-172v-182c0 -18 -14 -32 -31 -32c-19 0 -33 15 -33 32zM49 65h407c16 0 32 -14 32 -32s-15 -32 -32 -32h-407
c-18 0 -32 14 -32 32s16 32 32 32z" />
    <glyph glyph-name="acute" unicode="&#xb4;" horiz-adv-x="276" 
d="M88 625l87 91c6 6 13 14 23 14c14 0 25 -14 25 -27c0 -4 -1 -9 -3 -12l-82 -87c-10 -10 -16 -17 -27 -17c-15 0 -27 13 -27 28c0 4 1 6 4 10z" />
    <glyph glyph-name="periodcentered" unicode="&#xb7;" horiz-adv-x="255" 
d="M172 273c0 -27 -20 -47 -47 -47c-25 0 -47 20 -47 47c0 25 22 47 47 47c27 0 47 -22 47 -47z" />
    <glyph glyph-name="cedilla" unicode="&#xb8;" horiz-adv-x="300" 
d="M240 -132c0 -61 -69 -96 -132 -84c-27 5 -54 21 -43 37c5 8 13 6 27 3l19 -4c53 -11 78 22 78 51c0 34 -35 40 -68 42c-30 2 -33 6 -31 25l13 68h35l-10 -61c81 0 112 -36 112 -77z" />
    <glyph glyph-name="ordmasculine" unicode="&#xba;" horiz-adv-x="384" 
d="M194 355c-91 0 -138 60 -138 139v81c0 80 47 141 138 141s137 -61 137 -141v-81c0 -79 -46 -139 -137 -139zM194 667c-62 0 -85 -36 -85 -96v-80c0 -55 26 -88 85 -88c58 0 84 33 84 88v80c0 60 -23 96 -84 96z" />
    <glyph glyph-name="guillemotright" unicode="&#xbb;" horiz-adv-x="431" 
d="M166 40l146 216l-137 206c-3 5 -4 10 -4 15c0 18 17 31 32 31s22 -9 32 -24l152 -230l-158 -238c-12 -16 -18 -23 -33 -23c-21 0 -34 15 -34 34c0 4 1 8 4 13zM51 105l98 149l-98 150c-3 5 -4 10 -4 15c0 17 16 31 31 31c16 0 23 -10 32 -24l113 -172l-113 -171
c-9 -15 -16 -23 -32 -23c-15 0 -31 14 -31 30c0 5 1 10 4 15z" />
    <glyph glyph-name="questiondown" unicode="&#xbf;" horiz-adv-x="462" 
d="M205 246c5 11 6 28 6 43c0 18 15 34 34 34c18 0 32 -16 32 -34c0 -13 -1 -27 -5 -37c-15 -43 -45 -76 -74 -109c-12 -12 -23 -25 -33 -39c-29 -34 -58 -83 -58 -135c0 -78 46 -139 135 -139c38 0 73 9 100 20c7 3 19 9 27 15c12 7 22 13 31 13c15 0 31 -12 31 -30
c0 -15 -10 -24 -23 -33c-49 -30 -106 -44 -167 -44c-126 0 -199 83 -199 187c0 83 31 137 73 184c20 25 23 26 33 35c22 22 45 44 57 69zM197 458c0 26 21 49 47 49s47 -23 47 -49s-21 -46 -47 -46s-47 20 -47 46z" />
    <glyph glyph-name="Agrave" unicode="&#xc0;" horiz-adv-x="549" 
d="M142 163l-45 -148c-6 -12 -21 -24 -32 -24c-19 0 -35 13 -35 33c0 3 1 10 2 13l199 630c8 28 20 49 46 49c25 0 38 -22 47 -49l199 -630c0 -2 1 -9 1 -13c0 -20 -15 -33 -35 -33c-12 0 -28 10 -32 24l-46 148h-269zM277 607l-116 -379h231zM215 916l86 -91
c3 -3 4 -7 4 -10c0 -16 -13 -28 -26 -28c-11 0 -19 6 -28 16l-81 88c-3 4 -4 9 -4 12c0 15 13 27 24 27s16 -6 25 -14z" />
    <glyph glyph-name="Aacute" unicode="&#xc1;" horiz-adv-x="549" 
d="M142 163l-45 -148c-6 -12 -21 -24 -32 -24c-19 0 -35 13 -35 33c0 3 1 10 2 13l199 630c8 28 20 49 46 49c25 0 38 -22 47 -49l199 -630c0 -2 1 -9 1 -13c0 -20 -15 -33 -35 -33c-12 0 -28 10 -32 24l-46 148h-269zM277 607l-116 -379h231zM253 825l87 91
c6 6 13 14 23 14c14 0 25 -14 25 -27c0 -4 -1 -9 -3 -12l-82 -87c-10 -10 -16 -17 -27 -17c-15 0 -27 13 -27 28c0 4 1 6 4 10z" />
    <glyph glyph-name="Acircumflex" unicode="&#xc2;" horiz-adv-x="549" 
d="M142 163l-45 -148c-6 -12 -21 -24 -32 -24c-19 0 -35 13 -35 33c0 3 1 10 2 13l199 630c8 28 20 49 46 49c25 0 38 -22 47 -49l199 -630c0 -2 1 -9 1 -13c0 -20 -15 -33 -35 -33c-12 0 -28 10 -32 24l-46 148h-269zM277 607l-116 -379h231zM276 853l-83 -68
c-1 -2 -9 -3 -13 -3c-9 0 -18 10 -18 19c0 7 9 17 16 24l81 69h-1c5 3 11 7 18 7c6 0 12 -4 18 -7h-1l81 -69c6 -7 16 -17 16 -24c0 -9 -9 -19 -19 -19c-4 0 -11 1 -12 3z" />
    <glyph glyph-name="Atilde" unicode="&#xc3;" horiz-adv-x="549" 
d="M142 163l-45 -148c-6 -12 -21 -24 -32 -24c-19 0 -35 13 -35 33c0 3 1 10 2 13l199 630c8 28 20 49 46 49c25 0 38 -22 47 -49l199 -630c0 -2 1 -9 1 -13c0 -20 -15 -33 -35 -33c-12 0 -28 10 -32 24l-46 148h-269zM277 607l-116 -379h231zM409 856
c0 -31 -43 -54 -77 -54c-22 0 -42 9 -59 18c-13 6 -22 15 -44 15c-12 0 -26 -3 -45 -18c-7 -6 -11 -9 -19 -9c-12 0 -23 7 -23 23c0 28 37 56 75 56c20 0 38 -8 58 -19c17 -9 29 -13 45 -14c27 0 38 8 48 17c5 4 13 12 21 12s20 -10 20 -27z" />
    <glyph glyph-name="Adieresis" unicode="&#xc4;" horiz-adv-x="549" 
d="M142 163l-45 -148c-6 -12 -21 -24 -32 -24c-19 0 -35 13 -35 33c0 3 1 10 2 13l199 630c8 28 20 49 46 49c25 0 38 -22 47 -49l199 -630c0 -2 1 -9 1 -13c0 -20 -15 -33 -35 -33c-12 0 -28 10 -32 24l-46 148h-269zM277 607l-116 -379h231zM403 846
c0 -24 -18 -42 -40 -42s-42 19 -42 42c0 21 20 41 42 41s40 -19 40 -41zM230 846c0 -24 -18 -42 -41 -42c-22 0 -40 19 -40 42c0 21 18 41 40 41c23 0 41 -19 41 -41z" />
    <glyph glyph-name="Aring" unicode="&#xc5;" horiz-adv-x="549" 
d="M382 734c0 -38 -20 -71 -51 -91l192 -606c0 -2 1 -9 1 -13c0 -20 -15 -33 -35 -33c-12 0 -28 10 -32 24l-46 148h-269l-45 -148c-6 -12 -21 -24 -32 -24c-19 0 -35 13 -35 33c0 3 1 10 2 13l192 606c-32 21 -52 54 -52 91c0 57 47 105 106 105c58 0 104 -47 104 -105z
M277 607l-116 -379h231zM346 734c0 37 -30 70 -68 70s-70 -33 -70 -70c0 -38 32 -69 70 -69s68 30 68 69z" />
    <glyph glyph-name="AE" unicode="&#xc6;" horiz-adv-x="722" 
d="M419 0c-30 0 -57 9 -57 40v122h-221l-45 -148c-4 -14 -20 -24 -31 -24c-21 0 -36 13 -36 33c0 3 1 10 2 13l197 620c9 28 21 49 46 49h375c18 0 33 -15 33 -34c0 -17 -15 -30 -33 -30h-221v-255h202c16 0 31 -14 31 -32s-14 -32 -31 -32h-202v-258h231
c18 0 33 -14 33 -30c0 -20 -14 -34 -33 -34h-240zM362 641h-58c-16 0 -17 -4 -21 -17l-122 -397h201v414z" />
    <glyph glyph-name="Ccedilla" unicode="&#xc7;" horiz-adv-x="482" 
d="M363 -132c0 -64 -75 -96 -133 -84c-25 5 -52 19 -43 38v-1c5 8 14 6 28 3l18 -4c53 -12 79 22 79 51c0 33 -34 40 -68 42c-30 2 -33 6 -31 25l10 57c-118 22 -173 116 -173 249v219c0 153 72 253 222 253c91 0 174 -37 174 -80c0 -16 -12 -28 -29 -28c-9 0 -14 4 -22 9
c-36 24 -65 40 -119 40c-119 0 -159 -77 -159 -194v-219c0 -117 40 -193 159 -193c43 0 76 10 118 39c10 7 16 10 23 10c17 0 29 -13 29 -29c0 -43 -85 -79 -173 -79h-15l-7 -47c79 0 112 -35 112 -77z" />
    <glyph glyph-name="Egrave" unicode="&#xc8;" horiz-adv-x="474" 
d="M440 35c0 -20 -15 -34 -33 -34h-271c-30 0 -57 9 -57 40v624c0 21 17 41 41 41h277c18 0 32 -15 32 -34c0 -17 -14 -30 -32 -30h-252v-255h232c17 0 32 -14 32 -32s-14 -32 -32 -32h-232v-258h262c17 0 33 -14 33 -30zM217 916l86 -91c3 -3 4 -7 4 -10
c0 -16 -13 -28 -26 -28c-11 0 -19 6 -28 16l-81 88c-3 4 -4 9 -4 12c0 15 13 27 24 27s16 -6 25 -14z" />
    <glyph glyph-name="Eacute" unicode="&#xc9;" horiz-adv-x="474" 
d="M440 35c0 -20 -15 -34 -33 -34h-271c-30 0 -57 9 -57 40v624c0 21 17 41 41 41h277c18 0 32 -15 32 -34c0 -17 -14 -30 -32 -30h-252v-255h232c17 0 32 -14 32 -32s-14 -32 -32 -32h-232v-258h262c17 0 33 -14 33 -30zM213 825l87 91c6 6 13 14 23 14c14 0 25 -14 25 -27
c0 -4 -1 -9 -3 -12l-82 -87c-10 -10 -16 -17 -27 -17c-15 0 -27 13 -27 28c0 4 1 6 4 10z" />
    <glyph glyph-name="Ecircumflex" unicode="&#xca;" horiz-adv-x="474" 
d="M440 35c0 -20 -15 -34 -33 -34h-271c-30 0 -57 9 -57 40v624c0 21 17 41 41 41h277c18 0 32 -15 32 -34c0 -17 -14 -30 -32 -30h-252v-255h232c17 0 32 -14 32 -32s-14 -32 -32 -32h-232v-258h262c17 0 33 -14 33 -30zM263 853l-83 -68c-1 -2 -9 -3 -13 -3
c-9 0 -18 10 -18 19c0 7 9 17 16 24l81 69h-1c5 3 11 7 18 7c6 0 12 -4 18 -7h-1l81 -69c6 -7 16 -17 16 -24c0 -9 -9 -19 -19 -19c-4 0 -11 1 -12 3z" />
    <glyph glyph-name="Edieresis" unicode="&#xcb;" horiz-adv-x="474" 
d="M440 35c0 -20 -15 -34 -33 -34h-271c-30 0 -57 9 -57 40v624c0 21 17 41 41 41h277c18 0 32 -15 32 -34c0 -17 -14 -30 -32 -30h-252v-255h232c17 0 32 -14 32 -32s-14 -32 -32 -32h-232v-258h262c17 0 33 -14 33 -30zM389 846c0 -24 -18 -42 -40 -42s-42 19 -42 42
c0 21 20 41 42 41s40 -19 40 -41zM216 846c0 -24 -18 -42 -41 -42c-22 0 -40 19 -40 42c0 21 18 41 40 41c23 0 41 -19 41 -41z" />
    <glyph glyph-name="Igrave" unicode="&#xcc;" horiz-adv-x="227" 
d="M80 24v659c0 17 16 33 34 33c19 0 33 -16 33 -33v-659c0 -18 -14 -33 -33 -33c-18 0 -34 15 -34 33zM67 916l86 -91c3 -3 4 -7 4 -10c0 -16 -13 -28 -26 -28c-11 0 -19 6 -28 16l-81 88c-3 4 -4 9 -4 12c0 15 13 27 24 27s16 -6 25 -14z" />
    <glyph glyph-name="Iacute" unicode="&#xcd;" horiz-adv-x="227" 
d="M80 24v659c0 17 16 33 34 33c19 0 33 -16 33 -33v-659c0 -18 -14 -33 -33 -33c-18 0 -34 15 -34 33zM76 825l87 91c6 6 13 14 23 14c14 0 25 -14 25 -27c0 -4 -1 -9 -3 -12l-82 -87c-10 -10 -16 -17 -27 -17c-15 0 -27 13 -27 28c0 4 1 6 4 10z" />
    <glyph glyph-name="Icircumflex" unicode="&#xce;" horiz-adv-x="227" 
d="M80 24v659c0 17 16 33 34 33c19 0 33 -16 33 -33v-659c0 -18 -14 -33 -33 -33c-18 0 -34 15 -34 33zM116 853l-83 -68c-1 -2 -9 -3 -13 -3c-9 0 -18 10 -18 19c0 7 9 17 16 24l81 69h-1c5 3 11 7 18 7c6 0 12 -4 18 -7h-1l81 -69c6 -7 16 -17 16 -24c0 -9 -9 -19 -19 -19
c-4 0 -11 1 -12 3z" />
    <glyph glyph-name="Idieresis" unicode="&#xcf;" horiz-adv-x="227" 
d="M80 24v659c0 17 16 33 34 33c19 0 33 -16 33 -33v-659c0 -18 -14 -33 -33 -33c-18 0 -34 15 -34 33zM242 846c0 -24 -18 -42 -40 -42s-42 19 -42 42c0 21 20 41 42 41s40 -19 40 -41zM69 846c0 -24 -18 -42 -41 -42c-22 0 -40 19 -40 42c0 21 18 41 40 41
c23 0 41 -19 41 -41z" />
    <glyph glyph-name="Eth" unicode="&#xd0;" horiz-adv-x="574" 
d="M528 263c0 -136 -68 -262 -271 -262h-116c-22 0 -42 18 -42 41v283h-47c-17 0 -30 12 -30 29c0 16 13 30 30 30h47v281c0 23 20 42 42 42h116c202 0 271 -121 271 -253v-191zM335 354c0 -17 -12 -29 -28 -29h-141v-260h108c140 0 188 88 188 198v191
c0 105 -50 189 -188 189h-108v-259h141c16 0 28 -14 28 -30z" />
    <glyph glyph-name="Ntilde" unicode="&#xd1;" horiz-adv-x="600" 
d="M489 -9c-13 0 -29 7 -35 19l-309 571v-556c0 -19 -15 -34 -34 -34c-18 0 -33 15 -33 34v653c0 22 16 38 37 38c15 0 29 -8 36 -21l309 -572v559c0 18 16 34 34 34s32 -16 32 -34v-654c0 -21 -15 -37 -37 -37zM435 856c0 -31 -43 -54 -77 -54c-22 0 -42 9 -59 18
c-13 6 -22 15 -44 15c-12 0 -26 -3 -45 -18c-7 -6 -11 -9 -19 -9c-12 0 -23 7 -23 23c0 28 37 56 75 56c20 0 38 -8 58 -19c17 -9 29 -13 45 -14c27 0 38 8 48 17c5 4 13 12 21 12s20 -10 20 -27z" />
    <glyph glyph-name="Ograve" unicode="&#xd2;" horiz-adv-x="551" 
d="M278 -9c-151 0 -228 112 -228 253v219c0 138 64 253 228 253c162 0 227 -115 227 -253v-219c0 -141 -76 -253 -227 -253zM278 652c-119 0 -161 -76 -161 -189v-219c0 -111 51 -189 161 -189s160 78 160 189v219c0 113 -43 189 -160 189zM235 916l86 -91c3 -3 4 -7 4 -10
c0 -16 -13 -28 -26 -28c-11 0 -19 6 -28 16l-81 88c-3 4 -4 9 -4 12c0 15 13 27 24 27s16 -6 25 -14z" />
    <glyph glyph-name="Oacute" unicode="&#xd3;" horiz-adv-x="551" 
d="M278 -9c-151 0 -228 112 -228 253v219c0 138 64 253 228 253c162 0 227 -115 227 -253v-219c0 -141 -76 -253 -227 -253zM278 652c-119 0 -161 -76 -161 -189v-219c0 -111 51 -189 161 -189s160 78 160 189v219c0 113 -43 189 -160 189zM240 825l87 91c6 6 13 14 23 14
c14 0 25 -14 25 -27c0 -4 -1 -9 -3 -12l-82 -87c-10 -10 -16 -17 -27 -17c-15 0 -27 13 -27 28c0 4 1 6 4 10z" />
    <glyph glyph-name="Ocircumflex" unicode="&#xd4;" horiz-adv-x="551" 
d="M278 -9c-151 0 -228 112 -228 253v219c0 138 64 253 228 253c162 0 227 -115 227 -253v-219c0 -141 -76 -253 -227 -253zM278 652c-119 0 -161 -76 -161 -189v-219c0 -111 51 -189 161 -189s160 78 160 189v219c0 113 -43 189 -160 189zM277 853l-83 -68
c-1 -2 -9 -3 -13 -3c-9 0 -18 10 -18 19c0 7 9 17 16 24l81 69h-1c5 3 11 7 18 7c6 0 12 -4 18 -7h-1l81 -69c6 -7 16 -17 16 -24c0 -9 -9 -19 -19 -19c-4 0 -11 1 -12 3z" />
    <glyph glyph-name="Otilde" unicode="&#xd5;" horiz-adv-x="551" 
d="M278 -9c-151 0 -228 112 -228 253v219c0 138 64 253 228 253c162 0 227 -115 227 -253v-219c0 -141 -76 -253 -227 -253zM278 652c-119 0 -161 -76 -161 -189v-219c0 -111 51 -189 161 -189s160 78 160 189v219c0 113 -43 189 -160 189zM410 856c0 -31 -43 -54 -77 -54
c-22 0 -42 9 -59 18c-13 6 -22 15 -44 15c-12 0 -26 -3 -45 -18c-7 -6 -11 -9 -19 -9c-12 0 -23 7 -23 23c0 28 37 56 75 56c20 0 38 -8 58 -19c17 -9 29 -13 45 -14c27 0 38 8 48 17c5 4 13 12 21 12s20 -10 20 -27z" />
    <glyph glyph-name="Odieresis" unicode="&#xd6;" horiz-adv-x="551" 
d="M278 -9c-151 0 -228 112 -228 253v219c0 138 64 253 228 253c162 0 227 -115 227 -253v-219c0 -141 -76 -253 -227 -253zM278 652c-119 0 -161 -76 -161 -189v-219c0 -111 51 -189 161 -189s160 78 160 189v219c0 113 -43 189 -160 189zM404 846c0 -24 -18 -42 -40 -42
s-42 19 -42 42c0 21 20 41 42 41s40 -19 40 -41zM231 846c0 -24 -18 -42 -41 -42c-22 0 -40 19 -40 42c0 21 18 41 40 41c23 0 41 -19 41 -41z" />
    <glyph glyph-name="multiply" unicode="&#xd7;" horiz-adv-x="500" 
d="M426 482l-127 -127l127 -128c6 -7 10 -14 10 -24c0 -14 -17 -31 -32 -31c-8 0 -19 3 -24 9l-127 128l-129 -128c-5 -6 -14 -9 -23 -9c-15 0 -32 18 -32 31c0 9 3 17 10 24l128 128l-128 127c-7 6 -10 16 -10 24c0 13 19 32 32 32c9 0 17 -3 24 -10l128 -127l127 127
c8 8 16 10 24 10c12 0 32 -15 32 -32c0 -8 -4 -18 -10 -24z" />
    <glyph glyph-name="Oslash" unicode="&#xd8;" horiz-adv-x="551" 
d="M29 29l53 75c-21 44 -32 91 -32 140v219c0 138 64 253 228 253c79 0 136 -29 177 -77l43 60c6 9 18 11 27 5c8 -6 11 -17 4 -27l-53 -75c20 -41 29 -89 29 -139v-219c0 -141 -76 -253 -227 -253c-74 0 -133 28 -175 77l-43 -61c-6 -9 -18 -11 -27 -5c-8 6 -12 17 -4 27z
M278 652c-119 0 -162 -76 -162 -189v-219c0 -18 3 -41 11 -75l288 411c-27 45 -70 72 -137 72zM438 463c0 20 -3 46 -8 73l-287 -410c27 -44 73 -71 135 -71c110 0 160 78 160 189v219z" />
    <glyph glyph-name="Ugrave" unicode="&#xd9;" horiz-adv-x="572" 
d="M507 228c0 -137 -81 -237 -218 -237c-141 0 -219 101 -219 237v452c0 21 16 36 35 36c18 0 32 -16 32 -36v-452c0 -102 49 -173 152 -173s150 73 150 173v452c0 19 15 36 33 36c19 0 35 -17 35 -36v-452zM232 916l86 -91c3 -3 4 -7 4 -10c0 -16 -13 -28 -26 -28
c-11 0 -19 6 -28 16l-81 88c-3 4 -4 9 -4 12c0 15 13 27 24 27s16 -6 25 -14z" />
    <glyph glyph-name="Uacute" unicode="&#xda;" horiz-adv-x="572" 
d="M507 228c0 -137 -81 -237 -218 -237c-141 0 -219 101 -219 237v452c0 21 16 36 35 36c18 0 32 -16 32 -36v-452c0 -102 49 -173 152 -173s150 73 150 173v452c0 19 15 36 33 36c19 0 35 -17 35 -36v-452zM257 825l87 91c6 6 13 14 23 14c14 0 25 -14 25 -27
c0 -4 -1 -9 -3 -12l-82 -87c-10 -10 -16 -17 -27 -17c-15 0 -27 13 -27 28c0 4 1 6 4 10z" />
    <glyph glyph-name="Ucircumflex" unicode="&#xdb;" horiz-adv-x="572" 
d="M507 228c0 -137 -81 -237 -218 -237c-141 0 -219 101 -219 237v452c0 21 16 36 35 36c18 0 32 -16 32 -36v-452c0 -102 49 -173 152 -173s150 73 150 173v452c0 19 15 36 33 36c19 0 35 -17 35 -36v-452zM288 853l-83 -68c-1 -2 -9 -3 -13 -3c-9 0 -18 10 -18 19
c0 7 9 17 16 24l81 69h-1c5 3 11 7 18 7c6 0 12 -4 18 -7h-1l81 -69c6 -7 16 -17 16 -24c0 -9 -9 -19 -19 -19c-4 0 -11 1 -12 3z" />
    <glyph glyph-name="Udieresis" unicode="&#xdc;" horiz-adv-x="572" 
d="M507 228c0 -137 -81 -237 -218 -237c-141 0 -219 101 -219 237v452c0 21 16 36 35 36c18 0 32 -16 32 -36v-452c0 -102 49 -173 152 -173s150 73 150 173v452c0 19 15 36 33 36c19 0 35 -17 35 -36v-452zM414 846c0 -24 -18 -42 -40 -42s-42 19 -42 42c0 21 20 41 42 41
s40 -19 40 -41zM241 846c0 -24 -18 -42 -41 -42c-22 0 -40 19 -40 42c0 21 18 41 40 41c23 0 41 -19 41 -41z" />
    <glyph glyph-name="Yacute" unicode="&#xdd;" horiz-adv-x="476" 
d="M241 -9c-20 0 -35 15 -35 35v253l-182 386c-2 5 -4 12 -4 17c0 18 17 34 35 34c9 0 19 -4 24 -13v1l162 -351l161 351v-1c5 9 15 13 25 13c17 0 33 -16 33 -34c0 -5 -2 -13 -3 -17l-183 -390v-249c0 -19 -14 -35 -33 -35zM174 825l87 91c6 6 13 14 23 14
c14 0 25 -14 25 -27c0 -4 -1 -9 -3 -12l-82 -87c-10 -10 -16 -17 -27 -17c-15 0 -27 13 -27 28c0 4 1 6 4 10z" />
    <glyph glyph-name="Thorn" unicode="&#xde;" horiz-adv-x="530" 
d="M79 24v659c0 17 15 33 33 33c19 0 33 -16 33 -33v-99h126c163 0 221 -107 221 -222c0 -140 -86 -218 -221 -218h-126v-120c0 -18 -14 -33 -33 -33c-18 0 -33 15 -33 33zM145 520v-312h126c102 0 155 49 155 155c0 77 -29 157 -155 157h-126z" />
    <glyph glyph-name="germandbls" unicode="&#xdf;" horiz-adv-x="544" 
d="M516 161c0 -101 -62 -164 -175 -164c-23 0 -125 1 -125 39c0 13 8 30 34 30c10 0 23 -2 37 -5c17 -3 34 -6 53 -6c50 0 111 28 111 104c0 89 -83 132 -142 150c-36 11 -77 24 -77 64c0 30 17 46 35 55c67 33 123 54 123 126c0 70 -51 106 -123 106
c-87 0 -124 -50 -124 -155v-539c0 -18 -15 -32 -32 -32c-19 0 -33 14 -33 32v536c0 136 69 217 195 217c103 0 180 -55 180 -156c0 -70 -35 -116 -84 -138c-25 -11 -78 -24 -71 -49c5 -13 18 -17 71 -35c83 -31 147 -85 147 -180z" />
    <glyph glyph-name="agrave" unicode="&#xe0;" horiz-adv-x="482" 
d="M335 272v69c0 81 -38 119 -117 119c-37 0 -58 -8 -81 -22c-6 -4 -14 -8 -24 -8c-15 0 -21 14 -22 26c-4 42 70 59 137 59c123 0 172 -70 172 -201v-226c0 -26 9 -39 27 -39c4 0 6 1 8 1c15 0 22 -14 22 -27c0 -20 -20 -27 -38 -27c-31 0 -58 22 -76 57
c-42 -40 -89 -60 -143 -60c-101 0 -150 60 -150 147v4c0 96 57 146 174 146c34 0 72 -7 111 -18zM223 237c-92 0 -109 -43 -109 -94v-4c0 -52 23 -90 99 -90c46 0 83 16 122 49v120c-40 13 -82 19 -112 19zM201 716l86 -91c3 -3 4 -7 4 -10c0 -16 -13 -28 -26 -28
c-11 0 -19 6 -28 16l-81 88c-3 4 -4 9 -4 12c0 15 13 27 24 27s16 -6 25 -14z" />
    <glyph glyph-name="aacute" unicode="&#xe1;" horiz-adv-x="482" 
d="M335 272v69c0 81 -38 119 -117 119c-37 0 -58 -8 -81 -22c-6 -4 -14 -8 -24 -8c-15 0 -21 14 -22 26c-4 42 70 59 137 59c123 0 172 -70 172 -201v-226c0 -26 9 -39 27 -39c4 0 6 1 8 1c15 0 22 -14 22 -27c0 -20 -20 -27 -38 -27c-31 0 -58 22 -76 57
c-42 -40 -89 -60 -143 -60c-101 0 -150 60 -150 147v4c0 96 57 146 174 146c34 0 72 -7 111 -18zM223 237c-92 0 -109 -43 -109 -94v-4c0 -52 23 -90 99 -90c46 0 83 16 122 49v120c-40 13 -82 19 -112 19zM206 625l87 91c6 6 13 14 23 14c14 0 25 -14 25 -27
c0 -4 -1 -9 -3 -12l-82 -87c-10 -10 -16 -17 -27 -17c-15 0 -27 13 -27 28c0 4 1 6 4 10z" />
    <glyph glyph-name="acircumflex" unicode="&#xe2;" horiz-adv-x="482" 
d="M335 272v69c0 81 -38 119 -117 119c-37 0 -58 -8 -81 -22c-6 -4 -14 -8 -24 -8c-15 0 -21 14 -22 26c-4 42 70 59 137 59c123 0 172 -70 172 -201v-226c0 -26 9 -39 27 -39c4 0 6 1 8 1c15 0 22 -14 22 -27c0 -20 -20 -27 -38 -27c-31 0 -58 22 -76 57
c-42 -40 -89 -60 -143 -60c-101 0 -150 60 -150 147v4c0 96 57 146 174 146c34 0 72 -7 111 -18zM223 237c-92 0 -109 -43 -109 -94v-4c0 -52 23 -90 99 -90c46 0 83 16 122 49v120c-40 13 -82 19 -112 19zM243 653l-83 -68c-1 -2 -9 -3 -13 -3c-9 0 -18 10 -18 19
c0 7 9 17 16 24l81 69h-1c5 3 11 7 18 7c6 0 12 -4 18 -7h-1l81 -69c6 -7 16 -17 16 -24c0 -9 -9 -19 -19 -19c-4 0 -11 1 -12 3z" />
    <glyph glyph-name="atilde" unicode="&#xe3;" horiz-adv-x="482" 
d="M335 272v69c0 81 -38 119 -117 119c-37 0 -58 -8 -81 -22c-6 -4 -14 -8 -24 -8c-15 0 -21 14 -22 26c-4 42 70 59 137 59c123 0 172 -70 172 -201v-226c0 -26 9 -39 27 -39c4 0 6 1 8 1c15 0 22 -14 22 -27c0 -20 -20 -27 -38 -27c-31 0 -58 22 -76 57
c-42 -40 -89 -60 -143 -60c-101 0 -150 60 -150 147v4c0 96 57 146 174 146c34 0 72 -7 111 -18zM223 237c-92 0 -109 -43 -109 -94v-4c0 -52 23 -90 99 -90c46 0 83 16 122 49v120c-40 13 -82 19 -112 19zM376 656c0 -31 -43 -54 -77 -54c-22 0 -42 9 -59 18
c-13 6 -22 15 -44 15c-12 0 -26 -3 -45 -18c-7 -6 -11 -9 -19 -9c-12 0 -23 7 -23 23c0 28 37 56 75 56c20 0 38 -8 58 -19c17 -9 29 -13 45 -14c27 0 38 8 48 17c5 4 13 12 21 12s20 -10 20 -27z" />
    <glyph glyph-name="adieresis" unicode="&#xe4;" horiz-adv-x="482" 
d="M335 272v69c0 81 -38 119 -117 119c-37 0 -58 -8 -81 -22c-6 -4 -14 -8 -24 -8c-15 0 -21 14 -22 26c-4 42 70 59 137 59c123 0 172 -70 172 -201v-226c0 -26 9 -39 27 -39c4 0 6 1 8 1c15 0 22 -14 22 -27c0 -20 -20 -27 -38 -27c-31 0 -58 22 -76 57
c-42 -40 -89 -60 -143 -60c-101 0 -150 60 -150 147v4c0 96 57 146 174 146c34 0 72 -7 111 -18zM223 237c-92 0 -109 -43 -109 -94v-4c0 -52 23 -90 99 -90c46 0 83 16 122 49v120c-40 13 -82 19 -112 19zM369 646c0 -24 -18 -42 -40 -42s-42 19 -42 42c0 21 20 41 42 41
s40 -19 40 -41zM196 646c0 -24 -18 -42 -41 -42c-22 0 -40 19 -40 42c0 21 18 41 40 41c23 0 41 -19 41 -41z" />
    <glyph glyph-name="aring" unicode="&#xe5;" horiz-adv-x="482" 
d="M335 272v69c0 81 -38 119 -117 119c-37 0 -58 -8 -81 -22c-6 -4 -14 -8 -24 -8c-15 0 -21 14 -22 26c-4 42 70 59 137 59c123 0 172 -70 172 -201v-226c0 -26 9 -39 27 -39c4 0 6 1 8 1c15 0 22 -14 22 -27c0 -20 -20 -27 -38 -27c-31 0 -58 22 -76 57
c-42 -40 -89 -60 -143 -60c-101 0 -150 60 -150 147v4c0 96 57 146 174 146c34 0 72 -7 111 -18zM223 237c-92 0 -109 -43 -109 -94v-4c0 -52 23 -90 99 -90c46 0 83 16 122 49v120c-40 13 -82 19 -112 19zM338 651c0 -52 -41 -93 -93 -93c-53 0 -95 41 -95 93s42 94 95 94
c52 0 93 -42 93 -94zM307 651c0 35 -27 64 -62 64s-63 -29 -63 -64s28 -62 63 -62s62 27 62 62z" />
    <glyph glyph-name="ae" unicode="&#xe6;" horiz-adv-x="712" 
d="M512 210c-33 0 -74 3 -114 11v-71c0 -61 42 -102 121 -102c46 0 74 13 110 29c4 2 8 3 12 3c15 0 27 -14 27 -28c0 -45 -107 -59 -155 -59c-66 0 -114 30 -141 77c-51 -52 -106 -77 -173 -77c-101 0 -151 60 -151 147v4c0 96 58 146 174 146c34 0 72 -7 112 -18v69
c0 81 -39 119 -118 119c-37 0 -58 -9 -80 -22c-2 0 -3 -1 -6 -3c-4 -2 -13 -5 -19 -5c-15 0 -21 14 -22 26c-4 42 70 59 137 59c69 0 114 -33 141 -96c28 58 79 96 152 96c104 0 159 -63 159 -160c0 -90 -50 -145 -166 -145zM614 355c0 73 -37 103 -101 103
c-72 0 -115 -40 -115 -102v-85c44 -5 96 -8 117 -8c83 0 99 45 99 92zM334 98v120c-41 13 -83 19 -113 19c-92 0 -109 -43 -109 -94v-4c0 -52 24 -90 99 -90c46 0 83 16 123 49z" />
    <glyph glyph-name="ccedilla" unicode="&#xe7;" horiz-adv-x="393" 
d="M333 -139c0 -40 -34 -79 -104 -79c-19 0 -26 0 -30 1c-27 3 -53 19 -43 38v-1c5 8 13 7 27 3l19 -4c53 -11 79 22 79 49c0 30 -23 42 -69 44c-26 1 -34 7 -31 25l10 58c-98 16 -141 90 -141 179v156c0 102 54 182 178 182c45 0 135 -12 135 -55c0 -15 -12 -27 -27 -27
c-6 0 -10 1 -15 2h1c-25 13 -49 25 -86 25c-87 0 -121 -47 -121 -127v-156c0 -79 34 -126 121 -126c39 0 62 12 86 24h-1c7 2 11 3 15 3c15 0 27 -13 27 -28c0 -41 -87 -54 -136 -55l-8 -48c85 -1 114 -34 114 -83z" />
    <glyph glyph-name="egrave" unicode="&#xe8;" horiz-adv-x="435" 
d="M236 48c46 0 74 13 110 29c2 1 7 3 11 3c16 0 28 -14 28 -28c0 -45 -106 -59 -159 -59c-112 0 -176 71 -176 163v192c0 95 64 167 182 167c109 0 162 -63 162 -160c0 -90 -49 -145 -166 -145c-33 0 -74 3 -113 11v-71c0 -61 41 -102 121 -102zM330 355
c0 73 -37 103 -101 103c-72 0 -114 -40 -114 -102v-85c43 -6 96 -8 117 -8c84 0 98 45 98 92zM158 716l86 -91c3 -3 4 -7 4 -10c0 -16 -13 -28 -26 -28c-11 0 -19 6 -28 16l-81 88c-3 4 -4 9 -4 12c0 15 13 27 24 27s16 -6 25 -14z" />
    <glyph glyph-name="eacute" unicode="&#xe9;" horiz-adv-x="435" 
d="M236 48c46 0 74 13 110 29c2 1 7 3 11 3c16 0 28 -14 28 -28c0 -45 -106 -59 -159 -59c-112 0 -176 71 -176 163v192c0 95 64 167 182 167c109 0 162 -63 162 -160c0 -90 -49 -145 -166 -145c-33 0 -74 3 -113 11v-71c0 -61 41 -102 121 -102zM330 355
c0 73 -37 103 -101 103c-72 0 -114 -40 -114 -102v-85c43 -6 96 -8 117 -8c84 0 98 45 98 92zM190 625l87 91c6 6 13 14 23 14c14 0 25 -14 25 -27c0 -4 -1 -9 -3 -12l-82 -87c-10 -10 -16 -17 -27 -17c-15 0 -27 13 -27 28c0 4 1 6 4 10z" />
    <glyph glyph-name="ecircumflex" unicode="&#xea;" horiz-adv-x="435" 
d="M236 48c46 0 74 13 110 29c2 1 7 3 11 3c16 0 28 -14 28 -28c0 -45 -106 -59 -159 -59c-112 0 -176 71 -176 163v192c0 95 64 167 182 167c109 0 162 -63 162 -160c0 -90 -49 -145 -166 -145c-33 0 -74 3 -113 11v-71c0 -61 41 -102 121 -102zM330 355
c0 73 -37 103 -101 103c-72 0 -114 -40 -114 -102v-85c43 -6 96 -8 117 -8c84 0 98 45 98 92zM219 653l-83 -68c-1 -2 -9 -3 -13 -3c-9 0 -18 10 -18 19c0 7 9 17 16 24l81 69h-1c5 3 11 7 18 7c6 0 12 -4 18 -7h-1l81 -69c6 -7 16 -17 16 -24c0 -9 -9 -19 -19 -19
c-4 0 -11 1 -12 3z" />
    <glyph glyph-name="edieresis" unicode="&#xeb;" horiz-adv-x="435" 
d="M236 48c46 0 74 13 110 29c2 1 7 3 11 3c16 0 28 -14 28 -28c0 -45 -106 -59 -159 -59c-112 0 -176 71 -176 163v192c0 95 64 167 182 167c109 0 162 -63 162 -160c0 -90 -49 -145 -166 -145c-33 0 -74 3 -113 11v-71c0 -61 41 -102 121 -102zM330 355
c0 73 -37 103 -101 103c-72 0 -114 -40 -114 -102v-85c43 -6 96 -8 117 -8c84 0 98 45 98 92zM346 646c0 -24 -18 -42 -40 -42s-42 19 -42 42c0 21 20 41 42 41s40 -19 40 -41zM173 646c0 -24 -18 -42 -41 -42c-22 0 -40 19 -40 42c0 21 18 41 40 41c23 0 41 -19 41 -41z
" />
    <glyph glyph-name="igrave" unicode="&#xec;" horiz-adv-x="245" 
d="M156 25c0 -18 -15 -32 -32 -32c-19 0 -33 14 -33 32v454c0 18 14 33 33 33c17 0 32 -15 32 -33v-454zM71 716l86 -91c3 -3 4 -7 4 -10c0 -16 -13 -28 -26 -28c-11 0 -19 6 -28 16l-81 88c-3 4 -4 9 -4 12c0 15 13 27 24 27s16 -6 25 -14z" />
    <glyph glyph-name="iacute" unicode="&#xed;" horiz-adv-x="245" 
d="M156 25c0 -18 -15 -32 -32 -32c-19 0 -33 14 -33 32v454c0 18 14 33 33 33c17 0 32 -15 32 -33v-454zM93 625l87 91c6 6 13 14 23 14c14 0 25 -14 25 -27c0 -4 -1 -9 -3 -12l-82 -87c-10 -10 -16 -17 -27 -17c-15 0 -27 13 -27 28c0 4 1 6 4 10z" />
    <glyph glyph-name="icircumflex" unicode="&#xee;" horiz-adv-x="245" 
d="M156 25c0 -18 -15 -32 -32 -32c-19 0 -33 14 -33 32v454c0 18 14 33 33 33c17 0 32 -15 32 -33v-454zM125 653l-83 -68c-1 -2 -9 -3 -13 -3c-9 0 -18 10 -18 19c0 7 9 17 16 24l81 69h-1c5 3 11 7 18 7c6 0 12 -4 18 -7h-1l81 -69c6 -7 16 -17 16 -24
c0 -9 -9 -19 -19 -19c-4 0 -11 1 -12 3z" />
    <glyph glyph-name="idieresis" unicode="&#xef;" horiz-adv-x="245" 
d="M156 25c0 -18 -15 -32 -32 -32c-19 0 -33 14 -33 32v454c0 18 14 33 33 33c17 0 32 -15 32 -33v-454zM251 646c0 -24 -18 -42 -40 -42s-42 19 -42 42c0 21 20 41 42 41s40 -19 40 -41zM78 646c0 -24 -18 -42 -41 -42c-22 0 -40 19 -40 42c0 21 18 41 40 41
c23 0 41 -19 41 -41z" />
    <glyph glyph-name="eth" unicode="&#xf0;" horiz-adv-x="500" 
d="M478 677c21 -1 28 -33 9 -43l-69 -36c27 -67 43 -158 43 -270c0 -272 -77 -337 -199 -337c-151 0 -217 95 -217 219c0 125 64 226 185 226c38 0 105 -12 162 -57c0 87 -10 148 -25 190l-75 -40c-10 -5 -17 -6 -20 -6c-10 0 -23 12 -21 24c1 7 5 15 12 19l82 44
c-39 42 -79 49 -115 53c-11 1 -25 3 -23 26c1 19 10 27 50 27c56 0 104 -25 141 -78l61 33c8 4 13 6 19 6zM394 282v32c-36 38 -109 63 -157 63c-79 0 -127 -61 -127 -162c0 -92 40 -163 147 -163c104 0 137 69 137 230z" />
    <glyph glyph-name="ntilde" unicode="&#xf1;" horiz-adv-x="509" 
d="M129 464c49 34 101 49 150 49c104 0 155 -75 155 -187v-301c0 -18 -11 -31 -32 -31s-33 13 -33 31v301c0 83 -35 131 -102 131c-42 0 -84 -19 -122 -48c2 -11 3 -23 3 -34v-350c0 -18 -11 -31 -32 -31c-22 0 -33 13 -33 31v350c0 35 -4 56 -18 76c-4 5 -6 11 -6 17
c0 17 14 29 29 29c13 0 30 -11 41 -33zM378 656c0 -31 -43 -54 -77 -54c-22 0 -42 9 -59 18c-13 6 -22 15 -44 15c-12 0 -26 -3 -45 -18c-7 -6 -11 -9 -19 -9c-12 0 -23 7 -23 23c0 28 37 56 75 56c20 0 38 -8 58 -19c17 -9 29 -13 45 -14c27 0 38 8 48 17c5 4 13 12 21 12
s20 -10 20 -27z" />
    <glyph glyph-name="ograve" unicode="&#xf2;" horiz-adv-x="464" 
d="M235 -7c-120 0 -185 76 -185 175v172c0 99 65 176 185 176c121 0 185 -77 185 -176v-172c0 -99 -64 -175 -185 -175zM235 52c80 0 120 44 120 116v173c0 72 -40 117 -120 117c-79 0 -120 -45 -120 -117v-173c0 -72 41 -116 120 -116zM185 716l86 -91c3 -3 4 -7 4 -10
c0 -16 -13 -28 -26 -28c-11 0 -19 6 -28 16l-81 88c-3 4 -4 9 -4 12c0 15 13 27 24 27s16 -6 25 -14z" />
    <glyph glyph-name="oacute" unicode="&#xf3;" horiz-adv-x="464" 
d="M235 -7c-120 0 -185 76 -185 175v172c0 99 65 176 185 176c121 0 185 -77 185 -176v-172c0 -99 -64 -175 -185 -175zM235 52c80 0 120 44 120 116v173c0 72 -40 117 -120 117c-79 0 -120 -45 -120 -117v-173c0 -72 41 -116 120 -116zM167 625l87 91c6 6 13 14 23 14
c14 0 25 -14 25 -27c0 -4 -1 -9 -3 -12l-82 -87c-10 -10 -16 -17 -27 -17c-15 0 -27 13 -27 28c0 4 1 6 4 10z" />
    <glyph glyph-name="ocircumflex" unicode="&#xf4;" horiz-adv-x="464" 
d="M235 -7c-120 0 -185 76 -185 175v172c0 99 65 176 185 176c121 0 185 -77 185 -176v-172c0 -99 -64 -175 -185 -175zM235 52c80 0 120 44 120 116v173c0 72 -40 117 -120 117c-79 0 -120 -45 -120 -117v-173c0 -72 41 -116 120 -116zM234 653l-83 -68c-1 -2 -9 -3 -13 -3
c-9 0 -18 10 -18 19c0 7 9 17 16 24l81 69h-1c5 3 11 7 18 7c6 0 12 -4 18 -7h-1l81 -69c6 -7 16 -17 16 -24c0 -9 -9 -19 -19 -19c-4 0 -11 1 -12 3z" />
    <glyph glyph-name="otilde" unicode="&#xf5;" horiz-adv-x="464" 
d="M235 -7c-120 0 -185 76 -185 175v172c0 99 65 176 185 176c121 0 185 -77 185 -176v-172c0 -99 -64 -175 -185 -175zM235 52c80 0 120 44 120 116v173c0 72 -40 117 -120 117c-79 0 -120 -45 -120 -117v-173c0 -72 41 -116 120 -116zM367 656c0 -31 -43 -54 -77 -54
c-22 0 -42 9 -59 18c-13 6 -22 15 -44 15c-12 0 -26 -3 -45 -18c-7 -6 -11 -9 -19 -9c-12 0 -23 7 -23 23c0 28 37 56 75 56c20 0 38 -8 58 -19c17 -9 29 -13 45 -14c27 0 38 8 48 17c5 4 13 12 21 12s20 -10 20 -27z" />
    <glyph glyph-name="odieresis" unicode="&#xf6;" horiz-adv-x="464" 
d="M235 -7c-120 0 -185 76 -185 175v172c0 99 65 176 185 176c121 0 185 -77 185 -176v-172c0 -99 -64 -175 -185 -175zM235 52c80 0 120 44 120 116v173c0 72 -40 117 -120 117c-79 0 -120 -45 -120 -117v-173c0 -72 41 -116 120 -116zM360 646c0 -24 -18 -42 -40 -42
s-42 19 -42 42c0 21 20 41 42 41s40 -19 40 -41zM187 646c0 -24 -18 -42 -41 -42c-22 0 -40 19 -40 42c0 21 18 41 40 41c23 0 41 -19 41 -41z" />
    <glyph glyph-name="oslash" unicode="&#xf8;" horiz-adv-x="464" 
d="M44 10l37 53c-21 31 -31 68 -31 105v172c0 99 65 176 185 176c52 0 96 -17 131 -45l33 47c6 9 18 12 26 5c10 -8 12 -18 6 -27l-39 -55c19 -30 28 -65 28 -101v-172c0 -99 -64 -175 -185 -175c-51 0 -94 15 -128 40l-31 -45c-6 -9 -19 -11 -27 -4c-8 5 -9 18 -5 26z
M115 168c0 -5 2 -27 5 -47l209 298c-22 25 -54 39 -94 39c-79 0 -120 -45 -120 -117v-173zM235 52c80 0 120 44 120 116v173c0 6 0 11 -4 40l-207 -296c22 -22 53 -33 91 -33z" />
    <glyph glyph-name="ugrave" unicode="&#xf9;" horiz-adv-x="509" 
d="M366 120v360c0 18 11 32 33 32c21 0 32 -14 32 -32v-360c0 -50 5 -58 11 -65s15 -18 15 -28c0 -16 -14 -28 -30 -28c-17 0 -30 13 -43 33c-48 -28 -101 -39 -148 -39c-104 0 -157 75 -157 186v301c0 18 12 32 33 32s32 -14 32 -32v-301c0 -82 36 -130 103 -130
c42 0 84 14 121 38c-1 10 -2 20 -2 33zM194 716l86 -91c3 -3 4 -7 4 -10c0 -16 -13 -28 -26 -28c-11 0 -19 6 -28 16l-81 88c-3 4 -4 9 -4 12c0 15 13 27 24 27s16 -6 25 -14z" />
    <glyph glyph-name="uacute" unicode="&#xfa;" horiz-adv-x="509" 
d="M366 120v360c0 18 11 32 33 32c21 0 32 -14 32 -32v-360c0 -50 5 -58 11 -65s15 -18 15 -28c0 -16 -14 -28 -30 -28c-17 0 -30 13 -43 33c-48 -28 -101 -39 -148 -39c-104 0 -157 75 -157 186v301c0 18 12 32 33 32s32 -14 32 -32v-301c0 -82 36 -130 103 -130
c42 0 84 14 121 38c-1 10 -2 20 -2 33zM223 625l87 91c6 6 13 14 23 14c14 0 25 -14 25 -27c0 -4 -1 -9 -3 -12l-82 -87c-10 -10 -16 -17 -27 -17c-15 0 -27 13 -27 28c0 4 1 6 4 10z" />
    <glyph glyph-name="ucircumflex" unicode="&#xfb;" horiz-adv-x="509" 
d="M366 120v360c0 18 11 32 33 32c21 0 32 -14 32 -32v-360c0 -50 5 -58 11 -65s15 -18 15 -28c0 -16 -14 -28 -30 -28c-17 0 -30 13 -43 33c-48 -28 -101 -39 -148 -39c-104 0 -157 75 -157 186v301c0 18 12 32 33 32s32 -14 32 -32v-301c0 -82 36 -130 103 -130
c42 0 84 14 121 38c-1 10 -2 20 -2 33zM256 653l-83 -68c-1 -2 -9 -3 -13 -3c-9 0 -18 10 -18 19c0 7 9 17 16 24l81 69h-1c5 3 11 7 18 7c6 0 12 -4 18 -7h-1l81 -69c6 -7 16 -17 16 -24c0 -9 -9 -19 -19 -19c-4 0 -11 1 -12 3z" />
    <glyph glyph-name="udieresis" unicode="&#xfc;" horiz-adv-x="509" 
d="M366 120v360c0 18 11 32 33 32c21 0 32 -14 32 -32v-360c0 -50 5 -58 11 -65s15 -18 15 -28c0 -16 -14 -28 -30 -28c-17 0 -30 13 -43 33c-48 -28 -101 -39 -148 -39c-104 0 -157 75 -157 186v301c0 18 12 32 33 32s32 -14 32 -32v-301c0 -82 36 -130 103 -130
c42 0 84 14 121 38c-1 10 -2 20 -2 33zM383 646c0 -24 -18 -42 -40 -42s-42 19 -42 42c0 21 20 41 42 41s40 -19 40 -41zM210 646c0 -24 -18 -42 -41 -42c-22 0 -40 19 -40 42c0 21 18 41 40 41c23 0 41 -19 41 -41z" />
    <glyph glyph-name="yacute" unicode="&#xfd;" horiz-adv-x="412" 
d="M399 469l-126 -409c-46 -146 -92 -262 -215 -262c-20 0 -34 13 -34 31c0 15 11 30 30 31c71 3 100 37 133 135l-164 476c-3 3 -3 8 -3 11c0 18 15 30 33 30c12 0 24 -9 29 -21l136 -415c36 127 84 287 120 415c6 11 18 21 30 21c16 0 32 -13 32 -33c0 -5 -1 -8 -1 -10z
M189 625l87 91c6 6 13 14 23 14c14 0 25 -14 25 -27c0 -4 -1 -9 -3 -12l-82 -87c-10 -10 -16 -17 -27 -17c-15 0 -27 13 -27 28c0 4 1 6 4 10z" />
    <glyph glyph-name="thorn" unicode="&#xfe;" horiz-adv-x="485" 
d="M144 404v-278c31 -35 72 -56 126 -56c74 0 106 37 106 98v194c0 62 -32 99 -106 99c-53 0 -94 -22 -126 -57zM79 -186v879c0 16 12 32 33 32s32 -16 32 -32v-227c45 32 91 49 146 49c111 0 151 -67 151 -153v-194c0 -86 -40 -153 -151 -153c-55 0 -101 18 -146 49v-250
c0 -16 -11 -31 -32 -31s-33 15 -33 31z" />
    <glyph glyph-name="ydieresis" unicode="&#xff;" horiz-adv-x="412" 
d="M399 469l-126 -409c-46 -146 -92 -262 -215 -262c-20 0 -34 13 -34 31c0 15 11 30 30 31c71 3 100 37 133 135l-164 476c-3 3 -3 8 -3 11c0 18 15 30 33 30c12 0 24 -9 29 -21l136 -415c36 127 84 287 120 415c6 11 18 21 30 21c16 0 32 -13 32 -33c0 -5 -1 -8 -1 -10z
M334 646c0 -24 -18 -42 -40 -42s-42 19 -42 42c0 21 20 41 42 41s40 -19 40 -41zM161 646c0 -24 -18 -42 -41 -42c-22 0 -40 19 -40 42c0 21 18 41 40 41c23 0 41 -19 41 -41z" />
    <glyph glyph-name="Amacron" unicode="&#x100;" horiz-adv-x="549" 
d="M142 163l-45 -148c-6 -12 -21 -24 -32 -24c-19 0 -35 13 -35 33c0 3 1 10 2 13l199 630c8 28 20 49 46 49c25 0 38 -22 47 -49l199 -630c0 -2 1 -9 1 -13c0 -20 -15 -33 -35 -33c-12 0 -28 10 -32 24l-46 148h-269zM277 607l-116 -379h231zM432 844
c0 -17 -12 -29 -28 -29h-255c-17 0 -30 12 -30 29c0 16 13 30 30 30h255c16 0 28 -14 28 -30z" />
    <glyph glyph-name="amacron" unicode="&#x101;" horiz-adv-x="482" 
d="M335 272v69c0 81 -38 119 -117 119c-37 0 -58 -8 -81 -22c-6 -4 -14 -8 -24 -8c-15 0 -21 14 -22 26c-4 42 70 59 137 59c123 0 172 -70 172 -201v-226c0 -26 9 -39 27 -39c4 0 6 1 8 1c15 0 22 -14 22 -27c0 -20 -20 -27 -38 -27c-31 0 -58 22 -76 57
c-42 -40 -89 -60 -143 -60c-101 0 -150 60 -150 147v4c0 96 57 146 174 146c34 0 72 -7 111 -18zM223 237c-92 0 -109 -43 -109 -94v-4c0 -52 23 -90 99 -90c46 0 83 16 122 49v120c-40 13 -82 19 -112 19zM376 644c0 -17 -12 -29 -28 -29h-255c-17 0 -30 12 -30 29
c0 16 13 30 30 30h255c16 0 28 -14 28 -30z" />
    <glyph glyph-name="Abreve" unicode="&#x102;" horiz-adv-x="549" 
d="M142 163l-45 -148c-6 -12 -21 -24 -32 -24c-19 0 -35 13 -35 33c0 3 1 10 2 13l199 630c8 28 20 49 46 49c25 0 38 -22 47 -49l199 -630c0 -2 1 -9 1 -13c0 -20 -15 -33 -35 -33c-12 0 -28 10 -32 24l-46 148h-269zM277 607l-116 -379h231zM276 832c24 0 49 13 72 45
c7 10 16 14 25 14c13 0 25 -8 19 -29c-14 -50 -72 -77 -116 -77c-43 0 -108 26 -118 77c-4 18 10 29 21 29c9 0 18 -4 24 -14c24 -32 46 -45 73 -45z" />
    <glyph glyph-name="abreve" unicode="&#x103;" horiz-adv-x="482" 
d="M335 272v69c0 81 -38 119 -117 119c-37 0 -58 -8 -81 -22c-6 -4 -14 -8 -24 -8c-15 0 -21 14 -22 26c-4 42 70 59 137 59c123 0 172 -70 172 -201v-226c0 -26 9 -39 27 -39c4 0 6 1 8 1c15 0 22 -14 22 -27c0 -20 -20 -27 -38 -27c-31 0 -58 22 -76 57
c-42 -40 -89 -60 -143 -60c-101 0 -150 60 -150 147v4c0 96 57 146 174 146c34 0 72 -7 111 -18zM223 237c-92 0 -109 -43 -109 -94v-4c0 -52 23 -90 99 -90c46 0 83 16 122 49v120c-40 13 -82 19 -112 19zM243 632c24 0 49 13 72 45c7 10 16 14 25 14c13 0 25 -8 19 -29
c-14 -50 -72 -77 -116 -77c-43 0 -108 26 -118 77c-4 18 10 29 21 29c9 0 18 -4 24 -14c24 -32 46 -45 73 -45z" />
    <glyph glyph-name="Aogonek" unicode="&#x104;" horiz-adv-x="549" 
d="M593 -167c0 -27 -42 -31 -70 -31c-59 0 -98 26 -98 84c0 34 19 77 45 112c-9 6 -13 12 -14 17l-46 148h-268l-45 -148c-6 -12 -22 -24 -32 -24c-19 0 -36 13 -36 33c0 3 1 10 2 13l200 630c8 28 20 49 46 49c25 0 37 -22 47 -49l199 -630c0 -2 1 -9 1 -13
c0 -12 -7 -20 -13 -27c-22 -25 -33 -64 -33 -95c0 -30 17 -53 53 -53c16 0 23 2 31 3c5 1 9 2 12 2c11 0 19 -10 19 -21zM277 607l-116 -379h231z" />
    <glyph glyph-name="aogonek" unicode="&#x105;" horiz-adv-x="482" 
d="M521 -168c0 -28 -42 -32 -71 -32c-60 0 -99 27 -99 85c0 33 19 74 48 112c-24 10 -43 29 -56 56c-42 -40 -90 -60 -143 -60c-101 0 -151 60 -151 147v4c0 96 58 146 174 146c34 0 73 -7 112 -18v69c0 81 -38 119 -118 119c-37 0 -58 -9 -80 -22c-2 0 -3 -1 -5 -3
c-4 -2 -14 -5 -20 -5c-14 0 -21 14 -22 26c-4 42 71 59 138 59c122 0 172 -70 172 -201v-226c0 -26 9 -39 26 -39c5 0 7 1 9 1c14 0 21 -14 21 -27c0 -12 -6 -17 -12 -22l-4 -3c-24 -24 -35 -67 -35 -97s17 -54 53 -54c17 0 24 3 31 4c5 1 10 2 13 2c11 0 19 -11 19 -21z
M222 237c-91 0 -109 -43 -109 -94v-4c0 -52 24 -90 99 -90c46 0 84 16 123 49v120c-41 13 -83 19 -113 19z" />
    <glyph glyph-name="Cacute" unicode="&#x106;" horiz-adv-x="482" 
d="M50 244v219c0 153 71 253 223 253c89 0 173 -37 173 -80c0 -16 -12 -28 -29 -28c-9 0 -14 4 -22 9c-2 2 -7 4 -10 6c-33 22 -67 34 -107 34c-121 0 -161 -75 -161 -194v-219c0 -118 40 -193 161 -193c40 0 74 10 105 32l11 7c10 7 16 10 23 10c17 0 29 -13 29 -28
c0 -44 -84 -80 -173 -80c-152 0 -223 100 -223 252zM244 825l87 91c6 6 13 14 23 14c14 0 25 -14 25 -27c0 -4 -1 -9 -3 -12l-82 -87c-10 -10 -16 -17 -27 -17c-15 0 -27 13 -27 28c0 4 1 6 4 10z" />
    <glyph glyph-name="cacute" unicode="&#x107;" horiz-adv-x="393" 
d="M50 174v156c0 102 54 182 178 182c45 0 135 -12 135 -55c0 -15 -12 -27 -27 -27c-6 0 -10 1 -15 2h1c-25 13 -49 25 -86 25c-87 0 -121 -47 -121 -127v-156c0 -79 34 -126 121 -126c39 0 62 12 86 24h-1c7 2 11 3 15 3c15 0 27 -13 27 -28c0 -42 -90 -54 -135 -54
c-124 0 -178 79 -178 181zM182 625l87 91c6 6 13 14 23 14c14 0 25 -14 25 -27c0 -4 -1 -9 -3 -12l-82 -87c-10 -10 -16 -17 -27 -17c-15 0 -27 13 -27 28c0 4 1 6 4 10z" />
    <glyph glyph-name="Ccircumflex" unicode="&#x108;" horiz-adv-x="482" 
d="M50 244v219c0 153 71 253 223 253c89 0 173 -37 173 -80c0 -16 -12 -28 -29 -28c-9 0 -14 4 -22 9c-2 2 -7 4 -10 6c-33 22 -67 34 -107 34c-121 0 -161 -75 -161 -194v-219c0 -118 40 -193 161 -193c40 0 74 10 105 32l11 7c10 7 16 10 23 10c17 0 29 -13 29 -28
c0 -44 -84 -80 -173 -80c-152 0 -223 100 -223 252zM269 853l-83 -68c-1 -2 -9 -3 -13 -3c-9 0 -18 10 -18 19c0 7 9 17 16 24l81 69h-1c5 3 11 7 18 7c6 0 12 -4 18 -7h-1l81 -69c6 -7 16 -17 16 -24c0 -9 -9 -19 -19 -19c-4 0 -11 1 -12 3z" />
    <glyph glyph-name="ccircumflex" unicode="&#x109;" horiz-adv-x="393" 
d="M50 174v156c0 102 54 182 178 182c45 0 135 -12 135 -55c0 -15 -12 -27 -27 -27c-6 0 -10 1 -15 2h1c-25 13 -49 25 -86 25c-87 0 -121 -47 -121 -127v-156c0 -79 34 -126 121 -126c39 0 62 12 86 24h-1c7 2 11 3 15 3c15 0 27 -13 27 -28c0 -42 -90 -54 -135 -54
c-124 0 -178 79 -178 181zM199 653l-83 -68c-1 -2 -9 -3 -13 -3c-9 0 -18 10 -18 19c0 7 9 17 16 24l81 69h-1c5 3 11 7 18 7c6 0 12 -4 18 -7h-1l81 -69c6 -7 16 -17 16 -24c0 -9 -9 -19 -19 -19c-4 0 -11 1 -12 3z" />
    <glyph glyph-name="Cdotaccent" unicode="&#x10a;" horiz-adv-x="482" 
d="M50 244v219c0 153 71 253 223 253c89 0 173 -37 173 -80c0 -16 -12 -28 -29 -28c-9 0 -14 4 -22 9c-2 2 -7 4 -10 6c-33 22 -67 34 -107 34c-121 0 -161 -75 -161 -194v-219c0 -118 40 -193 161 -193c40 0 74 10 105 32l11 7c10 7 16 10 23 10c17 0 29 -13 29 -28
c0 -44 -84 -80 -173 -80c-152 0 -223 100 -223 252zM282 846c0 -24 -18 -42 -41 -42c-22 0 -40 19 -40 42c0 21 18 41 40 41c23 0 41 -19 41 -41z" />
    <glyph glyph-name="cdotaccent" unicode="&#x10b;" horiz-adv-x="393" 
d="M50 174v156c0 102 54 182 178 182c45 0 135 -12 135 -55c0 -15 -12 -27 -27 -27c-6 0 -10 1 -15 2h1c-25 13 -49 25 -86 25c-87 0 -121 -47 -121 -127v-156c0 -79 34 -126 121 -126c39 0 62 12 86 24h-1c7 2 11 3 15 3c15 0 27 -13 27 -28c0 -42 -90 -54 -135 -54
c-124 0 -178 79 -178 181zM237 646c0 -24 -18 -42 -41 -42c-22 0 -40 19 -40 42c0 21 18 41 40 41c23 0 41 -19 41 -41z" />
    <glyph glyph-name="Ccaron" unicode="&#x10c;" horiz-adv-x="482" 
d="M50 244v219c0 153 71 253 223 253c89 0 173 -37 173 -80c0 -16 -12 -28 -29 -28c-9 0 -14 4 -22 9c-2 2 -7 4 -10 6c-33 22 -67 34 -107 34c-121 0 -161 -75 -161 -194v-219c0 -118 40 -193 161 -193c40 0 74 10 105 32l11 7c10 7 16 10 23 10c17 0 29 -13 29 -28
c0 -44 -84 -80 -173 -80c-152 0 -223 100 -223 252zM278 775c-8 0 -15 3 -19 7l-90 75c-10 9 -19 18 -19 29c0 13 14 22 24 22c6 0 10 -3 14 -6l90 -73l90 73c4 4 9 6 14 6c12 0 23 -9 23 -22c0 -12 -8 -20 -18 -29l-90 -75c-4 -4 -11 -7 -19 -7z" />
    <glyph glyph-name="ccaron" unicode="&#x10d;" horiz-adv-x="393" 
d="M50 174v156c0 102 54 182 178 182c45 0 135 -12 135 -55c0 -15 -12 -27 -27 -27c-6 0 -10 1 -15 2h1c-25 13 -49 25 -86 25c-87 0 -121 -47 -121 -127v-156c0 -79 34 -126 121 -126c39 0 62 12 86 24h-1c7 2 11 3 15 3c15 0 27 -13 27 -28c0 -42 -90 -54 -135 -54
c-124 0 -178 79 -178 181zM225 575c-8 0 -15 3 -19 7l-90 75c-10 9 -19 18 -19 29c0 13 14 22 24 22c6 0 10 -3 14 -6l90 -73l90 73c4 4 9 6 14 6c12 0 23 -9 23 -22c0 -12 -8 -20 -18 -29l-90 -75c-4 -4 -11 -7 -19 -7z" />
    <glyph glyph-name="Dcaron" unicode="&#x10e;" horiz-adv-x="554" 
d="M508 263c0 -136 -69 -262 -272 -262h-116c-22 0 -41 18 -41 41v623c0 23 19 42 41 42h116c202 0 272 -121 272 -253v-191zM441 263v191c0 105 -50 189 -188 189h-108v-578h108c140 0 188 88 188 198zM279 775c-8 0 -15 3 -19 7l-90 75c-10 9 -19 18 -19 29
c0 13 14 22 24 22c6 0 10 -3 14 -6l90 -73l90 73c4 4 9 6 14 6c12 0 23 -9 23 -22c0 -12 -8 -20 -18 -29l-90 -75c-4 -4 -11 -7 -19 -7z" />
    <glyph glyph-name="dcaron" unicode="&#x10f;" horiz-adv-x="605" 
d="M215 511c33 0 78 -8 121 -22v212c0 17 12 32 33 32s32 -15 32 -32v-591c0 -31 6 -50 30 -68c2 -4 4 -8 4 -14c0 -17 -14 -28 -28 -28c-21 0 -39 14 -52 35c-47 -24 -99 -42 -148 -42c-104 0 -157 76 -157 186v131c0 119 39 201 165 201zM336 110v322
c-39 16 -86 25 -111 25c-81 0 -110 -45 -110 -147v-131c0 -85 35 -130 108 -130c36 0 79 13 117 32c-4 17 -4 23 -4 29zM575 679c0 -65 -45 -159 -69 -159c-6 0 -13 2 -13 9c0 15 9 28 18 44c7 12 13 21 22 56c-29 3 -52 24 -52 50s22 47 48 47s46 -21 46 -47z" />
    <glyph glyph-name="Dcroat" unicode="&#x110;" horiz-adv-x="574" 
d="M528 263c0 -136 -68 -262 -271 -262h-116c-22 0 -42 18 -42 41v283h-47c-17 0 -30 12 -30 29c0 16 13 30 30 30h47v281c0 23 20 42 42 42h116c202 0 271 -121 271 -253v-191zM335 354c0 -17 -12 -29 -28 -29h-141v-260h108c140 0 188 88 188 198v191
c0 105 -50 189 -188 189h-108v-259h141c16 0 28 -14 28 -30z" />
    <glyph glyph-name="dcroat" unicode="&#x111;" horiz-adv-x="488" 
d="M486 617c0 -16 -12 -29 -28 -29h-57v-478c0 -31 6 -50 30 -68c2 -4 4 -8 4 -14c0 -17 -15 -28 -28 -28c-22 0 -39 14 -52 35c-48 -24 -99 -42 -149 -42c-103 0 -157 76 -157 186v131c0 119 40 201 165 201c33 0 79 -8 122 -22v99h-135c-18 0 -31 13 -31 29
c0 17 13 31 31 31h135v53c0 17 11 32 33 32c21 0 32 -15 32 -32v-53h57c16 0 28 -14 28 -31zM336 110v322c-39 16 -87 25 -111 25c-82 0 -111 -45 -111 -147v-131c0 -85 35 -130 109 -130c36 0 79 13 117 32c-4 17 -4 23 -4 29z" />
    <glyph glyph-name="Emacron" unicode="&#x112;" horiz-adv-x="474" 
d="M440 35c0 -20 -15 -34 -33 -34h-271c-30 0 -57 9 -57 40v624c0 21 17 41 41 41h277c18 0 32 -15 32 -34c0 -17 -14 -30 -32 -30h-252v-255h232c17 0 32 -14 32 -32s-14 -32 -32 -32h-232v-258h262c17 0 33 -14 33 -30zM395 844c0 -17 -12 -29 -28 -29h-255
c-17 0 -30 12 -30 29c0 16 13 30 30 30h255c16 0 28 -14 28 -30z" />
    <glyph glyph-name="emacron" unicode="&#x113;" horiz-adv-x="435" 
d="M236 48c46 0 74 13 110 29c2 1 7 3 11 3c16 0 28 -14 28 -28c0 -45 -106 -59 -159 -59c-112 0 -176 71 -176 163v192c0 95 64 167 182 167c109 0 162 -63 162 -160c0 -90 -49 -145 -166 -145c-33 0 -74 3 -113 11v-71c0 -61 41 -102 121 -102zM330 355
c0 73 -37 103 -101 103c-72 0 -114 -40 -114 -102v-85c43 -6 96 -8 117 -8c84 0 98 45 98 92zM375 644c0 -17 -12 -29 -28 -29h-255c-17 0 -30 12 -30 29c0 16 13 30 30 30h255c16 0 28 -14 28 -30z" />
    <glyph glyph-name="Ebreve" unicode="&#x114;" horiz-adv-x="474" 
d="M440 35c0 -20 -15 -34 -33 -34h-271c-30 0 -57 9 -57 40v624c0 21 17 41 41 41h277c18 0 32 -15 32 -34c0 -17 -14 -30 -32 -30h-252v-255h232c17 0 32 -14 32 -32s-14 -32 -32 -32h-232v-258h262c17 0 33 -14 33 -30zM239 832c24 0 49 13 72 45c7 10 16 14 25 14
c13 0 25 -8 19 -29c-14 -50 -72 -77 -116 -77c-43 0 -108 26 -118 77c-4 18 10 29 21 29c9 0 18 -4 24 -14c24 -32 46 -45 73 -45z" />
    <glyph glyph-name="ebreve" unicode="&#x115;" horiz-adv-x="435" 
d="M236 48c46 0 74 13 110 29c2 1 7 3 11 3c16 0 28 -14 28 -28c0 -45 -106 -59 -159 -59c-112 0 -176 71 -176 163v192c0 95 64 167 182 167c109 0 162 -63 162 -160c0 -90 -49 -145 -166 -145c-33 0 -74 3 -113 11v-71c0 -61 41 -102 121 -102zM330 355
c0 73 -37 103 -101 103c-72 0 -114 -40 -114 -102v-85c43 -6 96 -8 117 -8c84 0 98 45 98 92zM219 632c24 0 49 13 72 45c7 10 16 14 25 14c13 0 25 -8 19 -29c-14 -50 -72 -77 -116 -77c-43 0 -108 26 -118 77c-4 18 10 29 21 29c9 0 18 -4 24 -14c24 -32 46 -45 73 -45z
" />
    <glyph glyph-name="Edotaccent" unicode="&#x116;" horiz-adv-x="474" 
d="M440 35c0 -20 -15 -34 -33 -34h-271c-30 0 -57 9 -57 40v624c0 21 17 41 41 41h277c18 0 32 -15 32 -34c0 -17 -14 -30 -32 -30h-252v-255h232c17 0 32 -14 32 -32s-14 -32 -32 -32h-232v-258h262c17 0 33 -14 33 -30zM278 846c0 -24 -18 -42 -41 -42
c-22 0 -40 19 -40 42c0 21 18 41 40 41c23 0 41 -19 41 -41z" />
    <glyph glyph-name="edotaccent" unicode="&#x117;" horiz-adv-x="435" 
d="M236 48c46 0 74 13 110 29c2 1 7 3 11 3c16 0 28 -14 28 -28c0 -45 -106 -59 -159 -59c-112 0 -176 71 -176 163v192c0 95 64 167 182 167c109 0 162 -63 162 -160c0 -90 -49 -145 -166 -145c-33 0 -74 3 -113 11v-71c0 -61 41 -102 121 -102zM330 355
c0 73 -37 103 -101 103c-72 0 -114 -40 -114 -102v-85c43 -6 96 -8 117 -8c84 0 98 45 98 92zM258 646c0 -24 -18 -42 -41 -42c-22 0 -40 19 -40 42c0 21 18 41 40 41c23 0 41 -19 41 -41z" />
    <glyph glyph-name="Eogonek" unicode="&#x118;" horiz-adv-x="474" 
d="M482 -167c0 -27 -42 -31 -70 -31c-60 0 -98 26 -98 84c0 33 18 75 47 115h-225c-30 0 -57 9 -57 40v624c0 21 17 41 41 41h276c19 0 33 -15 33 -34c0 -17 -14 -30 -33 -30h-251v-255h232c16 0 32 -14 32 -32s-15 -32 -32 -32h-232v-258h262c17 0 32 -14 32 -30
c0 -20 -17 -34 -37 -34l-7 -13c-12 -28 -28 -60 -28 -86c0 -30 17 -53 53 -53c16 0 23 2 31 3c5 1 9 2 12 2c11 0 19 -10 19 -21z" />
    <glyph glyph-name="eogonek" unicode="&#x119;" horiz-adv-x="435" 
d="M394 -168c0 -28 -42 -32 -71 -32c-60 0 -99 27 -99 85c0 33 15 72 42 109c-6 0 -25 -1 -29 -1h-11c-112 0 -176 71 -176 163v192c0 95 64 167 182 167c109 0 162 -63 162 -160c0 -90 -49 -145 -166 -145c-33 0 -74 3 -113 11v-71c0 -61 41 -102 121 -102
c46 0 74 13 110 29c2 1 7 3 11 3c16 0 28 -14 28 -28c0 -15 -17 -24 -38 -34l-26 -15c-34 -23 -43 -71 -43 -102c0 -30 17 -54 54 -54c16 0 23 3 30 4c6 1 10 2 13 2c11 0 19 -11 19 -21zM330 355c0 73 -37 103 -101 103c-72 0 -114 -40 -114 -102v-85c43 -6 96 -8 117 -8
c84 0 98 45 98 92z" />
    <glyph glyph-name="Ecaron" unicode="&#x11a;" horiz-adv-x="474" 
d="M440 35c0 -20 -15 -34 -33 -34h-271c-30 0 -57 9 -57 40v624c0 21 17 41 41 41h277c18 0 32 -15 32 -34c0 -17 -14 -30 -32 -30h-252v-255h232c17 0 32 -14 32 -32s-14 -32 -32 -32h-232v-258h262c17 0 33 -14 33 -30zM269 775c-8 0 -15 3 -19 7l-90 75
c-10 9 -19 18 -19 29c0 13 14 22 24 22c6 0 10 -3 14 -6l90 -73l90 73c4 4 9 6 14 6c12 0 23 -9 23 -22c0 -12 -8 -20 -18 -29l-90 -75c-4 -4 -11 -7 -19 -7z" />
    <glyph glyph-name="ecaron" unicode="&#x11b;" horiz-adv-x="435" 
d="M236 48c46 0 74 13 110 29c2 1 7 3 11 3c16 0 28 -14 28 -28c0 -45 -106 -59 -159 -59c-112 0 -176 71 -176 163v192c0 95 64 167 182 167c109 0 162 -63 162 -160c0 -90 -49 -145 -166 -145c-33 0 -74 3 -113 11v-71c0 -61 41 -102 121 -102zM330 355
c0 73 -37 103 -101 103c-72 0 -114 -40 -114 -102v-85c43 -6 96 -8 117 -8c84 0 98 45 98 92zM219 575c-8 0 -15 3 -19 7l-90 75c-10 9 -19 18 -19 29c0 13 14 22 24 22c6 0 10 -3 14 -6l90 -73l90 73c4 4 9 6 14 6c12 0 23 -9 23 -22c0 -12 -8 -20 -18 -29l-90 -75
c-4 -4 -11 -7 -19 -7z" />
    <glyph glyph-name="Gcircumflex" unicode="&#x11c;" horiz-adv-x="520" 
d="M117 463v-219c0 -118 40 -193 161 -193c51 0 90 15 123 41v232h-107c-16 0 -31 13 -31 31c0 17 15 31 31 31h122c29 0 50 -12 50 -40v-244c0 -76 -106 -110 -193 -110c-152 0 -223 100 -223 252v219c0 153 71 253 223 253c89 0 173 -37 173 -80c0 -16 -13 -28 -29 -28
c-9 0 -14 4 -22 9c-2 2 -8 4 -11 6c-32 22 -66 34 -106 34c-121 0 -161 -75 -161 -194zM262 853l-83 -68c-1 -2 -9 -3 -13 -3c-9 0 -18 10 -18 19c0 7 9 17 16 24l81 69h-1c5 3 11 7 18 7c6 0 12 -4 18 -7h-1l81 -69c6 -7 16 -17 16 -24c0 -9 -9 -19 -19 -19
c-4 0 -11 1 -12 3z" />
    <glyph glyph-name="gcircumflex" unicode="&#x11d;" horiz-adv-x="493" 
d="M234 515c46 0 97 -13 139 -38c24 44 59 63 78 63c17 0 30 -12 30 -29c0 -8 -2 -13 -4 -15l-9 -10c-34 -32 -50 -48 -50 -95v-64c0 -100 -59 -178 -178 -178c-30 0 -59 6 -85 16c-13 -23 -17 -43 -17 -58c0 -42 38 -52 64 -52h43c113 0 198 -44 198 -139
c0 -99 -86 -159 -203 -159c-112 0 -190 55 -190 150c0 46 20 85 57 118c-26 25 -34 56 -34 79c0 22 9 53 44 84c-40 37 -60 87 -60 146c0 103 58 181 177 181zM354 390c0 5 1 19 3 34c-36 22 -74 35 -113 35c-81 0 -122 -46 -122 -127c0 -74 35 -124 118 -124
c79 0 114 44 114 117v65zM204 -4c-19 0 -36 2 -49 5c-28 -22 -41 -50 -41 -83c0 -67 44 -103 128 -103c79 0 136 32 136 99c0 58 -43 82 -131 82h-43zM248 653l-83 -68c-1 -2 -9 -3 -13 -3c-9 0 -18 10 -18 19c0 7 9 17 16 24l81 69h-1c5 3 11 7 18 7c6 0 12 -4 18 -7h-1
l81 -69c6 -7 16 -17 16 -24c0 -9 -9 -19 -19 -19c-4 0 -11 1 -12 3z" />
    <glyph glyph-name="Gbreve" unicode="&#x11e;" horiz-adv-x="520" 
d="M117 463v-219c0 -118 40 -193 161 -193c51 0 90 15 123 41v232h-107c-16 0 -31 13 -31 31c0 17 15 31 31 31h122c29 0 50 -12 50 -40v-244c0 -76 -106 -110 -193 -110c-152 0 -223 100 -223 252v219c0 153 71 253 223 253c89 0 173 -37 173 -80c0 -16 -13 -28 -29 -28
c-9 0 -14 4 -22 9c-2 2 -8 4 -11 6c-32 22 -66 34 -106 34c-121 0 -161 -75 -161 -194zM262 832c24 0 49 13 72 45c7 10 16 14 25 14c13 0 25 -8 19 -29c-14 -50 -72 -77 -116 -77c-43 0 -108 26 -118 77c-4 18 10 29 21 29c9 0 18 -4 24 -14c24 -32 46 -45 73 -45z" />
    <glyph glyph-name="gbreve" unicode="&#x11f;" horiz-adv-x="493" 
d="M234 515c46 0 97 -13 139 -38c24 44 59 63 78 63c17 0 30 -12 30 -29c0 -8 -2 -13 -4 -15l-9 -10c-34 -32 -50 -48 -50 -95v-64c0 -100 -59 -178 -178 -178c-30 0 -59 6 -85 16c-13 -23 -17 -43 -17 -58c0 -42 38 -52 64 -52h43c113 0 198 -44 198 -139
c0 -99 -86 -159 -203 -159c-112 0 -190 55 -190 150c0 46 20 85 57 118c-26 25 -34 56 -34 79c0 22 9 53 44 84c-40 37 -60 87 -60 146c0 103 58 181 177 181zM354 390c0 5 1 19 3 34c-36 22 -74 35 -113 35c-81 0 -122 -46 -122 -127c0 -74 35 -124 118 -124
c79 0 114 44 114 117v65zM204 -4c-19 0 -36 2 -49 5c-28 -22 -41 -50 -41 -83c0 -67 44 -103 128 -103c79 0 136 32 136 99c0 58 -43 82 -131 82h-43zM248 632c24 0 49 13 72 45c7 10 16 14 25 14c13 0 25 -8 19 -29c-14 -50 -72 -77 -116 -77c-43 0 -108 26 -118 77
c-4 18 10 29 21 29c9 0 18 -4 24 -14c24 -32 46 -45 73 -45z" />
    <glyph glyph-name="Gdotaccent" unicode="&#x120;" horiz-adv-x="520" 
d="M117 463v-219c0 -118 40 -193 161 -193c51 0 90 15 123 41v232h-107c-16 0 -31 13 -31 31c0 17 15 31 31 31h122c29 0 50 -12 50 -40v-244c0 -76 -106 -110 -193 -110c-152 0 -223 100 -223 252v219c0 153 71 253 223 253c89 0 173 -37 173 -80c0 -16 -13 -28 -29 -28
c-9 0 -14 4 -22 9c-2 2 -8 4 -11 6c-32 22 -66 34 -106 34c-121 0 -161 -75 -161 -194zM301 846c0 -24 -18 -42 -41 -42c-22 0 -40 19 -40 42c0 21 18 41 40 41c23 0 41 -19 41 -41z" />
    <glyph glyph-name="gdotaccent" unicode="&#x121;" horiz-adv-x="493" 
d="M234 515c46 0 97 -13 139 -38c24 44 59 63 78 63c17 0 30 -12 30 -29c0 -8 -2 -13 -4 -15l-9 -10c-34 -32 -50 -48 -50 -95v-64c0 -100 -59 -178 -178 -178c-30 0 -59 6 -85 16c-13 -23 -17 -43 -17 -58c0 -42 38 -52 64 -52h43c113 0 198 -44 198 -139
c0 -99 -86 -159 -203 -159c-112 0 -190 55 -190 150c0 46 20 85 57 118c-26 25 -34 56 -34 79c0 22 9 53 44 84c-40 37 -60 87 -60 146c0 103 58 181 177 181zM354 390c0 5 1 19 3 34c-36 22 -74 35 -113 35c-81 0 -122 -46 -122 -127c0 -74 35 -124 118 -124
c79 0 114 44 114 117v65zM204 -4c-19 0 -36 2 -49 5c-28 -22 -41 -50 -41 -83c0 -67 44 -103 128 -103c79 0 136 32 136 99c0 58 -43 82 -131 82h-43zM287 646c0 -24 -18 -42 -41 -42c-22 0 -40 19 -40 42c0 21 18 41 40 41c23 0 41 -19 41 -41z" />
    <glyph glyph-name="uni0122" unicode="&#x122;" horiz-adv-x="520" 
d="M117 463v-219c0 -118 40 -193 161 -193c51 0 90 15 123 41v232h-107c-16 0 -31 13 -31 31c0 17 15 31 31 31h122c29 0 50 -12 50 -40v-244c0 -76 -106 -110 -193 -110c-152 0 -223 100 -223 252v219c0 153 71 253 223 253c89 0 173 -37 173 -80c0 -16 -13 -28 -29 -28
c-9 0 -14 4 -22 9c-2 2 -8 4 -11 6c-32 22 -66 34 -106 34c-121 0 -161 -75 -161 -194zM329 -113c0 -54 -45 -129 -70 -129c-6 0 -12 3 -12 9c0 7 9 17 16 28c7 8 18 22 26 42c-31 2 -54 24 -54 50s21 47 48 47c25 0 46 -22 46 -47z" />
    <glyph glyph-name="uni0123" unicode="&#x123;" horiz-adv-x="493" 
d="M234 515c46 0 97 -13 139 -38c24 44 59 63 78 63c17 0 30 -12 30 -29c0 -8 -2 -13 -4 -15l-9 -10c-34 -32 -50 -48 -50 -95v-64c0 -100 -59 -178 -178 -178c-30 0 -59 6 -85 16c-13 -23 -17 -43 -17 -58c0 -42 38 -52 64 -52h43c113 0 198 -47 198 -145
c0 -99 -86 -159 -203 -159c-112 0 -190 55 -190 150c0 49 20 88 57 124c-26 25 -34 56 -34 79c0 22 9 53 44 84c-40 37 -60 87 -60 146c0 103 58 181 177 181zM354 390c0 5 1 19 3 34c-36 22 -74 35 -113 35c-81 0 -122 -46 -122 -127c0 -74 35 -124 118 -124
c79 0 114 44 114 117v65zM204 -4c-19 0 -36 2 -49 5c-28 -25 -41 -53 -41 -89c0 -67 44 -103 128 -103c79 0 136 32 136 99c0 61 -43 88 -131 88h-43zM203 649c0 54 45 131 71 131c6 0 12 -3 12 -10c0 -10 -8 -19 -16 -28s-16 -22 -26 -42c31 -2 54 -25 54 -51
c0 -25 -21 -46 -48 -46c-25 0 -47 21 -47 46z" />
    <glyph glyph-name="Hcircumflex" unicode="&#x124;" horiz-adv-x="580" 
d="M506 25c0 -19 -15 -34 -33 -34c-17 0 -34 15 -34 34v297h-294v-297c0 -19 -14 -34 -33 -34c-18 0 -33 15 -33 34v658c0 17 15 33 33 33c19 0 33 -16 33 -33v-297h294v297c0 17 17 33 34 33s33 -16 33 -33v-658zM292 853l-83 -68c-1 -2 -9 -3 -13 -3c-9 0 -18 10 -18 19
c0 7 9 17 16 24l81 69h-1c5 3 11 7 18 7c6 0 12 -4 18 -7h-1l81 -69c6 -7 16 -17 16 -24c0 -9 -9 -19 -19 -19c-4 0 -11 1 -12 3z" />
    <glyph glyph-name="Itilde" unicode="&#x128;" horiz-adv-x="227" 
d="M80 24v659c0 17 16 33 34 33c19 0 33 -16 33 -33v-659c0 -18 -14 -33 -33 -33c-18 0 -34 15 -34 33zM249 856c0 -31 -43 -54 -77 -54c-22 0 -42 9 -59 18c-13 6 -22 15 -44 15c-12 0 -26 -3 -45 -18c-7 -6 -11 -9 -19 -9c-12 0 -23 7 -23 23c0 28 37 56 75 56
c20 0 38 -8 58 -19c17 -9 29 -13 45 -14c27 0 38 8 48 17c5 4 13 12 21 12s20 -10 20 -27z" />
    <glyph glyph-name="itilde" unicode="&#x129;" horiz-adv-x="245" 
d="M156 25c0 -18 -15 -32 -32 -32c-19 0 -33 14 -33 32v454c0 18 14 33 33 33c17 0 32 -15 32 -33v-454zM258 656c0 -31 -43 -54 -77 -54c-22 0 -42 9 -59 18c-13 6 -22 15 -44 15c-12 0 -26 -3 -45 -18c-7 -6 -11 -9 -19 -9c-12 0 -23 7 -23 23c0 28 37 56 75 56
c20 0 38 -8 58 -19c17 -9 29 -13 45 -14c27 0 38 8 48 17c5 4 13 12 21 12s20 -10 20 -27z" />
    <glyph glyph-name="Imacron" unicode="&#x12a;" horiz-adv-x="227" 
d="M80 24v659c0 17 16 33 34 33c19 0 33 -16 33 -33v-659c0 -18 -14 -33 -33 -33c-18 0 -34 15 -34 33zM272 844c0 -17 -12 -29 -28 -29h-255c-17 0 -30 12 -30 29c0 16 13 30 30 30h255c16 0 28 -14 28 -30z" />
    <glyph glyph-name="imacron" unicode="&#x12b;" horiz-adv-x="245" 
d="M156 25c0 -18 -15 -32 -32 -32c-19 0 -33 14 -33 32v454c0 18 14 33 33 33c17 0 32 -15 32 -33v-454zM281 644c0 -17 -12 -29 -28 -29h-255c-17 0 -30 12 -30 29c0 16 13 30 30 30h255c16 0 28 -14 28 -30z" />
    <glyph glyph-name="Ibreve" unicode="&#x12c;" horiz-adv-x="227" 
d="M80 24v659c0 17 16 33 34 33c19 0 33 -16 33 -33v-659c0 -18 -14 -33 -33 -33c-18 0 -34 15 -34 33zM116 832c24 0 49 13 72 45c7 10 16 14 25 14c13 0 25 -8 19 -29c-14 -50 -72 -77 -116 -77c-43 0 -108 26 -118 77c-4 18 10 29 21 29c9 0 18 -4 24 -14
c24 -32 46 -45 73 -45z" />
    <glyph glyph-name="ibreve" unicode="&#x12d;" horiz-adv-x="245" 
d="M156 25c0 -18 -15 -32 -32 -32c-19 0 -33 14 -33 32v454c0 18 14 33 33 33c17 0 32 -15 32 -33v-454zM125 632c24 0 49 13 72 45c7 10 16 14 25 14c13 0 25 -8 19 -29c-14 -50 -72 -77 -116 -77c-43 0 -108 26 -118 77c-4 18 10 29 21 29c9 0 18 -4 24 -14
c24 -32 46 -45 73 -45z" />
    <glyph glyph-name="Iogonek" unicode="&#x12e;" horiz-adv-x="227" 
d="M216 -167c0 -27 -42 -31 -70 -31c-60 0 -98 26 -98 84c0 33 17 74 46 110c-9 9 -14 19 -14 28v659c0 17 16 33 34 33s33 -16 33 -33v-659c0 -11 -7 -19 -13 -26c-19 -27 -33 -66 -33 -96s17 -53 53 -53c16 0 23 2 30 3c6 1 10 2 13 2c11 0 19 -10 19 -21z" />
    <glyph glyph-name="iogonek" unicode="&#x12f;" horiz-adv-x="245" 
d="M225 -168c0 -28 -43 -32 -72 -32c-59 0 -98 27 -98 85c0 36 18 77 48 113c-8 10 -12 18 -12 27v454c0 18 14 33 33 33c17 0 32 -15 32 -33v-454c0 -10 -6 -18 -12 -25c-23 -28 -36 -69 -36 -99s18 -54 54 -54c16 0 23 3 31 4c5 1 9 2 12 2c11 0 20 -11 20 -21zM165 681
c0 -22 -19 -41 -41 -41c-24 0 -43 19 -43 41c0 24 19 42 43 42c22 0 41 -18 41 -42z" />
    <glyph glyph-name="Idotaccent" unicode="&#x130;" horiz-adv-x="227" 
d="M80 24v659c0 17 16 33 34 33c19 0 33 -16 33 -33v-659c0 -18 -14 -33 -33 -33c-18 0 -34 15 -34 33zM155 846c0 -24 -18 -42 -41 -42c-22 0 -40 19 -40 42c0 21 18 41 40 41c23 0 41 -19 41 -41z" />
    <glyph glyph-name="dotlessi" unicode="&#x131;" horiz-adv-x="245" 
d="M156 25c0 -18 -15 -32 -32 -32c-19 0 -33 14 -33 32v454c0 18 14 33 33 33c17 0 32 -15 32 -33v-454z" />
    <glyph glyph-name="Jcircumflex" unicode="&#x134;" horiz-adv-x="385" 
d="M309 683v-460c0 -144 -46 -232 -198 -232c-27 0 -80 2 -80 38c0 21 16 32 28 32c2 0 9 -1 16 -2c11 -2 26 -5 47 -5c100 0 120 66 120 169v460c0 18 15 33 34 33c17 0 33 -16 33 -33zM272 853l-83 -68c-1 -2 -9 -3 -13 -3c-9 0 -18 10 -18 19c0 7 9 17 16 24l81 69h-1
c5 3 11 7 18 7c6 0 12 -4 18 -7h-1l81 -69c6 -7 16 -17 16 -24c0 -9 -9 -19 -19 -19c-4 0 -11 1 -12 3z" />
    <glyph glyph-name="jcircumflex" unicode="&#x135;" horiz-adv-x="245" 
d="M157 479v-502c0 -101 -54 -171 -138 -185c-9 -1 -13 0 -19 0c-12 0 -24 8 -27 20c-5 23 13 33 25 35c60 14 94 46 94 126v506c0 18 14 33 33 33c17 0 32 -15 32 -33zM125 653l-83 -68c-1 -2 -9 -3 -13 -3c-9 0 -18 10 -18 19c0 7 9 17 16 24l81 69h-1c5 3 11 7 18 7
c6 0 12 -4 18 -7h-1l81 -69c6 -7 16 -17 16 -24c0 -9 -9 -19 -19 -19c-4 0 -11 1 -12 3z" />
    <glyph glyph-name="uni0136" unicode="&#x136;" horiz-adv-x="498" 
d="M432 6l-228 331l-59 -73v-239c0 -19 -14 -34 -33 -34c-18 0 -33 15 -33 34v658c0 17 15 33 33 33c19 0 33 -16 33 -33v-320l273 336c6 9 19 17 31 17s29 -10 28 -32c-1 -10 -4 -17 -8 -23v1l-223 -274l241 -346h-1c3 -5 4 -9 4 -15c0 -16 -6 -36 -29 -36
c-14 0 -22 6 -29 15zM336 -113c0 -54 -45 -129 -70 -129c-6 0 -12 3 -12 9c0 7 9 17 16 28c7 8 18 22 26 42c-31 2 -54 24 -54 50s21 47 48 47c25 0 46 -22 46 -47z" />
    <glyph glyph-name="uni0137" unicode="&#x137;" horiz-adv-x="439" 
d="M145 700v-403l200 207c4 5 12 7 19 7c17 0 30 -13 30 -30c0 -9 -2 -16 -7 -21l-156 -159l177 -263c3 -4 6 -14 6 -19c1 -16 -14 -26 -31 -26c-12 0 -21 5 -27 15l-165 251l-46 -48v-186c0 -18 -15 -32 -32 -32c-19 0 -33 14 -33 32v675c0 18 14 33 33 33
c17 0 32 -15 32 -33zM295 -113c0 -54 -45 -129 -70 -129c-6 0 -12 3 -12 9c0 7 9 17 16 28c7 8 18 22 26 42c-31 2 -54 24 -54 50s21 47 48 47c25 0 46 -22 46 -47z" />
    <glyph glyph-name="Lacute" unicode="&#x139;" horiz-adv-x="448" 
d="M437 33c0 -18 -14 -32 -31 -32h-288c-21 0 -39 16 -39 38v644c0 17 15 33 34 33c18 0 32 -16 32 -33v-619h261c16 0 31 -14 31 -31zM100 825l87 91c6 6 13 14 23 14c14 0 25 -14 25 -27c0 -4 -1 -9 -3 -12l-82 -87c-10 -10 -16 -17 -27 -17c-15 0 -27 13 -27 28
c0 4 1 6 4 10z" />
    <glyph glyph-name="lacute" unicode="&#x13a;" horiz-adv-x="228" 
d="M82 90v610c0 17 14 33 32 33s32 -15 32 -33v-610c0 -23 5 -40 18 -54c2 -3 4 -10 4 -14c0 -17 -12 -29 -29 -29c-22 0 -57 11 -57 97zM92 811l87 91c6 6 13 14 23 14c14 0 25 -14 25 -27c0 -4 -1 -9 -3 -12l-82 -87c-10 -10 -16 -17 -27 -17c-15 0 -27 13 -27 28
c0 4 1 6 4 10z" />
    <glyph glyph-name="uni013B" unicode="&#x13b;" horiz-adv-x="448" 
d="M437 33c0 -18 -14 -32 -31 -32h-288c-21 0 -39 16 -39 38v644c0 17 15 33 34 33c18 0 32 -16 32 -33v-619h261c16 0 31 -14 31 -31zM318 -113c0 -54 -45 -129 -70 -129c-6 0 -12 3 -12 9c0 7 9 17 16 28c7 8 18 22 26 42c-31 2 -54 24 -54 50s21 47 48 47
c25 0 46 -22 46 -47z" />
    <glyph glyph-name="uni013C" unicode="&#x13c;" horiz-adv-x="228" 
d="M82 90v610c0 17 14 33 32 33s32 -15 32 -33v-610c0 -23 5 -40 18 -54c2 -3 4 -10 4 -14c0 -17 -12 -29 -29 -29c-22 0 -57 11 -57 97zM163 -113c0 -54 -45 -129 -70 -129c-6 0 -12 3 -12 9c0 7 9 17 16 28c7 8 18 22 26 42c-31 2 -54 24 -54 50s21 47 48 47
c25 0 46 -22 46 -47z" />
    <glyph glyph-name="Lcaron" unicode="&#x13d;" horiz-adv-x="448" 
d="M437 33c0 -18 -14 -32 -31 -32h-288c-21 0 -39 16 -39 38v644c0 17 15 33 34 33c18 0 32 -16 32 -33v-619h261c16 0 31 -14 31 -31zM391 679c0 -65 -45 -159 -69 -159c-6 0 -13 2 -13 9c0 15 9 28 18 44c7 12 13 21 22 56c-29 3 -52 24 -52 50s22 47 48 47s46 -21 46 -47
z" />
    <glyph glyph-name="lcaron" unicode="&#x13e;" horiz-adv-x="359" 
d="M82 90v610c0 17 14 33 32 33s32 -15 32 -33v-610c0 -23 5 -40 18 -54c2 -3 4 -10 4 -14c0 -17 -12 -29 -29 -29c-22 0 -57 11 -57 97zM328 679c0 -65 -45 -159 -69 -159c-6 0 -13 2 -13 9c0 15 9 28 18 44c7 12 13 21 22 56c-29 3 -52 24 -52 50s22 47 48 47
s46 -21 46 -47z" />
    <glyph glyph-name="Lslash" unicode="&#x141;" horiz-adv-x="494" 
d="M484 33c0 -18 -14 -32 -31 -32h-288c-21 0 -39 16 -39 38v265l-52 -33c-6 -4 -13 -9 -20 -9c-17 0 -34 9 -34 30c0 9 5 19 14 25l92 60v306c0 17 15 33 34 33c18 0 32 -16 32 -33v-263l68 45c8 5 14 9 25 9s22 -10 27 -20c1 -4 1 -6 1 -11c0 -9 -5 -18 -12 -23l-109 -72
v-284h261c16 0 31 -14 31 -31z" />
    <glyph glyph-name="lslash" unicode="&#x142;" horiz-adv-x="337" 
d="M128 90v219l-53 -36c-6 -4 -14 -9 -20 -9c-17 0 -35 9 -35 31c0 9 5 18 15 24l93 61v320c0 17 15 33 33 33s32 -15 32 -33v-276l69 45c9 5 15 9 26 9c10 0 22 -10 27 -20c1 -5 1 -7 1 -11c0 -9 -5 -18 -13 -23l-110 -74v-260c0 -23 4 -40 18 -54c2 -3 4 -10 4 -14
c0 -17 -13 -29 -29 -29c-23 0 -58 11 -58 97z" />
    <glyph glyph-name="Nacute" unicode="&#x143;" horiz-adv-x="600" 
d="M489 -9c-13 0 -29 7 -35 19l-309 571v-556c0 -19 -15 -34 -34 -34c-18 0 -33 15 -33 34v653c0 22 16 38 37 38c15 0 29 -8 36 -21l309 -572v559c0 18 16 34 34 34s32 -16 32 -34v-654c0 -21 -15 -37 -37 -37zM276 825l87 91c6 6 13 14 23 14c14 0 25 -14 25 -27
c0 -4 -1 -9 -3 -12l-82 -87c-10 -10 -16 -17 -27 -17c-15 0 -27 13 -27 28c0 4 1 6 4 10z" />
    <glyph glyph-name="nacute" unicode="&#x144;" horiz-adv-x="509" 
d="M129 464c49 34 101 49 150 49c104 0 155 -75 155 -187v-301c0 -18 -11 -31 -32 -31s-33 13 -33 31v301c0 83 -35 131 -102 131c-42 0 -84 -19 -122 -48c2 -11 3 -23 3 -34v-350c0 -18 -11 -31 -32 -31c-22 0 -33 13 -33 31v350c0 35 -4 56 -18 76c-4 5 -6 11 -6 17
c0 17 14 29 29 29c13 0 30 -11 41 -33zM190 625l87 91c6 6 13 14 23 14c14 0 25 -14 25 -27c0 -4 -1 -9 -3 -12l-82 -87c-10 -10 -16 -17 -27 -17c-15 0 -27 13 -27 28c0 4 1 6 4 10z" />
    <glyph glyph-name="uni0145" unicode="&#x145;" horiz-adv-x="600" 
d="M489 -9c-13 0 -29 7 -35 19l-309 571v-556c0 -19 -15 -34 -34 -34c-18 0 -33 15 -33 34v653c0 22 16 38 37 38c15 0 29 -8 36 -21l309 -572v559c0 18 16 34 34 34s32 -16 32 -34v-654c0 -21 -15 -37 -37 -37zM349 -113c0 -54 -45 -129 -70 -129c-6 0 -12 3 -12 9
c0 7 9 17 16 28c7 8 18 22 26 42c-31 2 -54 24 -54 50s21 47 48 47c25 0 46 -22 46 -47z" />
    <glyph glyph-name="uni0146" unicode="&#x146;" horiz-adv-x="509" 
d="M129 464c49 34 101 49 150 49c104 0 155 -75 155 -187v-301c0 -18 -11 -31 -32 -31s-33 13 -33 31v301c0 83 -35 131 -102 131c-42 0 -84 -19 -122 -48c2 -11 3 -23 3 -34v-350c0 -18 -11 -31 -32 -31c-22 0 -33 13 -33 31v350c0 35 -4 56 -18 76c-4 5 -6 11 -6 17
c0 17 14 29 29 29c13 0 30 -11 41 -33zM303 -113c0 -54 -45 -129 -70 -129c-6 0 -12 3 -12 9c0 7 9 17 16 28c7 8 18 22 26 42c-31 2 -54 24 -54 50s21 47 48 47c25 0 46 -22 46 -47z" />
    <glyph glyph-name="Ncaron" unicode="&#x147;" horiz-adv-x="600" 
d="M489 -9c-13 0 -29 7 -35 19l-309 571v-556c0 -19 -15 -34 -34 -34c-18 0 -33 15 -33 34v653c0 22 16 38 37 38c15 0 29 -8 36 -21l309 -572v559c0 18 16 34 34 34s32 -16 32 -34v-654c0 -21 -15 -37 -37 -37zM302 775c-8 0 -15 3 -19 7l-90 75c-10 9 -19 18 -19 29
c0 13 14 22 24 22c6 0 10 -3 14 -6l90 -73l90 73c4 4 9 6 14 6c12 0 23 -9 23 -22c0 -12 -8 -20 -18 -29l-90 -75c-4 -4 -11 -7 -19 -7z" />
    <glyph glyph-name="ncaron" unicode="&#x148;" horiz-adv-x="509" 
d="M129 464c49 34 101 49 150 49c104 0 155 -75 155 -187v-301c0 -18 -11 -31 -32 -31s-33 13 -33 31v301c0 83 -35 131 -102 131c-42 0 -84 -19 -122 -48c2 -11 3 -23 3 -34v-350c0 -18 -11 -31 -32 -31c-22 0 -33 13 -33 31v350c0 35 -4 56 -18 76c-4 5 -6 11 -6 17
c0 17 14 29 29 29c13 0 30 -11 41 -33zM256 575c-8 0 -15 3 -19 7l-90 75c-10 9 -19 18 -19 29c0 13 14 22 24 22c6 0 10 -3 14 -6l90 -73l90 73c4 4 9 6 14 6c12 0 23 -9 23 -22c0 -12 -8 -20 -18 -29l-90 -75c-4 -4 -11 -7 -19 -7z" />
    <glyph glyph-name="Omacron" unicode="&#x14c;" horiz-adv-x="551" 
d="M278 -9c-151 0 -228 112 -228 253v219c0 138 64 253 228 253c162 0 227 -115 227 -253v-219c0 -141 -76 -253 -227 -253zM278 652c-119 0 -161 -76 -161 -189v-219c0 -111 51 -189 161 -189s160 78 160 189v219c0 113 -43 189 -160 189zM433 844c0 -17 -12 -29 -28 -29
h-255c-17 0 -30 12 -30 29c0 16 13 30 30 30h255c16 0 28 -14 28 -30z" />
    <glyph glyph-name="omacron" unicode="&#x14d;" horiz-adv-x="464" 
d="M235 -7c-120 0 -185 76 -185 175v172c0 99 65 176 185 176c121 0 185 -77 185 -176v-172c0 -99 -64 -175 -185 -175zM235 52c80 0 120 44 120 116v173c0 72 -40 117 -120 117c-79 0 -120 -45 -120 -117v-173c0 -72 41 -116 120 -116zM390 644c0 -17 -12 -29 -28 -29h-255
c-17 0 -30 12 -30 29c0 16 13 30 30 30h255c16 0 28 -14 28 -30z" />
    <glyph glyph-name="Obreve" unicode="&#x14e;" horiz-adv-x="551" 
d="M278 -9c-151 0 -228 112 -228 253v219c0 138 64 253 228 253c162 0 227 -115 227 -253v-219c0 -141 -76 -253 -227 -253zM278 652c-119 0 -161 -76 -161 -189v-219c0 -111 51 -189 161 -189s160 78 160 189v219c0 113 -43 189 -160 189zM277 832c24 0 49 13 72 45
c7 10 16 14 25 14c13 0 25 -8 19 -29c-14 -50 -72 -77 -116 -77c-43 0 -108 26 -118 77c-4 18 10 29 21 29c9 0 18 -4 24 -14c24 -32 46 -45 73 -45z" />
    <glyph glyph-name="obreve" unicode="&#x14f;" horiz-adv-x="464" 
d="M235 -7c-120 0 -185 76 -185 175v172c0 99 65 176 185 176c121 0 185 -77 185 -176v-172c0 -99 -64 -175 -185 -175zM235 52c80 0 120 44 120 116v173c0 72 -40 117 -120 117c-79 0 -120 -45 -120 -117v-173c0 -72 41 -116 120 -116zM234 632c24 0 49 13 72 45
c7 10 16 14 25 14c13 0 25 -8 19 -29c-14 -50 -72 -77 -116 -77c-43 0 -108 26 -118 77c-4 18 10 29 21 29c9 0 18 -4 24 -14c24 -32 46 -45 73 -45z" />
    <glyph glyph-name="Ohungarumlaut" unicode="&#x150;" horiz-adv-x="551" 
d="M278 -9c-151 0 -228 112 -228 253v219c0 138 64 253 228 253c162 0 227 -115 227 -253v-219c0 -141 -76 -253 -227 -253zM278 652c-119 0 -161 -76 -161 -189v-219c0 -111 51 -189 161 -189s160 78 160 189v219c0 113 -43 189 -160 189zM315 815l66 98c7 11 14 24 27 24
s28 -14 28 -27c0 -3 0 -6 -2 -9l-72 -107c-6 -9 -11 -14 -21 -14c-15 0 -28 12 -28 25c0 3 0 7 2 10zM177 815l70 104c6 10 12 18 23 18c17 0 27 -18 27 -29c0 0 0 -7 -1 -8c-12 -20 -41 -67 -65 -98c-11 -14 -18 -22 -29 -22c-14 0 -27 12 -27 27c0 4 1 6 2 8z" />
    <glyph glyph-name="ohungarumlaut" unicode="&#x151;" horiz-adv-x="464" 
d="M235 -7c-120 0 -185 76 -185 175v172c0 99 65 176 185 176c121 0 185 -77 185 -176v-172c0 -99 -64 -175 -185 -175zM235 52c80 0 120 44 120 116v173c0 72 -40 117 -120 117c-79 0 -120 -45 -120 -117v-173c0 -72 41 -116 120 -116zM279 615l66 98c7 11 14 24 27 24
s28 -14 28 -27c0 -3 0 -6 -2 -9l-72 -107c-6 -9 -11 -14 -21 -14c-15 0 -28 12 -28 25c0 3 0 7 2 10zM141 615l70 104c6 10 12 18 23 18c17 0 27 -18 27 -29c0 0 0 -7 -1 -8c-12 -20 -41 -67 -65 -98c-11 -14 -18 -22 -29 -22c-14 0 -27 12 -27 27c0 4 1 6 2 8z" />
    <glyph glyph-name="OE" unicode="&#x152;" horiz-adv-x="756" 
d="M726 35c0 -20 -14 -34 -32 -34h-240c-30 0 -56 12 -58 55c-38 -40 -85 -65 -140 -65c-137 0 -207 104 -207 233v259c0 128 58 233 207 233c55 0 101 -22 137 -59c5 25 23 49 44 49h246c19 0 33 -15 33 -34c0 -17 -14 -30 -33 -30h-220v-255h201c16 0 32 -14 32 -32
s-15 -32 -32 -32h-201v-258h231c17 0 32 -14 32 -30zM256 652c-104 0 -141 -68 -141 -169v-259c0 -99 45 -169 141 -169s140 70 140 169v259c0 101 -36 169 -140 169z" />
    <glyph glyph-name="oe" unicode="&#x153;" horiz-adv-x="731" 
d="M229 -7c-115 0 -181 77 -181 175v172c0 98 66 176 181 176c74 0 126 -38 156 -98c28 59 79 97 153 97c104 0 159 -63 159 -160c0 -90 -49 -145 -166 -145c-32 0 -74 3 -113 11v-71c0 -61 41 -102 120 -102c47 0 75 13 111 29c2 1 7 3 11 3c16 0 28 -14 28 -28
c0 -45 -107 -59 -156 -59c-71 0 -121 38 -148 95c-29 -58 -82 -95 -155 -95zM233 52c80 0 120 44 120 116v173c0 72 -40 117 -120 117c-79 0 -120 -45 -120 -117v-173c0 -72 41 -116 120 -116zM633 355c0 73 -37 103 -101 103c-72 0 -114 -40 -114 -102v-85
c43 -5 96 -8 116 -8c85 0 99 45 99 92z" />
    <glyph glyph-name="Racute" unicode="&#x154;" horiz-adv-x="575" 
d="M511 509c0 -104 -63 -169 -162 -189l169 -278l-1 1c2 -5 4 -13 4 -21c0 -17 -23 -30 -36 -30c-11 0 -21 6 -27 15l-183 311h-130v-292c0 -19 -15 -35 -34 -35c-17 0 -33 15 -33 35v638c0 23 19 42 40 42h178c163 0 215 -99 215 -197zM444 509c0 64 -27 133 -152 133h-147
v-261h153c95 0 146 44 146 128zM223 825l87 91c6 6 13 14 23 14c14 0 25 -14 25 -27c0 -4 -1 -9 -3 -12l-82 -87c-10 -10 -16 -17 -27 -17c-15 0 -27 13 -27 28c0 4 1 6 4 10z" />
    <glyph glyph-name="racute" unicode="&#x155;" horiz-adv-x="337" 
d="M149 373v-348c0 -18 -15 -32 -32 -32c-19 0 -33 14 -33 32v348c0 35 -4 56 -18 76c-4 5 -6 11 -6 17c0 17 14 29 30 29c13 0 28 -13 39 -31c47 30 106 47 143 47c35 0 46 -14 46 -32c0 -20 -15 -35 -32 -34c-45 1 -83 1 -138 -40v-1s1 -1 1 -31zM168 625l87 91
c6 6 13 14 23 14c14 0 25 -14 25 -27c0 -4 -1 -9 -3 -12l-82 -87c-10 -10 -16 -17 -27 -17c-15 0 -27 13 -27 28c0 4 1 6 4 10z" />
    <glyph glyph-name="uni0156" unicode="&#x156;" horiz-adv-x="575" 
d="M511 509c0 -104 -63 -169 -162 -189l169 -278l-1 1c2 -5 4 -13 4 -21c0 -17 -23 -30 -36 -30c-11 0 -21 6 -27 15l-183 311h-130v-292c0 -19 -15 -35 -34 -35c-17 0 -33 15 -33 35v638c0 23 19 42 40 42h178c163 0 215 -99 215 -197zM444 509c0 64 -27 133 -152 133h-147
v-261h153c95 0 146 44 146 128zM336 -113c0 -54 -45 -129 -70 -129c-6 0 -12 3 -12 9c0 7 9 17 16 28c7 8 18 22 26 42c-31 2 -54 24 -54 50s21 47 48 47c25 0 46 -22 46 -47z" />
    <glyph glyph-name="uni0157" unicode="&#x157;" horiz-adv-x="337" 
d="M149 373v-348c0 -18 -15 -32 -32 -32c-19 0 -33 14 -33 32v348c0 35 -4 56 -18 76c-4 5 -6 11 -6 17c0 17 14 29 30 29c13 0 28 -13 39 -31c47 30 106 47 143 47c35 0 46 -14 46 -32c0 -20 -15 -35 -32 -34c-45 1 -83 1 -138 -40v-1s1 -1 1 -31zM163 -113
c0 -54 -45 -129 -70 -129c-6 0 -12 3 -12 9c0 7 9 17 16 28c7 8 18 22 26 42c-31 2 -54 24 -54 50s21 47 48 47c25 0 46 -22 46 -47z" />
    <glyph glyph-name="Rcaron" unicode="&#x158;" horiz-adv-x="575" 
d="M511 509c0 -104 -63 -169 -162 -189l169 -278l-1 1c2 -5 4 -13 4 -21c0 -17 -23 -30 -36 -30c-11 0 -21 6 -27 15l-183 311h-130v-292c0 -19 -15 -35 -34 -35c-17 0 -33 15 -33 35v638c0 23 19 42 40 42h178c163 0 215 -99 215 -197zM444 509c0 64 -27 133 -152 133h-147
v-261h153c95 0 146 44 146 128zM289 775c-8 0 -15 3 -19 7l-90 75c-10 9 -19 18 -19 29c0 13 14 22 24 22c6 0 10 -3 14 -6l90 -73l90 73c4 4 9 6 14 6c12 0 23 -9 23 -22c0 -12 -8 -20 -18 -29l-90 -75c-4 -4 -11 -7 -19 -7z" />
    <glyph glyph-name="rcaron" unicode="&#x159;" horiz-adv-x="337" 
d="M149 373v-348c0 -18 -15 -32 -32 -32c-19 0 -33 14 -33 32v348c0 35 -4 56 -18 76c-4 5 -6 11 -6 17c0 17 14 29 30 29c13 0 28 -13 39 -31c47 30 106 47 143 47c35 0 46 -14 46 -32c0 -20 -15 -35 -32 -34c-45 1 -83 1 -138 -40v-1s1 -1 1 -31zM171 575
c-8 0 -15 3 -19 7l-90 75c-10 9 -19 18 -19 29c0 13 14 22 24 22c6 0 10 -3 14 -6l90 -73l90 73c4 4 9 6 14 6c12 0 23 -9 23 -22c0 -12 -8 -20 -18 -29l-90 -75c-4 -4 -11 -7 -19 -7z" />
    <glyph glyph-name="Sacute" unicode="&#x15a;" horiz-adv-x="486" 
d="M372 188c0 68 -35 96 -62 110c-21 11 -51 22 -80 32c-88 30 -183 61 -183 194c0 120 77 192 200 192c49 0 166 -11 166 -62c0 -16 -12 -31 -33 -31c-11 0 -24 4 -35 9c-23 9 -51 20 -92 20c-70 0 -136 -28 -136 -123c0 -71 39 -96 64 -109c22 -11 52 -23 80 -32
c85 -28 182 -65 182 -193c0 -130 -92 -204 -216 -204c-63 0 -181 18 -181 67c0 17 14 33 30 33c6 0 22 -6 37 -11c26 -11 63 -25 115 -25c96 0 144 49 144 133zM224 825l87 91c6 6 13 14 23 14c14 0 25 -14 25 -27c0 -4 -1 -9 -3 -12l-82 -87c-10 -10 -16 -17 -27 -17
c-15 0 -27 13 -27 28c0 4 1 6 4 10z" />
    <glyph glyph-name="sacute" unicode="&#x15b;" horiz-adv-x="406" 
d="M59 374c0 85 55 141 159 141c51 0 129 -12 129 -50c0 -16 -12 -29 -29 -29c-6 0 -10 2 -15 4c-23 11 -43 20 -82 20c-68 0 -99 -28 -99 -81c0 -36 14 -54 53 -75c79 -39 187 -49 187 -169c0 -88 -56 -142 -165 -142c-51 0 -145 10 -145 51c0 15 12 30 31 30c2 0 3 0 6 -1
c30 -12 63 -25 108 -25c61 0 102 25 102 84c0 42 -19 61 -41 73c-78 39 -199 49 -199 169zM182 625l87 91c6 6 13 14 23 14c14 0 25 -14 25 -27c0 -4 -1 -9 -3 -12l-82 -87c-10 -10 -16 -17 -27 -17c-15 0 -27 13 -27 28c0 4 1 6 4 10z" />
    <glyph glyph-name="Scircumflex" unicode="&#x15c;" horiz-adv-x="486" 
d="M372 188c0 68 -35 96 -62 110c-21 11 -51 22 -80 32c-88 30 -183 61 -183 194c0 120 77 192 200 192c49 0 166 -11 166 -62c0 -16 -12 -31 -33 -31c-11 0 -24 4 -35 9c-23 9 -51 20 -92 20c-70 0 -136 -28 -136 -123c0 -71 39 -96 64 -109c22 -11 52 -23 80 -32
c85 -28 182 -65 182 -193c0 -130 -92 -204 -216 -204c-63 0 -181 18 -181 67c0 17 14 33 30 33c6 0 22 -6 37 -11c26 -11 63 -25 115 -25c96 0 144 49 144 133zM245 853l-83 -68c-1 -2 -9 -3 -13 -3c-9 0 -18 10 -18 19c0 7 9 17 16 24l81 69h-1c5 3 11 7 18 7
c6 0 12 -4 18 -7h-1l81 -69c6 -7 16 -17 16 -24c0 -9 -9 -19 -19 -19c-4 0 -11 1 -12 3z" />
    <glyph glyph-name="scircumflex" unicode="&#x15d;" horiz-adv-x="406" 
d="M59 374c0 85 55 141 159 141c51 0 129 -12 129 -50c0 -16 -12 -29 -29 -29c-6 0 -10 2 -15 4c-23 11 -43 20 -82 20c-68 0 -99 -28 -99 -81c0 -36 14 -54 53 -75c79 -39 187 -49 187 -169c0 -88 -56 -142 -165 -142c-51 0 -145 10 -145 51c0 15 12 30 31 30c2 0 3 0 6 -1
c30 -12 63 -25 108 -25c61 0 102 25 102 84c0 42 -19 61 -41 73c-78 39 -199 49 -199 169zM205 653l-83 -68c-1 -2 -9 -3 -13 -3c-9 0 -18 10 -18 19c0 7 9 17 16 24l81 69h-1c5 3 11 7 18 7c6 0 12 -4 18 -7h-1l81 -69c6 -7 16 -17 16 -24c0 -9 -9 -19 -19 -19
c-4 0 -11 1 -12 3z" />
    <glyph glyph-name="Scedilla" unicode="&#x15e;" horiz-adv-x="486" 
d="M356 -138c0 -40 -34 -79 -103 -79c-19 0 -26 0 -30 1c-26 3 -52 20 -43 38v-1c5 8 13 7 28 3l18 -4c53 -10 79 23 79 49c0 30 -24 42 -69 44c-25 1 -33 6 -30 25l8 53c-68 3 -168 22 -168 67c0 17 14 33 30 33c6 0 22 -6 37 -11c26 -11 63 -25 115 -25
c96 0 144 49 144 133c0 68 -35 96 -62 110c-21 11 -51 22 -80 32c-88 30 -183 61 -183 194c0 120 77 192 200 192c49 0 166 -11 166 -62c0 -16 -12 -31 -33 -31c-11 0 -24 4 -35 9c-23 9 -51 20 -92 20c-70 0 -136 -28 -136 -123c0 -71 39 -96 64 -109c22 -11 52 -23 80 -32
c85 -28 182 -65 182 -193c0 -119 -80 -193 -192 -203l-7 -47c83 -1 112 -34 112 -83z" />
    <glyph glyph-name="scedilla" unicode="&#x15f;" horiz-adv-x="406" 
d="M318 -139c0 -40 -34 -79 -104 -79c-18 0 -26 0 -30 1c-26 3 -52 19 -43 38v-1c5 8 13 7 28 3l18 -4c54 -11 80 22 80 49c0 30 -24 42 -69 44c-26 1 -34 7 -31 25l9 55c-53 4 -124 17 -124 52c0 15 12 30 31 30c2 0 3 0 6 -1c30 -12 63 -25 108 -25c61 0 102 25 102 84
c0 41 -19 59 -41 71c-12 6 -32 13 -56 22h1c-65 23 -144 50 -144 149c0 85 55 141 159 141c51 0 129 -12 129 -50c0 -16 -12 -29 -29 -29c-6 0 -10 2 -15 4c-23 11 -43 20 -82 20c-68 0 -99 -28 -99 -81c0 -35 14 -53 53 -73c12 -6 30 -12 50 -19h-1
c64 -24 138 -51 138 -152c0 -82 -51 -135 -150 -142l-7 -49c84 -1 113 -34 113 -83z" />
    <glyph glyph-name="Scaron" unicode="&#x160;" horiz-adv-x="486" 
d="M372 188c0 68 -35 96 -62 110c-21 11 -51 22 -80 32c-88 30 -183 61 -183 194c0 120 77 192 200 192c49 0 166 -11 166 -62c0 -16 -12 -31 -33 -31c-11 0 -24 4 -35 9c-23 9 -51 20 -92 20c-70 0 -136 -28 -136 -123c0 -71 39 -96 64 -109c22 -11 52 -23 80 -32
c85 -28 182 -65 182 -193c0 -130 -92 -204 -216 -204c-63 0 -181 18 -181 67c0 17 14 33 30 33c6 0 22 -6 37 -11c26 -11 63 -25 115 -25c96 0 144 49 144 133zM245 775c-8 0 -15 3 -19 7l-90 75c-10 9 -19 18 -19 29c0 13 14 22 24 22c6 0 10 -3 14 -6l90 -73l90 73
c4 4 9 6 14 6c12 0 23 -9 23 -22c0 -12 -8 -20 -18 -29l-90 -75c-4 -4 -11 -7 -19 -7z" />
    <glyph glyph-name="scaron" unicode="&#x161;" horiz-adv-x="406" 
d="M59 374c0 85 55 141 159 141c51 0 129 -12 129 -50c0 -16 -12 -29 -29 -29c-6 0 -10 2 -15 4c-23 11 -43 20 -82 20c-68 0 -99 -28 -99 -81c0 -36 14 -54 53 -75c79 -39 187 -49 187 -169c0 -88 -56 -142 -165 -142c-51 0 -145 10 -145 51c0 15 12 30 31 30c2 0 3 0 6 -1
c30 -12 63 -25 108 -25c61 0 102 25 102 84c0 42 -19 61 -41 73c-78 39 -199 49 -199 169zM205 575c-8 0 -15 3 -19 7l-90 75c-10 9 -19 18 -19 29c0 13 14 22 24 22c6 0 10 -3 14 -6l90 -73l90 73c4 4 9 6 14 6c12 0 23 -9 23 -22c0 -12 -8 -20 -18 -29l-90 -75
c-4 -4 -11 -7 -19 -7z" />
    <glyph glyph-name="uni0162" unicode="&#x162;" horiz-adv-x="483" 
d="M375 -138c0 -40 -33 -79 -103 -79c-18 0 -25 0 -29 1c-27 3 -53 20 -43 38v-1c5 8 13 7 27 3l19 -4c53 -10 78 23 78 49c0 30 -23 42 -68 44c-26 1 -34 6 -31 25l9 54c-15 6 -24 18 -24 32v618h-146c-20 0 -34 14 -34 31c0 15 15 33 34 33h359c18 0 34 -14 34 -33
c0 -17 -15 -31 -34 -31h-147v-618c0 -7 -2 -12 -4 -16l-9 -63c84 -1 112 -34 112 -83z" />
    <glyph glyph-name="uni0163" unicode="&#x163;" horiz-adv-x="321" 
d="M300 -139c0 -40 -34 -79 -104 -79c-19 0 -26 0 -30 1c-27 3 -53 19 -43 38v-1c5 8 13 7 28 3l18 -4c54 -11 79 22 79 49c0 30 -23 42 -69 44c-25 2 -33 7 -30 25c2 21 5 44 13 73c-64 31 -81 94 -81 192v431c0 17 11 32 32 32s32 -15 32 -32v-150h116c16 0 29 -13 29 -31
c0 -16 -13 -29 -29 -29h-116v-214c0 -111 12 -152 93 -152h9c4 0 8 1 11 1c19 0 45 -3 45 -30c0 -28 -26 -31 -50 -31c-27 0 -45 2 -61 4c-5 -21 -6 -39 -3 -57c83 -1 111 -34 111 -83z" />
    <glyph glyph-name="Tcaron" unicode="&#x164;" horiz-adv-x="483" 
d="M210 24v618h-146c-20 0 -34 14 -34 31c0 15 15 33 34 33h359c18 0 34 -14 34 -33c0 -17 -15 -31 -34 -31h-147v-618c0 -18 -14 -33 -32 -33c-19 0 -34 15 -34 33zM243 775c-8 0 -15 3 -19 7l-90 75c-10 9 -19 18 -19 29c0 13 14 22 24 22c6 0 10 -3 14 -6l90 -73l90 73
c4 4 9 6 14 6c12 0 23 -9 23 -22c0 -12 -8 -20 -18 -29l-90 -75c-4 -4 -11 -7 -19 -7z" />
    <glyph glyph-name="tcaron" unicode="&#x165;" horiz-adv-x="431" 
d="M81 202v431c0 17 11 32 32 32s32 -15 32 -32v-150h116c16 0 29 -13 29 -31c0 -16 -13 -29 -29 -29h-116v-214c0 -111 12 -152 93 -152c7 0 13 1 20 1c19 0 45 -3 45 -30c0 -28 -26 -31 -50 -31c-138 0 -172 68 -172 205zM408 679c0 -65 -45 -159 -69 -159
c-6 0 -13 2 -13 9c0 15 9 28 18 44c7 12 13 21 22 56c-29 3 -52 24 -52 50s22 47 48 47s46 -21 46 -47z" />
    <glyph glyph-name="Utilde" unicode="&#x168;" horiz-adv-x="572" 
d="M507 228c0 -137 -81 -237 -218 -237c-141 0 -219 101 -219 237v452c0 21 16 36 35 36c18 0 32 -16 32 -36v-452c0 -102 49 -173 152 -173s150 73 150 173v452c0 19 15 36 33 36c19 0 35 -17 35 -36v-452zM421 856c0 -31 -43 -54 -77 -54c-22 0 -42 9 -59 18
c-13 6 -22 15 -44 15c-12 0 -26 -3 -45 -18c-7 -6 -11 -9 -19 -9c-12 0 -23 7 -23 23c0 28 37 56 75 56c20 0 38 -8 58 -19c17 -9 29 -13 45 -14c27 0 38 8 48 17c5 4 13 12 21 12s20 -10 20 -27z" />
    <glyph glyph-name="utilde" unicode="&#x169;" horiz-adv-x="509" 
d="M366 120v360c0 18 11 32 33 32c21 0 32 -14 32 -32v-360c0 -50 5 -58 11 -65s15 -18 15 -28c0 -16 -14 -28 -30 -28c-17 0 -30 13 -43 33c-48 -28 -101 -39 -148 -39c-104 0 -157 75 -157 186v301c0 18 12 32 33 32s32 -14 32 -32v-301c0 -82 36 -130 103 -130
c42 0 84 14 121 38c-1 10 -2 20 -2 33zM389 656c0 -31 -43 -54 -77 -54c-22 0 -42 9 -59 18c-13 6 -22 15 -44 15c-12 0 -26 -3 -45 -18c-7 -6 -11 -9 -19 -9c-12 0 -23 7 -23 23c0 28 37 56 75 56c20 0 38 -8 58 -19c17 -9 29 -13 45 -14c27 0 38 8 48 17c5 4 13 12 21 12
s20 -10 20 -27z" />
    <glyph glyph-name="Umacron" unicode="&#x16a;" horiz-adv-x="572" 
d="M507 228c0 -137 -81 -237 -218 -237c-141 0 -219 101 -219 237v452c0 21 16 36 35 36c18 0 32 -16 32 -36v-452c0 -102 49 -173 152 -173s150 73 150 173v452c0 19 15 36 33 36c19 0 35 -17 35 -36v-452zM444 844c0 -17 -12 -29 -28 -29h-255c-17 0 -30 12 -30 29
c0 16 13 30 30 30h255c16 0 28 -14 28 -30z" />
    <glyph glyph-name="umacron" unicode="&#x16b;" horiz-adv-x="509" 
d="M366 120v360c0 18 11 32 33 32c21 0 32 -14 32 -32v-360c0 -50 5 -58 11 -65s15 -18 15 -28c0 -16 -14 -28 -30 -28c-17 0 -30 13 -43 33c-48 -28 -101 -39 -148 -39c-104 0 -157 75 -157 186v301c0 18 12 32 33 32s32 -14 32 -32v-301c0 -82 36 -130 103 -130
c42 0 84 14 121 38c-1 10 -2 20 -2 33zM412 644c0 -17 -12 -29 -28 -29h-255c-17 0 -30 12 -30 29c0 16 13 30 30 30h255c16 0 28 -14 28 -30z" />
    <glyph glyph-name="Ubreve" unicode="&#x16c;" horiz-adv-x="572" 
d="M507 228c0 -137 -81 -237 -218 -237c-141 0 -219 101 -219 237v452c0 21 16 36 35 36c18 0 32 -16 32 -36v-452c0 -102 49 -173 152 -173s150 73 150 173v452c0 19 15 36 33 36c19 0 35 -17 35 -36v-452zM288 832c24 0 49 13 72 45c7 10 16 14 25 14c13 0 25 -8 19 -29
c-14 -50 -72 -77 -116 -77c-43 0 -108 26 -118 77c-4 18 10 29 21 29c9 0 18 -4 24 -14c24 -32 46 -45 73 -45z" />
    <glyph glyph-name="ubreve" unicode="&#x16d;" horiz-adv-x="509" 
d="M366 120v360c0 18 11 32 33 32c21 0 32 -14 32 -32v-360c0 -50 5 -58 11 -65s15 -18 15 -28c0 -16 -14 -28 -30 -28c-17 0 -30 13 -43 33c-48 -28 -101 -39 -148 -39c-104 0 -157 75 -157 186v301c0 18 12 32 33 32s32 -14 32 -32v-301c0 -82 36 -130 103 -130
c42 0 84 14 121 38c-1 10 -2 20 -2 33zM256 632c24 0 49 13 72 45c7 10 16 14 25 14c13 0 25 -8 19 -29c-14 -50 -72 -77 -116 -77c-43 0 -108 26 -118 77c-4 18 10 29 21 29c9 0 18 -4 24 -14c24 -32 46 -45 73 -45z" />
    <glyph glyph-name="Uring" unicode="&#x16e;" horiz-adv-x="572" 
d="M507 228c0 -137 -81 -237 -218 -237c-141 0 -219 101 -219 237v452c0 21 16 36 35 36c18 0 32 -16 32 -36v-452c0 -102 49 -173 152 -173s150 73 150 173v452c0 19 15 36 33 36c19 0 35 -17 35 -36v-452zM382 851c0 -52 -41 -93 -93 -93c-53 0 -95 41 -95 93s42 94 95 94
c52 0 93 -42 93 -94zM351 851c0 35 -27 64 -62 64s-63 -29 -63 -64s28 -62 63 -62s62 27 62 62z" />
    <glyph glyph-name="uring" unicode="&#x16f;" horiz-adv-x="509" 
d="M366 120v360c0 18 11 32 33 32c21 0 32 -14 32 -32v-360c0 -50 5 -58 11 -65s15 -18 15 -28c0 -16 -14 -28 -30 -28c-17 0 -30 13 -43 33c-48 -28 -101 -39 -148 -39c-104 0 -157 75 -157 186v301c0 18 12 32 33 32s32 -14 32 -32v-301c0 -82 36 -130 103 -130
c42 0 84 14 121 38c-1 10 -2 20 -2 33zM351 651c0 -52 -41 -93 -93 -93c-53 0 -95 41 -95 93s42 94 95 94c52 0 93 -42 93 -94zM320 651c0 35 -27 64 -62 64s-63 -29 -63 -64s28 -62 63 -62s62 27 62 62z" />
    <glyph glyph-name="Uhungarumlaut" unicode="&#x170;" horiz-adv-x="572" 
d="M507 228c0 -137 -81 -237 -218 -237c-141 0 -219 101 -219 237v452c0 21 16 36 35 36c18 0 32 -16 32 -36v-452c0 -102 49 -173 152 -173s150 73 150 173v452c0 19 15 36 33 36c19 0 35 -17 35 -36v-452zM334 815l66 98c7 11 14 24 27 24s28 -14 28 -27c0 -3 0 -6 -2 -9
l-72 -107c-6 -9 -11 -14 -21 -14c-15 0 -28 12 -28 25c0 3 0 7 2 10zM196 815l70 104c6 10 12 18 23 18c17 0 27 -18 27 -29c0 0 0 -7 -1 -8c-12 -20 -41 -67 -65 -98c-11 -14 -18 -22 -29 -22c-14 0 -27 12 -27 27c0 4 1 6 2 8z" />
    <glyph glyph-name="uhungarumlaut" unicode="&#x171;" horiz-adv-x="509" 
d="M366 120v360c0 18 11 32 33 32c21 0 32 -14 32 -32v-360c0 -50 5 -58 11 -65s15 -18 15 -28c0 -16 -14 -28 -30 -28c-17 0 -30 13 -43 33c-48 -28 -101 -39 -148 -39c-104 0 -157 75 -157 186v301c0 18 12 32 33 32s32 -14 32 -32v-301c0 -82 36 -130 103 -130
c42 0 84 14 121 38c-1 10 -2 20 -2 33zM300 615l66 98c7 11 14 24 27 24s28 -14 28 -27c0 -3 0 -6 -2 -9l-72 -107c-6 -9 -11 -14 -21 -14c-15 0 -28 12 -28 25c0 3 0 7 2 10zM162 615l70 104c6 10 12 18 23 18c17 0 27 -18 27 -29c0 0 0 -7 -1 -8c-12 -20 -41 -67 -65 -98
c-11 -14 -18 -22 -29 -22c-14 0 -27 12 -27 27c0 4 1 6 2 8z" />
    <glyph glyph-name="Uogonek" unicode="&#x172;" horiz-adv-x="572" 
d="M507 228c0 -102 -45 -183 -124 -219c-17 -33 -40 -73 -40 -107c0 -30 18 -53 53 -53c17 0 24 2 31 3c5 1 9 2 12 2c12 0 20 -10 20 -21c0 -27 -42 -31 -71 -31c-59 0 -98 26 -98 84c0 31 15 69 40 107c-18 -2 -29 -2 -41 -2c-141 0 -219 101 -219 237v452
c0 21 16 36 35 36c18 0 32 -16 32 -36v-452c0 -102 49 -173 152 -173s150 73 150 173v452c0 19 15 36 33 36c19 0 35 -17 35 -36v-452z" />
    <glyph glyph-name="uogonek" unicode="&#x173;" horiz-adv-x="509" 
d="M526 -168c0 -28 -42 -32 -71 -32c-60 0 -99 27 -99 85c0 36 22 79 53 118c-10 8 -18 18 -24 29c-50 -27 -103 -39 -150 -39c-104 0 -156 75 -156 186v301c0 18 11 32 33 32c20 0 32 -14 32 -32v-301c0 -82 36 -130 103 -130c42 0 84 14 121 37c-3 15 -3 24 -3 34v360
c0 18 12 32 33 32c22 0 32 -14 32 -32v-360c0 -50 5 -58 12 -65c10 -11 8 -10 9 -12l-1 1c3 -5 6 -11 6 -17c0 -9 -4 -16 -9 -22c-21 -28 -37 -71 -37 -104c0 -30 17 -54 53 -54c17 0 24 3 31 4c5 1 9 2 13 2c11 0 19 -11 19 -21z" />
    <glyph glyph-name="Wcircumflex" unicode="&#x174;" horiz-adv-x="776" 
d="M517 33l-125 554c-37 -167 -89 -389 -126 -555c-6 -18 -19 -41 -47 -41c-25 0 -41 18 -48 41l-153 648v4c0 18 21 28 39 28c12 0 25 -10 30 -24l134 -578l125 552c8 33 18 54 46 54c27 0 38 -22 45 -54l127 -553l133 579c5 14 15 24 27 24c18 0 41 -9 41 -29
c0 -1 0 -6 -1 -9v-1l-152 -641c-6 -21 -22 -41 -47 -41c-26 0 -42 21 -48 42zM390 853l-83 -68c-1 -2 -9 -3 -13 -3c-9 0 -18 10 -18 19c0 7 9 17 16 24l81 69h-1c5 3 11 7 18 7c6 0 12 -4 18 -7h-1l81 -69c6 -7 16 -17 16 -24c0 -9 -9 -19 -19 -19c-4 0 -11 1 -12 3z" />
    <glyph glyph-name="wcircumflex" unicode="&#x175;" horiz-adv-x="655" 
d="M636 477l-119 -444c-8 -26 -18 -40 -44 -40c-17 0 -34 11 -40 29l-99 389c-29 -117 -66 -273 -100 -389c-5 -18 -20 -29 -41 -29c-23 0 -38 16 -45 40l-120 446v2c0 16 14 31 33 31c12 0 25 -10 30 -23l103 -403c39 142 70 272 101 395c5 17 18 31 39 31
c19 0 32 -14 37 -31c23 -98 50 -200 102 -395l102 403c3 13 17 23 30 23c17 0 31 -14 31 -33v-2zM329 653l-83 -68c-1 -2 -9 -3 -13 -3c-9 0 -18 10 -18 19c0 7 9 17 16 24l81 69h-1c5 3 11 7 18 7c6 0 12 -4 18 -7h-1l81 -69c6 -7 16 -17 16 -24c0 -9 -9 -19 -19 -19
c-4 0 -11 1 -12 3z" />
    <glyph glyph-name="Ycircumflex" unicode="&#x176;" horiz-adv-x="476" 
d="M241 -9c-20 0 -35 15 -35 35v253l-182 386c-2 5 -4 12 -4 17c0 18 17 34 35 34c9 0 19 -4 24 -13v1l162 -351l161 351v-1c5 9 15 13 25 13c17 0 33 -16 33 -34c0 -5 -2 -13 -3 -17l-183 -390v-249c0 -19 -14 -35 -33 -35zM240 853l-83 -68c-1 -2 -9 -3 -13 -3
c-9 0 -18 10 -18 19c0 7 9 17 16 24l81 69h-1c5 3 11 7 18 7c6 0 12 -4 18 -7h-1l81 -69c6 -7 16 -17 16 -24c0 -9 -9 -19 -19 -19c-4 0 -11 1 -12 3z" />
    <glyph glyph-name="ycircumflex" unicode="&#x177;" horiz-adv-x="411" 
d="M398 469l-126 -409c-46 -146 -92 -262 -215 -262c-20 0 -34 13 -34 31c0 15 11 30 30 31c71 3 100 37 133 135l-164 476c-3 3 -3 8 -3 11c0 18 15 30 33 30c12 0 24 -9 29 -21l136 -415c36 127 84 287 120 415c6 11 18 21 30 21c16 0 32 -13 32 -33c0 -5 -1 -8 -1 -10z
M182 653l-83 -68c-1 -2 -9 -3 -13 -3c-9 0 -18 10 -18 19c0 7 9 17 16 24l81 69h-1c5 3 11 7 18 7c6 0 12 -4 18 -7h-1l81 -69c6 -7 16 -17 16 -24c0 -9 -9 -19 -19 -19c-4 0 -11 1 -12 3z" />
    <glyph glyph-name="Ydieresis" unicode="&#x178;" horiz-adv-x="476" 
d="M241 -9c-20 0 -35 15 -35 35v253l-182 386c-2 5 -4 12 -4 17c0 18 17 34 35 34c9 0 19 -4 24 -13v1l162 -351l161 351v-1c5 9 15 13 25 13c17 0 33 -16 33 -34c0 -5 -2 -13 -3 -17l-183 -390v-249c0 -19 -14 -35 -33 -35zM366 846c0 -24 -18 -42 -40 -42s-42 19 -42 42
c0 21 20 41 42 41s40 -19 40 -41zM193 846c0 -24 -18 -42 -41 -42c-22 0 -40 19 -40 42c0 21 18 41 40 41c23 0 41 -19 41 -41z" />
    <glyph glyph-name="Zacute" unicode="&#x179;" horiz-adv-x="484" 
d="M453 35c0 -20 -14 -34 -33 -34h-350c-21 0 -36 16 -36 37c0 6 6 21 10 28l322 574h-297c-19 0 -33 14 -33 32s14 34 33 34h346c21 0 36 -16 36 -37c0 -8 -6 -20 -9 -27l-323 -575h301c18 0 33 -14 33 -32zM217 825l87 91c6 6 13 14 23 14c14 0 25 -14 25 -27
c0 -4 -1 -9 -3 -12l-82 -87c-10 -10 -16 -17 -27 -17c-15 0 -27 13 -27 28c0 4 1 6 4 10z" />
    <glyph glyph-name="zacute" unicode="&#x17a;" horiz-adv-x="384" 
d="M367 471c0 -7 -4 -20 -7 -25l-262 -387h241c17 0 30 -14 30 -30c0 -17 -13 -29 -30 -29h-285c-18 0 -34 15 -34 35c0 5 2 16 6 22l264 389h-230c-17 0 -30 13 -30 29c0 18 13 30 30 30h273c19 0 34 -12 34 -34zM178 625l87 91c6 6 13 14 23 14c14 0 25 -14 25 -27
c0 -4 -1 -9 -3 -12l-82 -87c-10 -10 -16 -17 -27 -17c-15 0 -27 13 -27 28c0 4 1 6 4 10z" />
    <glyph glyph-name="Zdotaccent" unicode="&#x17b;" horiz-adv-x="484" 
d="M453 35c0 -20 -14 -34 -33 -34h-350c-21 0 -36 16 -36 37c0 6 6 21 10 28l322 574h-297c-19 0 -33 14 -33 32s14 34 33 34h346c21 0 36 -16 36 -37c0 -8 -6 -20 -9 -27l-323 -575h301c18 0 33 -14 33 -32zM283 846c0 -24 -18 -42 -41 -42c-22 0 -40 19 -40 42
c0 21 18 41 40 41c23 0 41 -19 41 -41z" />
    <glyph glyph-name="zdotaccent" unicode="&#x17c;" horiz-adv-x="384" 
d="M367 471c0 -7 -4 -20 -7 -25l-262 -387h241c17 0 30 -14 30 -30c0 -17 -13 -29 -30 -29h-285c-18 0 -34 15 -34 35c0 5 2 16 6 22l264 389h-230c-17 0 -30 13 -30 29c0 18 13 30 30 30h273c19 0 34 -12 34 -34zM233 646c0 -24 -18 -42 -41 -42c-22 0 -40 19 -40 42
c0 21 18 41 40 41c23 0 41 -19 41 -41z" />
    <glyph glyph-name="Zcaron" unicode="&#x17d;" horiz-adv-x="484" 
d="M453 35c0 -20 -14 -34 -33 -34h-350c-21 0 -36 16 -36 37c0 6 6 21 10 28l322 574h-297c-19 0 -33 14 -33 32s14 34 33 34h346c21 0 36 -16 36 -37c0 -8 -6 -20 -9 -27l-323 -575h301c18 0 33 -14 33 -32zM244 775c-8 0 -15 3 -19 7l-90 75c-10 9 -19 18 -19 29
c0 13 14 22 24 22c6 0 10 -3 14 -6l90 -73l90 73c4 4 9 6 14 6c12 0 23 -9 23 -22c0 -12 -8 -20 -18 -29l-90 -75c-4 -4 -11 -7 -19 -7z" />
    <glyph glyph-name="zcaron" unicode="&#x17e;" horiz-adv-x="384" 
d="M367 471c0 -7 -4 -20 -7 -25l-262 -387h241c17 0 30 -14 30 -30c0 -17 -13 -29 -30 -29h-285c-18 0 -34 15 -34 35c0 5 2 16 6 22l264 389h-230c-17 0 -30 13 -30 29c0 18 13 30 30 30h273c19 0 34 -12 34 -34zM195 575c-8 0 -15 3 -19 7l-90 75c-10 9 -19 18 -19 29
c0 13 14 22 24 22c6 0 10 -3 14 -6l90 -73l90 73c4 4 9 6 14 6c12 0 23 -9 23 -22c0 -12 -8 -20 -18 -29l-90 -75c-4 -4 -11 -7 -19 -7z" />
    <glyph glyph-name="florin" unicode="&#x192;" horiz-adv-x="492" 
d="M481 685c0 -27 -21 -25 -34 -23c-13 1 -26 3 -29 3c-40 0 -72 -28 -81 -73l-23 -144h94c15 0 27 -8 27 -29c0 -19 -12 -26 -27 -26h-106c-23 -139 -53 -303 -77 -442c-17 -97 -53 -166 -142 -166c-43 0 -76 1 -76 28c0 20 13 31 33 31h11c6 0 12 -1 18 -1
c58 0 77 32 89 99l79 451h-95c-15 0 -28 8 -28 27c0 21 13 28 28 28h105l26 154c16 69 72 120 155 120c25 0 53 -4 53 -37z" />
    <glyph glyph-name="uni0218" unicode="&#x218;" horiz-adv-x="486" 
d="M372 188c0 68 -35 96 -62 110c-21 11 -51 22 -80 32c-88 30 -183 61 -183 194c0 120 77 192 200 192c49 0 166 -11 166 -62c0 -16 -12 -31 -33 -31c-11 0 -24 4 -35 9c-23 9 -51 20 -92 20c-70 0 -136 -28 -136 -123c0 -71 39 -96 64 -109c22 -11 52 -23 80 -32
c85 -28 182 -65 182 -193c0 -130 -92 -204 -216 -204c-63 0 -181 18 -181 67c0 17 14 33 30 33c6 0 22 -6 37 -11c26 -11 63 -25 115 -25c96 0 144 49 144 133zM292 -113c0 -54 -45 -129 -70 -129c-6 0 -12 3 -12 9c0 7 9 17 16 28c7 8 18 22 26 42c-31 2 -54 24 -54 50
s21 47 48 47c25 0 46 -22 46 -47z" />
    <glyph glyph-name="uni0219" unicode="&#x219;" horiz-adv-x="406" 
d="M59 374c0 85 55 141 159 141c51 0 129 -12 129 -50c0 -16 -12 -29 -29 -29c-6 0 -10 2 -15 4c-23 11 -43 20 -82 20c-68 0 -99 -28 -99 -81c0 -36 14 -54 53 -75c79 -39 187 -49 187 -169c0 -88 -56 -142 -165 -142c-51 0 -145 10 -145 51c0 15 12 30 31 30c2 0 3 0 6 -1
c30 -12 63 -25 108 -25c61 0 102 25 102 84c0 42 -19 61 -41 73c-78 39 -199 49 -199 169zM252 -113c0 -54 -45 -129 -70 -129c-6 0 -12 3 -12 9c0 7 9 17 16 28c7 8 18 22 26 42c-31 2 -54 24 -54 50s21 47 48 47c25 0 46 -22 46 -47z" />
    <glyph glyph-name="uni021A" unicode="&#x21a;" horiz-adv-x="483" 
d="M210 24v618h-146c-20 0 -34 14 -34 31c0 15 15 33 34 33h359c18 0 34 -14 34 -33c0 -17 -15 -31 -34 -31h-147v-618c0 -18 -14 -33 -32 -33c-19 0 -34 15 -34 33zM290 -113c0 -54 -45 -129 -70 -129c-6 0 -12 3 -12 9c0 7 9 17 16 28c7 8 18 22 26 42
c-31 2 -54 24 -54 50s21 47 48 47c25 0 46 -22 46 -47z" />
    <glyph glyph-name="uni021B" unicode="&#x21b;" horiz-adv-x="321" 
d="M81 202v431c0 17 11 32 32 32s32 -15 32 -32v-150h116c16 0 29 -13 29 -31c0 -16 -13 -29 -29 -29h-116v-214c0 -111 12 -152 93 -152c7 0 13 1 20 1c19 0 45 -3 45 -30c0 -28 -26 -31 -50 -31c-138 0 -172 68 -172 205zM269 -113c0 -54 -45 -129 -70 -129
c-6 0 -12 3 -12 9c0 7 9 17 16 28c7 8 18 22 26 42c-31 2 -54 24 -54 50s21 47 48 47c25 0 46 -22 46 -47z" />
    <glyph glyph-name="dotlessj" unicode="&#x237;" horiz-adv-x="245" 
d="M157 479v-502c0 -101 -54 -171 -138 -185c-9 -1 -13 0 -19 0c-12 0 -24 8 -27 20c-5 23 13 33 25 35c60 14 94 46 94 126v506c0 18 14 33 33 33c17 0 32 -15 32 -33z" />
    <glyph glyph-name="circumflex" unicode="&#x2c6;" horiz-adv-x="396" 
d="M199 653l-83 -68c-1 -2 -9 -3 -13 -3c-9 0 -18 10 -18 19c0 7 9 17 16 24l81 69h-1c5 3 11 7 18 7c6 0 12 -4 18 -7h-1l81 -69c6 -7 16 -17 16 -24c0 -9 -9 -19 -19 -19c-4 0 -11 1 -12 3z" />
    <glyph glyph-name="caron" unicode="&#x2c7;" horiz-adv-x="391" 
d="M197 575c-8 0 -15 3 -19 7l-90 75c-10 9 -19 18 -19 29c0 13 14 22 24 22c6 0 10 -3 14 -6l90 -73l90 73c4 4 9 6 14 6c12 0 23 -9 23 -22c0 -12 -8 -20 -18 -29l-90 -75c-4 -4 -11 -7 -19 -7z" />
    <glyph glyph-name="breve" unicode="&#x2d8;" horiz-adv-x="368" 
d="M185 632c24 0 49 13 72 45c7 10 16 14 25 14c13 0 25 -8 19 -29c-14 -50 -72 -77 -116 -77c-43 0 -108 26 -118 77c-4 18 10 29 21 29c9 0 18 -4 24 -14c24 -32 46 -45 73 -45z" />
    <glyph glyph-name="dotaccent" unicode="&#x2d9;" horiz-adv-x="238" 
d="M160 646c0 -24 -18 -42 -41 -42c-22 0 -40 19 -40 42c0 21 18 41 40 41c23 0 41 -19 41 -41z" />
    <glyph glyph-name="ring" unicode="&#x2da;" horiz-adv-x="571" 
d="M378 651c0 -52 -41 -93 -93 -93c-53 0 -95 41 -95 93s42 94 95 94c52 0 93 -42 93 -94zM347 651c0 35 -27 64 -62 64s-63 -29 -63 -64s28 -62 63 -62s62 27 62 62z" />
    <glyph glyph-name="ogonek" unicode="&#x2db;" horiz-adv-x="322" 
d="M244 -167c0 -27 -41 -31 -70 -31c-59 0 -98 26 -98 84c0 32 14 69 35 100h46c-13 -27 -28 -58 -28 -84c0 -30 17 -53 53 -53c16 0 24 2 31 3c5 1 9 2 12 2c11 0 19 -10 19 -21z" />
    <glyph glyph-name="tilde" unicode="&#x2dc;" horiz-adv-x="375" 
d="M330 656c0 -31 -43 -54 -77 -54c-22 0 -42 9 -59 18c-13 6 -22 15 -44 15c-12 0 -26 -3 -45 -18c-7 -6 -11 -9 -19 -9c-12 0 -23 7 -23 23c0 28 37 56 75 56c20 0 38 -8 58 -19c17 -9 29 -13 45 -14c27 0 38 8 48 17c5 4 13 12 21 12s20 -10 20 -27z" />
    <glyph glyph-name="hungarumlaut" unicode="&#x2dd;" horiz-adv-x="410" 
d="M217 615l66 98c7 11 14 24 27 24s28 -14 28 -27c0 -3 0 -6 -2 -9l-72 -107c-6 -9 -11 -14 -21 -14c-15 0 -28 12 -28 25c0 3 0 7 2 10zM79 615l70 104c6 10 12 18 23 18c17 0 27 -18 27 -29c0 0 0 -7 -1 -8c-12 -20 -41 -67 -65 -98c-11 -14 -18 -22 -29 -22
c-14 0 -27 12 -27 27c0 4 1 6 2 8z" />
    <glyph glyph-name="uni0400" unicode="&#x400;" horiz-adv-x="474" 
d="M440 35c0 -20 -15 -34 -33 -34h-271c-30 0 -57 9 -57 40v624c0 21 17 41 41 41h277c18 0 32 -15 32 -34c0 -17 -14 -30 -32 -30h-252v-255h232c17 0 32 -14 32 -32s-14 -32 -32 -32h-232v-258h262c17 0 33 -14 33 -30zM217 917l86 -91c3 -3 4 -7 4 -10
c0 -16 -13 -28 -26 -28c-11 0 -19 6 -28 16l-81 88c-3 4 -4 9 -4 12c0 15 13 27 24 27s16 -6 25 -14z" />
    <glyph glyph-name="uni0401" unicode="&#x401;" horiz-adv-x="474" 
d="M440 35c0 -20 -15 -34 -33 -34h-271c-30 0 -57 9 -57 40v624c0 21 17 41 41 41h277c18 0 32 -15 32 -34c0 -17 -14 -30 -32 -30h-252v-255h232c17 0 32 -14 32 -32s-14 -32 -32 -32h-232v-258h262c17 0 33 -14 33 -30zM396 847c0 -24 -18 -42 -40 -42s-42 19 -42 42
c0 21 20 41 42 41s40 -19 40 -41zM223 847c0 -24 -18 -42 -41 -42c-22 0 -40 19 -40 42c0 21 18 41 40 41c23 0 41 -19 41 -41z" />
    <glyph glyph-name="uni0402" unicode="&#x402;" horiz-adv-x="644" 
d="M168 24v619h-105c-19 0 -34 15 -34 30c0 17 16 34 34 34h360c17 0 33 -14 33 -33c0 -17 -15 -31 -33 -31h-188v-234c49 21 100 31 141 31c131 0 206 -75 206 -223c0 -138 -65 -226 -171 -226c-56 0 -97 23 -97 53c0 16 14 29 29 29c7 0 11 -4 16 -7c10 -6 20 -11 44 -11
c71 0 113 49 113 160c0 118 -46 161 -146 161c-47 0 -97 -10 -135 -32v-320c0 -18 -15 -33 -33 -33s-34 15 -34 33z" />
    <glyph glyph-name="uni0403" unicode="&#x403;" horiz-adv-x="430" 
d="M145 641v-616c0 -18 -14 -33 -32 -33c-19 0 -34 15 -34 33v641c0 20 16 39 39 39h278c17 0 31 -15 31 -33c0 -17 -14 -31 -31 -31h-251zM229 826l87 91c6 6 13 14 23 14c14 0 25 -14 25 -27c0 -4 -1 -9 -3 -12l-82 -87c-10 -10 -16 -17 -27 -17c-15 0 -27 13 -27 28
c0 4 1 6 4 10z" />
    <glyph glyph-name="uni0404" unicode="&#x404;" horiz-adv-x="482" 
d="M50 244v219c0 153 71 253 223 253c89 0 173 -37 173 -80c0 -16 -12 -28 -29 -28c-9 0 -14 4 -22 9c-2 2 -7 4 -10 6c-33 22 -67 34 -107 34c-121 0 -161 -75 -161 -194v-76h198c16 0 31 -14 31 -32c0 -19 -14 -33 -31 -33h-198v-78c0 -118 40 -193 161 -193
c40 0 74 10 105 32l11 7c10 7 16 10 23 10c17 0 29 -13 29 -28c0 -44 -84 -80 -173 -80c-152 0 -223 100 -223 252z" />
    <glyph glyph-name="uni0405" unicode="&#x405;" horiz-adv-x="486" 
d="M372 188c0 68 -35 96 -62 110c-21 11 -51 22 -80 32c-88 30 -183 61 -183 194c0 120 77 192 200 192c49 0 166 -11 166 -62c0 -16 -12 -31 -33 -31c-11 0 -24 4 -35 9c-23 9 -51 20 -92 20c-70 0 -136 -28 -136 -123c0 -71 39 -96 64 -109c22 -11 52 -23 80 -32
c85 -28 182 -65 182 -193c0 -130 -92 -204 -216 -204c-63 0 -181 18 -181 67c0 17 14 33 30 33c6 0 22 -6 37 -11c26 -11 63 -25 115 -25c96 0 144 49 144 133z" />
    <glyph glyph-name="uni0406" unicode="&#x406;" horiz-adv-x="227" 
d="M80 24v659c0 17 16 33 34 33c19 0 33 -16 33 -33v-659c0 -18 -14 -33 -33 -33c-18 0 -34 15 -34 33z" />
    <glyph glyph-name="uni0407" unicode="&#x407;" horiz-adv-x="227" 
d="M80 24v659c0 17 16 33 34 33c19 0 33 -16 33 -33v-659c0 -18 -14 -33 -33 -33c-18 0 -34 15 -34 33zM242 847c0 -24 -18 -42 -40 -42s-42 19 -42 42c0 21 20 41 42 41s40 -19 40 -41zM69 847c0 -24 -18 -42 -41 -42c-22 0 -40 19 -40 42c0 21 18 41 40 41
c23 0 41 -19 41 -41z" />
    <glyph glyph-name="uni0408" unicode="&#x408;" horiz-adv-x="385" 
d="M309 683v-460c0 -144 -46 -232 -198 -232c-27 0 -80 2 -80 38c0 21 16 32 28 32c2 0 9 -1 16 -2c11 -2 26 -5 47 -5c100 0 120 66 120 169v460c0 18 15 33 34 33c17 0 33 -16 33 -33z" />
    <glyph glyph-name="uni0409" unicode="&#x409;" horiz-adv-x="877" 
d="M447 578l1 -7v72h-212l-32 -477c-7 -101 -43 -173 -121 -173c-36 0 -70 1 -70 33c0 24 15 34 30 34c13 0 12 -3 29 -3c41 0 60 33 65 101l37 515c3 25 20 34 32 34h276c17 0 32 -15 32 -33v-233h105c134 0 221 -77 221 -218c0 -116 -58 -222 -221 -222h-130
c-23 0 -42 18 -42 41v536zM514 377v-312h105c126 0 155 80 155 157c0 105 -53 155 -155 155h-105z" />
    <glyph glyph-name="uni040A" unicode="&#x40a;" horiz-adv-x="848" 
d="M143 322v-297c0 -19 -14 -34 -32 -34c-19 0 -34 15 -34 34v658c0 17 15 33 34 33c18 0 32 -16 32 -33v-297h274v294c0 20 16 36 34 36s33 -17 33 -36v-239h105c135 0 222 -77 222 -218c0 -116 -59 -222 -222 -222h-130c-22 0 -42 18 -42 41v280h-274zM484 377v-312h105
c126 0 155 80 155 157c0 105 -53 155 -155 155h-105z" />
    <glyph glyph-name="uni040B" unicode="&#x40b;" horiz-adv-x="644" 
d="M456 674c0 -17 -15 -31 -33 -31h-188v-234c49 21 100 31 141 31c131 0 206 -77 206 -218v-196c0 -19 -14 -35 -33 -35c-17 0 -33 15 -33 35v195c0 112 -48 155 -147 155c-46 0 -96 -10 -134 -32v-320c0 -18 -15 -33 -33 -33s-34 15 -34 33v619h-105c-19 0 -34 14 -34 31
c0 15 16 33 34 33h360c17 0 33 -14 33 -33z" />
    <glyph glyph-name="uni040C" unicode="&#x40c;" horiz-adv-x="516" 
d="M145 683v-297h72c69 102 146 212 215 314c8 10 19 16 28 16c19 0 30 -21 30 -37c0 -5 -1 -10 -3 -15l-217 -311l216 -311c3 -5 4 -10 4 -15c0 -16 -11 -36 -30 -36c-11 0 -21 5 -28 15l-217 316h-70v-297c0 -19 -14 -34 -33 -34c-18 0 -33 15 -33 34v658
c0 17 15 33 33 33c19 0 33 -16 33 -33zM247 826l87 91c6 6 13 14 23 14c14 0 25 -14 25 -27c0 -4 -1 -9 -3 -12l-82 -87c-10 -10 -16 -17 -27 -17c-15 0 -27 13 -27 28c0 4 1 6 4 10z" />
    <glyph glyph-name="uni040D" unicode="&#x40d;" horiz-adv-x="589" 
d="M116 -9c-22 0 -38 16 -38 37v654c0 18 15 34 33 34c19 0 34 -16 34 -34v-551l299 564c7 13 22 21 36 21c20 0 36 -16 36 -38v-653c0 -19 -15 -34 -32 -34c-18 0 -35 15 -35 34v550l-298 -565c-7 -12 -21 -19 -35 -19zM226 917l86 -91c3 -3 4 -7 4 -10
c0 -16 -13 -28 -26 -28c-11 0 -19 6 -28 16l-81 88c-3 4 -4 9 -4 12c0 15 13 27 24 27s16 -6 25 -14z" />
    <glyph glyph-name="uni040E" unicode="&#x40e;" horiz-adv-x="503" 
d="M476 674l-165 -446c-51 -137 -86 -233 -214 -235c-19 0 -33 13 -33 31c0 15 11 29 30 30c69 3 99 31 132 109l-194 511c-2 3 -2 10 -2 13c0 17 14 29 33 29c12 0 23 -8 28 -22l166 -447c49 139 110 308 159 448c6 11 19 21 30 21c16 0 31 -13 31 -32c0 -5 -1 -9 -1 -10z
M253 833c24 0 49 13 72 45c7 10 16 14 25 14c13 0 25 -8 19 -29c-14 -50 -72 -77 -116 -77c-43 0 -108 26 -118 77c-4 18 10 29 21 29c9 0 18 -4 24 -14c24 -32 46 -45 73 -45z" />
    <glyph glyph-name="uni040F" unicode="&#x40f;" horiz-adv-x="579" 
d="M258 -130v131h-146c-18 0 -33 15 -33 33v649c0 18 15 34 33 34c19 0 33 -16 33 -34v-618h294v618c0 18 17 34 34 34c18 0 33 -16 33 -34v-649c0 -18 -16 -33 -33 -33h-148v-131c0 -17 -15 -32 -33 -32s-34 15 -34 32z" />
    <glyph glyph-name="uni0410" unicode="&#x410;" horiz-adv-x="549" 
d="M142 163l-45 -148c-6 -12 -21 -24 -32 -24c-19 0 -35 13 -35 33c0 3 1 10 2 13l199 630c8 28 20 49 46 49c25 0 38 -22 47 -49l199 -630c0 -2 1 -9 1 -13c0 -20 -15 -33 -35 -33c-12 0 -28 10 -32 24l-46 148h-269zM277 607l-116 -379h231z" />
    <glyph glyph-name="uni0411" unicode="&#x411;" horiz-adv-x="531" 
d="M416 641h-271v-220h126c135 0 221 -75 221 -208c0 -111 -58 -212 -221 -212h-150c-23 0 -42 18 -42 41v624c0 20 16 39 38 39h299c17 0 31 -15 31 -33c0 -17 -14 -31 -31 -31zM145 65h126c126 0 155 75 155 147c0 98 -53 145 -155 145h-126v-292z" />
    <glyph glyph-name="uni0412" unicode="&#x412;" horiz-adv-x="542" 
d="M145 400h126c69 0 147 40 147 128c0 58 -33 114 -130 114h-143v-242zM274 335h-129v-270h133c107 0 159 54 159 131c0 90 -69 139 -163 139zM289 1h-169c-23 0 -41 18 -41 41v622c0 24 19 42 41 42h173c128 0 191 -88 191 -179c0 -84 -54 -130 -126 -164
c66 -24 146 -57 146 -166c0 -110 -82 -196 -215 -196z" />
    <glyph glyph-name="uni0413" unicode="&#x413;" horiz-adv-x="430" 
d="M145 641v-616c0 -18 -14 -33 -32 -33c-19 0 -34 15 -34 33v641c0 20 16 39 39 39h278c17 0 31 -15 31 -33c0 -17 -14 -31 -31 -31h-251z" />
    <glyph glyph-name="uni0414" unicode="&#x414;" horiz-adv-x="628" 
d="M502 705c19 0 33 -15 33 -33v-607h34c19 0 33 -19 33 -45v-130c0 -18 -14 -32 -33 -32s-33 14 -33 32v111h-440v-111c0 -18 -15 -32 -32 -32c-18 0 -33 14 -33 32v130c0 26 15 45 33 45h34c35 49 55 148 61 278l15 329c1 25 20 33 32 33h296zM226 343
c-5 -114 -26 -210 -65 -278h308v576h-232z" />
    <glyph glyph-name="uni0415" unicode="&#x415;" horiz-adv-x="474" 
d="M440 35c0 -20 -15 -34 -33 -34h-271c-30 0 -57 9 -57 40v624c0 21 17 41 41 41h277c18 0 32 -15 32 -34c0 -17 -14 -30 -32 -30h-252v-255h232c17 0 32 -14 32 -32s-14 -32 -32 -32h-232v-258h262c17 0 33 -14 33 -30z" />
    <glyph glyph-name="uni0416" unicode="&#x416;" horiz-adv-x="746" 
d="M410 683v-297h59l197 314c7 11 19 16 28 16c29 0 38 -33 27 -52l-191 -311l190 -311c3 -5 4 -10 4 -15c0 -16 -11 -36 -30 -36c-11 0 -21 6 -28 15l-197 316h-59v-297c0 -19 -15 -34 -33 -34s-34 15 -34 34v297h-58l-197 -316c-7 -9 -16 -15 -28 -15c-20 0 -31 20 -31 36
c0 4 1 8 5 15l189 311l-190 311c-14 24 8 52 30 52c9 0 18 -5 25 -16l196 -314h59v297c0 17 16 33 34 33s33 -16 33 -33z" />
    <glyph glyph-name="uni0417" unicode="&#x417;" horiz-adv-x="485" 
d="M443 191c0 -107 -82 -200 -214 -200c-71 0 -194 25 -194 77c0 17 13 30 29 30c3 0 7 -1 16 -6c42 -21 82 -43 148 -43c100 0 149 62 149 141c0 99 -82 133 -183 138c-20 1 -43 3 -43 32c0 27 19 30 34 30c83 0 177 43 177 140c0 63 -35 128 -134 128
c-33 0 -71 -4 -97 -21l-22 -14c-13 -8 -24 -13 -35 -14c-14 0 -28 11 -28 27c0 48 111 80 187 80c128 0 191 -95 191 -187c0 -76 -53 -131 -134 -166c90 -31 153 -84 153 -172z" />
    <glyph glyph-name="uni0418" unicode="&#x418;" horiz-adv-x="589" 
d="M116 -9c-22 0 -38 16 -38 37v654c0 18 15 34 33 34c19 0 34 -16 34 -34v-551l299 564c7 13 22 21 36 21c20 0 36 -16 36 -38v-653c0 -19 -15 -34 -32 -34c-18 0 -35 15 -35 34v550l-298 -565c-7 -12 -21 -19 -35 -19z" />
    <glyph glyph-name="uni0419" unicode="&#x419;" horiz-adv-x="589" 
d="M116 -9c-22 0 -38 16 -38 37v654c0 18 15 34 33 34c19 0 34 -16 34 -34v-551l299 564c7 13 22 21 36 21c20 0 36 -16 36 -38v-653c0 -19 -15 -34 -32 -34c-18 0 -35 15 -35 34v550l-298 -565c-7 -12 -21 -19 -35 -19zM296 833c24 0 49 13 72 45c7 10 16 14 25 14
c13 0 25 -8 19 -29c-14 -50 -72 -77 -116 -77c-43 0 -108 26 -118 77c-4 18 10 29 21 29c9 0 18 -4 24 -14c24 -32 46 -45 73 -45z" />
    <glyph glyph-name="uni041A" unicode="&#x41a;" horiz-adv-x="516" 
d="M145 683v-297h72c69 102 146 212 215 314c8 10 19 16 28 16c19 0 30 -21 30 -37c0 -5 -1 -10 -3 -15l-217 -311l216 -311c3 -5 4 -10 4 -15c0 -16 -11 -36 -30 -36c-11 0 -21 5 -28 15l-217 316h-70v-297c0 -19 -14 -34 -33 -34c-18 0 -33 15 -33 34v658
c0 17 15 33 33 33c19 0 33 -16 33 -33z" />
    <glyph glyph-name="uni041B" unicode="&#x41b;" horiz-adv-x="610" 
d="M536 25h1c-1 -18 -15 -32 -33 -32c-20 0 -34 14 -34 32v616h-232l-33 -475c-7 -101 -43 -173 -120 -173c-36 0 -71 1 -71 33c0 24 16 34 31 34c13 0 11 -3 29 -3c40 0 60 33 65 101l37 513c2 25 19 34 31 34h297c18 0 32 -15 32 -33v-647z" />
    <glyph glyph-name="uni041C" unicode="&#x41c;" horiz-adv-x="690" 
d="M626 680v-658c0 -17 -15 -31 -32 -31c-18 0 -35 14 -35 31v530c-53 -115 -125 -265 -179 -380c-7 -13 -19 -20 -32 -20c-14 0 -26 8 -32 20l-180 380v-530c0 -17 -15 -31 -35 -31c-17 0 -31 14 -31 31v658c0 21 15 36 36 36c17 0 28 -8 36 -23v1l207 -443l206 444v-1
c9 16 22 22 36 22c19 0 35 -16 35 -36z" />
    <glyph glyph-name="uni041D" unicode="&#x41d;" horiz-adv-x="580" 
d="M506 25c0 -19 -15 -34 -33 -34c-17 0 -34 15 -34 34v297h-294v-297c0 -19 -14 -34 -33 -34c-18 0 -33 15 -33 34v658c0 17 15 33 33 33c19 0 33 -16 33 -33v-297h294v297c0 17 17 33 34 33s33 -16 33 -33v-658z" />
    <glyph glyph-name="uni041E" unicode="&#x41e;" horiz-adv-x="551" 
d="M278 -9c-151 0 -228 112 -228 253v219c0 138 64 253 228 253c162 0 227 -115 227 -253v-219c0 -141 -76 -253 -227 -253zM278 652c-119 0 -161 -76 -161 -189v-219c0 -111 51 -189 161 -189s160 78 160 189v219c0 113 -43 189 -160 189z" />
    <glyph glyph-name="uni041F" unicode="&#x41f;" horiz-adv-x="579" 
d="M506 25c0 -19 -15 -34 -33 -34c-17 0 -34 15 -34 34v616h-294v-616c0 -19 -14 -34 -33 -34c-18 0 -33 15 -33 34v646c0 18 15 34 33 34h361c17 0 33 -16 33 -34v-646z" />
    <glyph glyph-name="uni0420" unicode="&#x420;" horiz-adv-x="530" 
d="M271 267h-126v-241c0 -19 -14 -35 -33 -35c-17 0 -33 15 -33 35v638c0 23 19 42 42 42h150c163 0 221 -106 221 -222c0 -140 -86 -217 -221 -217zM145 642v-311h126c102 0 155 49 155 154c0 78 -29 157 -155 157h-126z" />
    <glyph glyph-name="uni0421" unicode="&#x421;" horiz-adv-x="481" 
d="M50 244v219c0 153 71 253 223 253c89 0 173 -37 173 -80c0 -16 -12 -28 -29 -28c-9 0 -14 4 -22 9c-2 2 -7 4 -10 6c-33 22 -67 34 -107 34c-121 0 -161 -75 -161 -194v-219c0 -118 40 -193 161 -193c40 0 74 10 105 32l11 7c10 7 16 10 23 10c17 0 29 -13 29 -28
c0 -44 -84 -80 -173 -80c-152 0 -223 100 -223 252z" />
    <glyph glyph-name="uni0422" unicode="&#x422;" horiz-adv-x="483" 
d="M210 24v618h-146c-20 0 -34 14 -34 31c0 15 15 33 34 33h359c18 0 34 -14 34 -33c0 -17 -15 -31 -34 -31h-147v-618c0 -18 -14 -33 -32 -33c-19 0 -34 15 -34 33z" />
    <glyph glyph-name="uni0423" unicode="&#x423;" horiz-adv-x="503" 
d="M476 674l-165 -446c-51 -137 -86 -233 -214 -235c-19 0 -33 13 -33 31c0 15 11 29 30 30c69 3 99 31 132 109l-194 511c-2 3 -2 10 -2 13c0 17 14 29 33 29c12 0 23 -8 28 -22l166 -447c49 139 110 308 159 448c6 11 19 21 30 21c16 0 31 -13 31 -32c0 -5 -1 -9 -1 -10z
" />
    <glyph glyph-name="uni0424" unicode="&#x424;" horiz-adv-x="750" 
d="M345 24v141h-73c-136 0 -223 77 -223 217c0 116 58 223 223 223h73v78c0 17 17 33 34 33c19 0 33 -16 33 -33v-78h74c164 0 222 -107 222 -223c0 -140 -87 -217 -222 -217h-74v-141c0 -18 -15 -33 -33 -33s-34 15 -34 33zM486 540h-74v-311h74c102 0 156 49 156 154
c0 78 -29 157 -156 157zM272 229h73v311h-73c-128 0 -157 -79 -157 -157c0 -105 55 -154 157 -154z" />
    <glyph glyph-name="uni0425" unicode="&#x425;" horiz-adv-x="483" 
d="M244 319l-170 -303c-6 -11 -15 -25 -32 -25c-16 0 -31 16 -31 34c0 7 2 14 5 18l188 325l-173 297l1 -1c-3 6 -5 14 -5 20c0 16 14 32 31 32c13 0 27 -15 36 -32l150 -268l149 268h-1c8 14 21 32 39 32c15 0 28 -15 28 -33c0 -7 -2 -14 -4 -19l1 1l-172 -297l188 -325
c2 -4 4 -11 4 -18c0 -18 -15 -34 -30 -34s-26 14 -33 25z" />
    <glyph glyph-name="uni0426" unicode="&#x426;" horiz-adv-x="604" 
d="M112 1c-19 0 -34 15 -34 33v648c0 18 15 34 34 34c18 0 33 -16 33 -34v-617h294v617c0 18 16 34 34 34s32 -16 32 -34v-617h49c18 0 33 -16 33 -33v-161c0 -18 -15 -33 -33 -33c-17 0 -33 15 -33 33v130h-409z" />
    <glyph glyph-name="uni0427" unicode="&#x427;" horiz-adv-x="547" 
d="M406 361v319c0 19 15 36 34 36c17 0 32 -16 32 -36v-654c0 -20 -15 -35 -32 -35c-19 0 -34 16 -34 35v270c-47 -20 -98 -29 -140 -29c-132 0 -208 77 -208 217v196c0 19 16 36 34 36c17 0 33 -16 33 -36v-195c0 -111 49 -154 148 -154c45 0 95 10 133 30z" />
    <glyph glyph-name="uni0428" unicode="&#x428;" horiz-adv-x="760" 
d="M689 682v-648c0 -18 -16 -33 -33 -33h-545c-18 0 -33 15 -33 33v648c0 18 15 34 33 34c19 0 33 -16 33 -34v-617h205v618c0 17 16 33 34 33s33 -16 33 -33v-618h206v617c0 18 16 34 34 34s33 -16 33 -34z" />
    <glyph glyph-name="uni0429" unicode="&#x429;" horiz-adv-x="784" 
d="M688 682v-617h49c18 0 33 -16 33 -33v-161c0 -18 -14 -33 -33 -33c-17 0 -34 15 -34 33v130h-592c-19 0 -34 15 -34 33v648c0 18 15 34 34 34c18 0 33 -16 33 -34v-617h205v618c0 17 15 33 34 33c18 0 32 -16 32 -33v-618h207v617c0 18 16 34 33 34c19 0 33 -16 33 -34z
" />
    <glyph glyph-name="uni042A" unicode="&#x42a;" horiz-adv-x="654" 
d="M200 42v601h-147c-19 0 -33 14 -33 31c0 18 14 33 33 33h175c22 0 38 -19 38 -39v-227h126c135 0 222 -77 222 -218c0 -116 -59 -222 -222 -222h-150c-23 0 -42 18 -42 41zM266 65h126c127 0 155 80 155 157c0 105 -53 155 -155 155h-126v-312z" />
    <glyph glyph-name="uni042B" unicode="&#x42b;" horiz-adv-x="725" 
d="M144 441h126c135 0 222 -77 222 -218c0 -116 -59 -222 -222 -222h-150c-23 0 -42 18 -42 41v638c0 20 16 36 33 36c19 0 33 -17 33 -36v-239zM144 377v-312h126c127 0 155 80 155 157c0 105 -53 155 -155 155h-126zM587 24v659c0 17 15 33 33 33c19 0 33 -16 33 -33v-659
c0 -18 -14 -33 -33 -33c-18 0 -33 15 -33 33z" />
    <glyph glyph-name="uni042C" unicode="&#x42c;" horiz-adv-x="535" 
d="M145 441h126c135 0 221 -77 221 -218c0 -116 -58 -222 -221 -222h-150c-23 0 -42 18 -42 41v638c0 20 16 36 33 36c19 0 33 -17 33 -36v-239zM145 377v-312h126c126 0 155 80 155 157c0 105 -53 155 -155 155h-126z" />
    <glyph glyph-name="uni042D" unicode="&#x42d;" horiz-adv-x="498" 
d="M451 463v-219c0 -152 -70 -252 -222 -252c-89 0 -174 36 -174 80c0 15 13 28 30 28c8 0 13 -4 24 -10c4 -2 7 -5 10 -7c31 -22 64 -32 105 -32c121 0 160 75 160 193v78h-197c-18 0 -31 14 -31 33c0 18 15 32 31 32h197v76c0 119 -39 194 -160 194
c-41 0 -74 -12 -106 -34l-10 -6c-8 -5 -13 -9 -23 -9c-17 0 -30 12 -30 28c0 43 85 80 174 80c152 0 222 -100 222 -253z" />
    <glyph glyph-name="uni042E" unicode="&#x42e;" horiz-adv-x="758" 
d="M499 -9c-144 0 -217 108 -217 243v89h-138v-298c0 -19 -14 -34 -33 -34c-18 0 -34 15 -34 34v658c0 17 16 33 34 33c19 0 33 -16 33 -33v-297h138v87c0 133 61 243 217 243s217 -110 217 -243v-239c0 -135 -73 -243 -217 -243zM499 652c-111 0 -151 -72 -151 -179v-239
c0 -105 48 -179 151 -179c104 0 151 74 151 179v239c0 107 -40 179 -151 179z" />
    <glyph glyph-name="uni042F" unicode="&#x42f;" horiz-adv-x="561" 
d="M76 509c0 97 52 196 215 196h158c21 0 38 -19 38 -42v-637c0 -20 -14 -35 -31 -35c-19 0 -35 16 -35 35v292h-109l-182 -311c-6 -9 -17 -15 -28 -15c-13 0 -37 13 -37 30c0 7 2 15 5 20l168 278c-100 19 -162 84 -162 189zM142 509c0 -84 52 -128 147 -128h132v260h-126
c-125 0 -153 -69 -153 -132z" />
    <glyph glyph-name="uni0430" unicode="&#x430;" horiz-adv-x="482" 
d="M335 272v69c0 81 -38 119 -117 119c-37 0 -58 -8 -81 -22c-6 -4 -14 -8 -24 -8c-15 0 -21 14 -22 26c-4 42 70 59 137 59c123 0 172 -70 172 -201v-226c0 -26 9 -39 27 -39c4 0 6 1 8 1c15 0 22 -14 22 -27c0 -20 -20 -27 -38 -27c-31 0 -58 22 -76 57
c-42 -40 -89 -60 -143 -60c-101 0 -150 60 -150 147v4c0 96 57 146 174 146c34 0 72 -7 111 -18zM223 237c-92 0 -109 -43 -109 -94v-4c0 -52 23 -90 99 -90c46 0 83 16 122 49v120c-40 13 -82 19 -112 19z" />
    <glyph glyph-name="uni0431" unicode="&#x431;" horiz-adv-x="465" 
d="M50 484c0 127 59 202 198 216c7 1 14 2 18 2c23 1 36 1 91 27c2 1 7 3 11 3c16 0 28 -14 28 -30c0 -47 -99 -55 -149 -59c-47 -4 -132 -14 -132 -153v-77c36 46 81 73 136 73c106 0 169 -77 169 -176v-142c0 -99 -64 -175 -185 -175c-120 0 -185 76 -185 175v316zM235 52
c80 0 120 44 120 116v143c0 72 -35 117 -114 117c-78 0 -124 -43 -126 -112v-148c0 -72 41 -116 120 -116z" />
    <glyph glyph-name="uni0432" unicode="&#x432;" horiz-adv-x="468" 
d="M413 368c0 -49 -26 -86 -87 -109c68 -25 97 -65 97 -120c0 -81 -54 -138 -163 -138h-148c-19 0 -33 14 -33 32v440c0 18 14 33 33 33h138c110 0 163 -58 163 -138zM359 142c0 44 -18 89 -112 89h-103v-176h114c67 0 101 26 101 87zM144 452v-169h106c83 0 99 42 99 81
c0 62 -35 88 -101 88h-104z" />
    <glyph glyph-name="uni0433" unicode="&#x433;" horiz-adv-x="372" 
d="M144 449v-424c0 -18 -15 -32 -32 -32c-19 0 -33 14 -33 32v452c0 17 13 29 30 29h232c15 0 29 -12 29 -29c0 -15 -13 -28 -29 -28h-197z" />
    <glyph glyph-name="uni0434" unicode="&#x434;" horiz-adv-x="538" 
d="M418 506c18 0 32 -15 32 -33v-419h36c18 0 32 -15 32 -33v-132c0 -18 -14 -32 -32 -32s-33 14 -33 32v112h-361v-112c0 -18 -15 -32 -32 -32c-19 0 -33 14 -33 32v132c0 18 14 33 33 33h22c35 35 53 109 58 210l9 209c3 25 20 33 32 33h237zM201 264
c-3 -84 -20 -156 -53 -210h237v399h-177z" />
    <glyph glyph-name="uni0435" unicode="&#x435;" horiz-adv-x="433" 
d="M236 48c46 0 74 13 110 29c2 1 7 3 11 3c16 0 28 -14 28 -28c0 -45 -106 -59 -159 -59c-112 0 -176 71 -176 163v192c0 95 64 167 182 167c109 0 162 -63 162 -160c0 -90 -49 -145 -166 -145c-33 0 -74 3 -113 11v-71c0 -61 41 -102 121 -102zM330 355
c0 73 -37 103 -101 103c-72 0 -114 -40 -114 -102v-85c43 -6 96 -8 117 -8c84 0 98 45 98 92z" />
    <glyph glyph-name="uni0436" unicode="&#x436;" horiz-adv-x="608" 
d="M341 25c0 -18 -15 -32 -32 -32c-19 0 -33 14 -33 32v211h-50l-140 -228c-7 -9 -17 -15 -27 -15c-17 0 -30 10 -31 26c0 5 2 14 5 19l131 213l-133 218c-3 3 -3 10 -3 15c1 17 14 27 31 27c10 0 20 -5 27 -16l127 -206h63v190c0 18 14 33 33 33c17 0 32 -15 32 -33v-190
h62l128 206c6 11 17 16 27 16c18 0 30 -10 31 -27h-1c0 -7 -1 -15 -4 -19l-131 -214l131 -213c3 -4 4 -13 4 -19h1c-1 -16 -13 -26 -31 -26c-11 0 -21 6 -27 15l-140 228h-50v-211z" />
    <glyph glyph-name="uni0437" unicode="&#x437;" horiz-adv-x="408" 
d="M353 375c0 -61 -26 -104 -93 -116v-1c73 -13 104 -58 104 -125c0 -85 -55 -140 -168 -140c-52 0 -152 10 -152 52c0 13 9 29 34 29c2 0 3 0 4 -1c27 -11 67 -25 117 -25c65 0 102 25 102 90c0 31 -8 84 -128 91c-20 1 -43 3 -43 28c0 23 21 24 41 26
c107 10 120 65 120 97c0 52 -31 80 -102 80c-51 0 -79 -24 -105 -24c-17 0 -29 13 -29 28c0 39 84 51 137 51c108 0 161 -57 161 -140z" />
    <glyph glyph-name="uni0438" unicode="&#x438;" horiz-adv-x="530" 
d="M116 -9c-22 0 -38 16 -38 37v450c0 19 14 35 32 35c19 0 33 -16 33 -35v-374l243 388c8 13 21 21 37 21c20 0 35 -16 35 -38v-450c0 -19 -15 -34 -32 -34c-19 0 -33 15 -33 34v373l-241 -388c-8 -11 -21 -19 -36 -19z" />
    <glyph glyph-name="uni0439" unicode="&#x439;" horiz-adv-x="530" 
d="M116 -9c-22 0 -38 16 -38 37v450c0 19 14 35 32 35c19 0 33 -16 33 -35v-374l243 388c8 13 21 21 37 21c20 0 35 -16 35 -38v-450c0 -19 -15 -34 -32 -34c-19 0 -33 15 -33 34v373l-241 -388c-8 -11 -21 -19 -36 -19zM267 632c24 0 49 13 72 45c7 10 16 14 25 14
c13 0 25 -8 19 -29c-14 -50 -72 -77 -116 -77c-43 0 -108 26 -118 77c-4 18 10 29 21 29c9 0 18 -4 24 -14c24 -32 46 -45 73 -45z" />
    <glyph glyph-name="uni043A" unicode="&#x43a;" horiz-adv-x="436" 
d="M144 25c0 -18 -15 -32 -32 -32c-19 0 -33 14 -33 32v454c0 18 14 33 33 33c17 0 32 -15 32 -33v-190h75l136 206c7 11 16 16 27 16c17 0 30 -10 30 -27c0 -7 -2 -14 -5 -19l-144 -214l144 -213c3 -4 6 -14 6 -19c1 -16 -14 -26 -31 -26c-12 0 -21 5 -27 15l-151 228h-60
v-211z" />
    <glyph glyph-name="uni043B" unicode="&#x43b;" horiz-adv-x="524" 
d="M453 25c0 -18 -14 -32 -32 -32c-19 0 -33 14 -33 32v428h-177l-24 -291c-8 -100 -40 -166 -116 -166c-28 0 -56 1 -56 28c0 22 15 32 31 32h6c2 0 3 -1 7 -1c41 0 61 32 66 99l27 318c3 25 20 34 32 34h237c18 0 32 -15 32 -33v-448z" />
    <glyph glyph-name="uni043C" unicode="&#x43c;" horiz-adv-x="640" 
d="M325 87h-2c-14 0 -25 8 -32 20l-150 268v-350c0 -18 -14 -32 -32 -32c-17 0 -31 14 -31 32v451c0 21 15 36 36 36c15 0 25 -10 34 -23l176 -322l176 322c8 13 19 23 34 23c20 0 35 -15 35 -36v-451c0 -18 -14 -32 -31 -32c-18 0 -33 14 -33 32v350l-148 -268
c-7 -12 -19 -20 -32 -20z" />
    <glyph glyph-name="uni043D" unicode="&#x43d;" horiz-adv-x="514" 
d="M143 25c0 -18 -14 -32 -32 -32s-33 14 -33 32v454c0 18 15 33 33 33s32 -15 32 -33v-190h234v190c0 18 15 33 33 33s32 -15 32 -33v-454c0 -18 -14 -32 -32 -32s-33 14 -33 32v211h-234v-211z" />
    <glyph glyph-name="uni043E" unicode="&#x43e;" horiz-adv-x="465" 
d="M235 -7c-120 0 -185 76 -185 175v172c0 99 65 176 185 176c121 0 185 -77 185 -176v-172c0 -99 -64 -175 -185 -175zM235 52c80 0 120 44 120 116v173c0 72 -40 117 -120 117c-79 0 -120 -45 -120 -117v-173c0 -72 41 -116 120 -116z" />
    <glyph glyph-name="uni043F" unicode="&#x43f;" horiz-adv-x="504" 
d="M143 25c0 -18 -14 -32 -31 -32c-19 0 -33 14 -33 32v448c0 18 14 33 33 33h288c18 0 32 -15 32 -33v-448c0 -18 -14 -32 -32 -32s-33 14 -33 32v428h-224v-428z" />
    <glyph glyph-name="uni0440" unicode="&#x440;" horiz-adv-x="478" 
d="M270 -6c-36 0 -81 8 -122 21v-199c0 -17 -12 -31 -32 -31c-22 0 -33 14 -33 31v557c0 35 -4 56 -18 76c-4 5 -6 11 -6 17c0 17 14 29 29 29c13 0 27 -12 38 -28c50 27 102 48 153 48c103 0 155 -76 155 -187v-134c0 -118 -39 -200 -164 -200zM148 373v-301
c36 -16 84 -24 112 -24c80 0 109 45 109 146v134c0 85 -34 131 -107 131c-36 0 -80 -16 -119 -40c3 -15 5 -30 5 -46z" />
    <glyph glyph-name="uni0441" unicode="&#x441;" horiz-adv-x="390" 
d="M50 174v156c0 102 54 182 178 182c45 0 135 -12 135 -55c0 -15 -12 -27 -27 -27c-6 0 -10 1 -15 2h1c-25 13 -49 25 -86 25c-87 0 -121 -47 -121 -127v-156c0 -79 34 -126 121 -126c39 0 62 12 86 24h-1c7 2 11 3 15 3c15 0 27 -13 27 -28c0 -42 -90 -54 -135 -54
c-124 0 -178 79 -178 181z" />
    <glyph glyph-name="uni0442" unicode="&#x442;" horiz-adv-x="408" 
d="M239 445v-420c0 -18 -14 -32 -32 -32s-33 14 -33 32v420h-114c-17 0 -30 14 -30 30c0 18 13 31 30 31h294c17 0 29 -13 29 -31c0 -16 -12 -30 -29 -30h-115z" />
    <glyph glyph-name="uni0443" unicode="&#x443;" horiz-adv-x="412" 
d="M399 469l-126 -409c-46 -146 -92 -262 -215 -262c-20 0 -34 13 -34 31c0 15 11 30 30 31c71 3 100 37 133 135l-164 476c-3 3 -3 8 -3 11c0 18 15 30 33 30c12 0 24 -9 29 -21l136 -415c36 127 84 287 120 415c6 11 18 21 30 21c16 0 32 -13 32 -33c0 -5 -1 -8 -1 -10z
" />
    <glyph glyph-name="uni0444" unicode="&#x444;" horiz-adv-x="585" 
d="M262 -189v182c-140 0 -213 98 -213 227v78c0 124 73 217 213 217v185c0 17 15 33 33 33s32 -15 32 -33v-185c143 0 216 -93 216 -217v-78c0 -129 -73 -227 -214 -227l-2 -182c0 -17 -14 -32 -32 -32s-33 15 -33 32zM338 457h-11v-405c101 0 151 64 151 168v79
c0 97 -47 158 -140 158zM262 52v405c-99 0 -148 -61 -148 -158v-79c0 -104 49 -168 148 -168z" />
    <glyph glyph-name="uni0445" unicode="&#x445;" horiz-adv-x="431" 
d="M184 259l-138 207c-3 4 -4 9 -4 15c0 18 17 31 31 31c16 0 23 -9 32 -23l115 -178l115 178c9 14 16 23 32 23c14 0 31 -13 31 -31c0 -6 -1 -11 -4 -15l-138 -207l148 -219c2 -3 3 -9 3 -13c0 -19 -14 -34 -33 -34c-16 0 -22 7 -33 23l-123 189l-128 -196
c-7 -11 -15 -16 -26 -16c-19 0 -34 13 -34 32c0 5 1 8 4 13z" />
    <glyph glyph-name="uni0446" unicode="&#x446;" horiz-adv-x="529" 
d="M442 479v-425h36c17 0 32 -15 32 -33v-132c0 -18 -15 -32 -32 -32c-19 0 -33 14 -33 32v112h-334c-19 0 -33 14 -33 32v446c0 19 14 33 33 33c17 0 32 -14 32 -33v-425h234v425c0 19 14 33 33 33c17 0 32 -14 32 -33z" />
    <glyph glyph-name="uni0447" unicode="&#x447;" horiz-adv-x="468" 
d="M115 479v-145c0 -46 13 -92 99 -92c22 0 72 6 115 16v221c0 18 15 33 33 33s32 -15 32 -33v-454c0 -18 -14 -32 -32 -32s-33 14 -33 32v180c-40 -10 -80 -15 -112 -15c-117 0 -167 54 -167 144v145c0 18 15 33 33 33s32 -15 32 -33z" />
    <glyph glyph-name="uni0448" unicode="&#x448;" horiz-adv-x="705" 
d="M637 479v-446c0 -18 -15 -32 -32 -32h-495c-19 0 -33 14 -33 32v446c0 19 14 33 33 33c17 0 32 -14 32 -33v-425h182v425c0 18 15 33 33 33s32 -15 32 -33v-425h183v425c0 19 14 33 33 33c17 0 32 -14 32 -33z" />
    <glyph glyph-name="uni0449" unicode="&#x449;" horiz-adv-x="718" 
d="M636 479v-425h36c18 0 32 -15 32 -33v-132c0 -18 -14 -32 -32 -32s-33 14 -33 32v112h-530c-18 0 -33 14 -33 32v446c0 19 15 33 33 33s32 -14 32 -33v-425h183v425c0 18 14 33 33 33c17 0 32 -15 32 -33v-425h182v425c0 19 15 33 33 33s32 -14 32 -33z" />
    <glyph glyph-name="uni044A" unicode="&#x44a;" horiz-adv-x="528" 
d="M136 449h-92c-17 0 -30 13 -30 28c0 17 14 29 30 29h128c17 0 29 -12 29 -29v-183h114c124 0 176 -54 176 -150c0 -84 -54 -143 -163 -143h-159c-18 0 -33 14 -33 32v416zM315 241h-114v-186h125c66 0 101 28 101 92c0 46 -18 94 -112 94z" />
    <glyph glyph-name="uni044B" unicode="&#x44b;" horiz-adv-x="654" 
d="M142 479v-185h114c124 0 176 -54 176 -150c0 -84 -54 -143 -163 -143h-159c-18 0 -33 14 -33 32v446c0 18 15 33 33 33s32 -15 32 -33zM584 25c0 -18 -14 -32 -32 -32s-32 14 -32 32v454c0 18 14 33 32 33s32 -15 32 -33v-454zM256 241h-114v-186h125c66 0 101 28 101 92
c0 46 -18 94 -112 94z" />
    <glyph glyph-name="uni044C" unicode="&#x44c;" horiz-adv-x="472" 
d="M143 479v-185h114c125 0 176 -54 176 -150c0 -84 -54 -143 -163 -143h-159c-18 0 -32 14 -32 32v446c0 18 14 33 32 33s32 -15 32 -33zM257 241h-114v-186h125c66 0 101 28 101 92c0 46 -17 94 -112 94z" />
    <glyph glyph-name="uni044D" unicode="&#x44d;" horiz-adv-x="393" 
d="M282 227h-165c-17 0 -30 12 -30 28s13 28 30 28h165v36c0 87 -31 138 -110 138c-41 0 -68 -13 -97 -25h1c-4 -1 -8 -2 -14 -2c-15 0 -28 12 -28 27c0 43 97 55 147 55c115 0 165 -84 165 -193v-135c0 -108 -50 -191 -165 -191c-50 0 -147 12 -147 54c0 15 13 28 28 28
c4 0 8 -1 14 -3h-1c28 -12 54 -24 97 -24c79 0 110 51 110 136v43z" />
    <glyph glyph-name="uni044E" unicode="&#x44e;" horiz-adv-x="681" 
d="M142 25c0 -18 -15 -32 -32 -32c-19 0 -33 14 -33 32v454c0 18 14 33 33 33c17 0 32 -15 32 -33v-190h129v50c0 99 65 176 185 176c121 0 185 -77 185 -176v-171c0 -99 -64 -175 -185 -175c-120 0 -185 76 -185 175v68h-129v-211zM456 52c80 0 120 44 120 116v172
c0 72 -40 117 -120 117c-79 0 -120 -45 -120 -117v-172c0 -72 41 -116 120 -116z" />
    <glyph glyph-name="uni044F" unicode="&#x44f;" horiz-adv-x="487" 
d="M382 -7c-19 0 -33 14 -33 32v188h-101c-42 -65 -90 -141 -135 -205c-7 -9 -17 -15 -27 -15c-17 0 -30 10 -31 26c0 4 2 15 5 19l120 178c-86 19 -121 69 -121 146c0 85 55 144 164 144h159c17 0 32 -15 32 -33v-448c0 -18 -15 -32 -32 -32zM123 359c0 -45 18 -93 114 -93
h112v186h-124c-66 0 -102 -29 -102 -93z" />
    <glyph glyph-name="uni0450" unicode="&#x450;" horiz-adv-x="433" 
d="M236 48c46 0 74 13 110 29c2 1 7 3 11 3c16 0 28 -14 28 -28c0 -45 -106 -59 -159 -59c-112 0 -176 71 -176 163v192c0 95 64 167 182 167c109 0 162 -63 162 -160c0 -90 -49 -145 -166 -145c-33 0 -74 3 -113 11v-71c0 -61 41 -102 121 -102zM330 355
c0 73 -37 103 -101 103c-72 0 -114 -40 -114 -102v-85c43 -6 96 -8 117 -8c84 0 98 45 98 92zM175 716l86 -91c3 -3 4 -7 4 -10c0 -16 -13 -28 -26 -28c-11 0 -19 6 -28 16l-81 88c-3 4 -4 9 -4 12c0 15 13 27 24 27s16 -6 25 -14z" />
    <glyph glyph-name="uni0451" unicode="&#x451;" horiz-adv-x="433" 
d="M236 48c46 0 74 13 110 29c2 1 7 3 11 3c16 0 28 -14 28 -28c0 -45 -106 -59 -159 -59c-112 0 -176 71 -176 163v192c0 95 64 167 182 167c109 0 162 -63 162 -160c0 -90 -49 -145 -166 -145c-33 0 -74 3 -113 11v-71c0 -61 41 -102 121 -102zM330 355
c0 73 -37 103 -101 103c-72 0 -114 -40 -114 -102v-85c43 -6 96 -8 117 -8c84 0 98 45 98 92zM366 646c0 -24 -18 -42 -40 -42s-42 19 -42 42c0 21 20 41 42 41s40 -19 40 -41zM193 646c0 -24 -18 -42 -41 -42c-22 0 -40 19 -40 42c0 21 18 41 40 41c23 0 41 -19 41 -41z
" />
    <glyph glyph-name="uni0452" unicode="&#x452;" horiz-adv-x="582" 
d="M445 14v285c0 83 -28 126 -97 126c-43 0 -93 -21 -127 -66v-334c0 -18 -14 -32 -31 -32c-19 0 -33 14 -33 32v563h-97c-18 0 -31 13 -31 29c0 17 13 31 31 31h97v58c0 16 13 33 32 33c17 0 32 -14 32 -33v-58h95c17 0 29 -14 29 -31c0 -16 -12 -29 -29 -29h-95v-156
c42 33 90 52 137 52c105 0 152 -76 152 -184v-281c0 -128 -52 -210 -138 -227c-8 -1 -12 0 -19 0c-12 0 -23 8 -26 20c-5 23 14 33 28 36c57 18 90 62 90 166z" />
    <glyph glyph-name="uni0453" unicode="&#x453;" horiz-adv-x="372" 
d="M144 449v-424c0 -18 -15 -32 -32 -32c-19 0 -33 14 -33 32v452c0 17 13 29 30 29h232c15 0 29 -12 29 -29c0 -15 -13 -28 -29 -28h-197zM200 625l87 91c6 6 13 14 23 14c14 0 25 -14 25 -27c0 -4 -1 -9 -3 -12l-82 -87c-10 -10 -16 -17 -27 -17c-15 0 -27 13 -27 28
c0 4 1 6 4 10z" />
    <glyph glyph-name="uni0454" unicode="&#x454;" horiz-adv-x="390" 
d="M281 227h-166v-43c0 -85 31 -136 111 -136c43 0 69 12 96 24h-1c7 2 11 3 15 3c15 0 27 -13 27 -28c0 -42 -97 -54 -146 -54c-116 0 -167 83 -167 191v135c0 109 51 193 167 193c49 0 146 -12 146 -55c0 -15 -12 -27 -27 -27c-6 0 -10 1 -15 2h1c-28 12 -55 25 -96 25
c-80 0 -111 -51 -111 -138v-36h166c17 0 29 -12 29 -28s-12 -28 -29 -28z" />
    <glyph glyph-name="uni0455" unicode="&#x455;" horiz-adv-x="416" 
d="M59 374c0 85 55 141 159 141c51 0 129 -12 129 -50c0 -16 -12 -29 -29 -29c-6 0 -10 2 -15 4c-23 11 -43 20 -82 20c-68 0 -99 -28 -99 -81c0 -36 14 -54 53 -75c79 -39 187 -49 187 -169c0 -88 -56 -142 -165 -142c-51 0 -145 10 -145 51c0 15 12 30 31 30c2 0 3 0 6 -1
c30 -12 63 -25 108 -25c61 0 102 25 102 84c0 42 -19 61 -41 73c-78 39 -199 49 -199 169z" />
    <glyph glyph-name="uni0456" unicode="&#x456;" horiz-adv-x="245" 
d="M165 681c0 -22 -19 -41 -41 -41c-24 0 -42 19 -42 41c0 24 18 42 42 42c22 0 41 -18 41 -42zM156 25c0 -18 -15 -32 -32 -32c-19 0 -33 14 -33 32v454c0 18 14 33 33 33c17 0 32 -15 32 -33v-454z" />
    <glyph glyph-name="uni0457" unicode="&#x457;" horiz-adv-x="245" 
d="M156 25c0 -18 -15 -32 -32 -32c-19 0 -33 14 -33 32v454c0 18 14 33 33 33c17 0 32 -15 32 -33v-454zM267 631c0 -27 -21 -48 -46 -48c-26 0 -48 22 -48 48c0 24 22 46 48 46c25 0 46 -21 46 -46zM73 631c0 -27 -20 -48 -46 -48s-46 22 -46 48c0 24 20 46 46 46
s46 -21 46 -46z" />
    <glyph glyph-name="uni0458" unicode="&#x458;" horiz-adv-x="245" 
d="M170 479v-502c0 -101 -54 -171 -139 -185c-8 -1 -12 0 -18 0c-12 0 -24 8 -27 20c-5 23 12 33 25 35c60 14 94 46 94 126v506c0 18 14 33 33 33c17 0 32 -15 32 -33zM179 681c0 -22 -19 -41 -41 -41c-24 0 -43 19 -43 41c0 24 19 42 43 42c22 0 41 -18 41 -42z" />
    <glyph glyph-name="uni0459" unicode="&#x459;" horiz-adv-x="737" 
d="M404 506c17 0 32 -15 32 -33v-179h92c125 0 177 -54 177 -150c0 -84 -54 -143 -163 -143h-138c-19 0 -33 14 -33 32v420h-157l-24 -291c-8 -100 -40 -166 -116 -166c-28 0 -56 1 -56 28c0 22 16 32 31 32h6c2 0 3 -1 7 -1c42 0 61 32 66 99l27 318c3 25 20 34 32 34h217z
M528 241h-92v-186h104c66 0 101 28 101 92c0 46 -18 94 -113 94z" />
    <glyph glyph-name="uni045A" unicode="&#x45a;" horiz-adv-x="722" 
d="M142 25c0 -18 -15 -32 -32 -32c-19 0 -33 14 -33 32v454c0 18 14 33 33 33c17 0 32 -15 32 -33v-190h213v190c0 18 14 33 33 33c17 0 32 -15 32 -33v-190h93c124 0 176 -52 176 -145c0 -84 -54 -143 -163 -143h-138c-19 0 -33 14 -33 32v203h-213v-211zM513 236h-93v-181
h104c67 0 101 28 101 92c0 44 -18 89 -112 89z" />
    <glyph glyph-name="uni045B" unicode="&#x45b;" horiz-adv-x="582" 
d="M345 617c0 -16 -12 -29 -29 -29h-95v-156c42 33 90 52 137 52c105 0 152 -68 152 -163v-296c0 -18 -14 -32 -32 -32s-33 14 -33 32v294c0 70 -28 106 -97 106c-43 0 -93 -21 -127 -66v-334c0 -18 -14 -32 -31 -32c-19 0 -33 14 -33 32v563h-97c-18 0 -31 13 -31 29
c0 17 13 31 31 31h97v58c0 16 13 33 32 33c17 0 32 -14 32 -33v-58h95c17 0 29 -14 29 -31z" />
    <glyph glyph-name="uni045C" unicode="&#x45c;" horiz-adv-x="436" 
d="M144 25c0 -18 -15 -32 -32 -32c-19 0 -33 14 -33 32v454c0 18 14 33 33 33c17 0 32 -15 32 -33v-190h75l136 206c7 11 16 16 27 16c17 0 30 -10 30 -27c0 -7 -2 -14 -5 -19l-144 -214l144 -213c3 -4 6 -14 6 -19c1 -16 -14 -26 -31 -26c-12 0 -21 5 -27 15l-151 228h-60
v-211zM220 625l87 91c6 6 13 14 23 14c14 0 25 -14 25 -27c0 -4 -1 -9 -3 -12l-82 -87c-10 -10 -16 -17 -27 -17c-15 0 -27 13 -27 28c0 4 1 6 4 10z" />
    <glyph glyph-name="uni045D" unicode="&#x45d;" horiz-adv-x="530" 
d="M116 -9c-22 0 -38 16 -38 37v450c0 19 14 35 32 35c19 0 33 -16 33 -35v-374l243 388c8 13 21 21 37 21c20 0 35 -16 35 -38v-450c0 -19 -15 -34 -32 -34c-19 0 -33 15 -33 34v373l-241 -388c-8 -11 -21 -19 -36 -19zM221 716l86 -91c3 -3 4 -7 4 -10
c0 -16 -13 -28 -26 -28c-11 0 -19 6 -28 16l-81 88c-3 4 -4 9 -4 12c0 15 13 27 24 27s16 -6 25 -14z" />
    <glyph glyph-name="uni045E" unicode="&#x45e;" horiz-adv-x="412" 
d="M399 469l-126 -409c-46 -146 -92 -262 -215 -262c-20 0 -34 13 -34 31c0 15 11 30 30 31c71 3 100 37 133 135l-164 476c-3 3 -3 8 -3 11c0 18 15 30 33 30c12 0 24 -9 29 -21l136 -415c36 127 84 287 120 415c6 11 18 21 30 21c16 0 32 -13 32 -33c0 -5 -1 -8 -1 -10z
M208 632c24 0 49 13 72 45c7 10 16 14 25 14c13 0 25 -8 19 -29c-14 -50 -72 -77 -116 -77c-43 0 -108 26 -118 77c-4 18 10 29 21 29c9 0 18 -4 24 -14c24 -32 46 -45 73 -45z" />
    <glyph glyph-name="uni045F" unicode="&#x45f;" horiz-adv-x="504" 
d="M288 -111c0 -18 -15 -32 -32 -32c-19 0 -33 14 -33 32v112h-111c-19 0 -33 14 -33 32v448c0 19 14 33 33 33c17 0 31 -14 31 -33v-427h224v427c0 19 15 33 33 33s32 -14 32 -33v-448c0 -18 -14 -32 -32 -32h-112v-112z" />
    <glyph glyph-name="uni0462" unicode="&#x462;" horiz-adv-x="644" 
d="M456 623c0 -17 -15 -31 -33 -31h-188v-171h125c135 0 222 -75 222 -208c0 -111 -58 -212 -222 -212h-150c-22 0 -42 18 -42 41v550h-105c-19 0 -34 15 -34 30c0 17 16 34 34 34h105v78c0 17 16 33 34 33s33 -16 33 -33v-78h188c17 0 33 -14 33 -33zM235 65h125
c127 0 156 75 156 147c0 98 -53 145 -156 145h-125v-292z" />
    <glyph glyph-name="uni0463" unicode="&#x463;" horiz-adv-x="582" 
d="M345 566c0 -17 -12 -29 -29 -29h-94v-192h113c124 0 176 -62 176 -168s-53 -176 -163 -176h-158c-19 0 -33 14 -33 32v504h-97c-18 0 -31 13 -31 30c0 16 13 30 31 30h97v99c0 18 14 33 33 33c17 0 32 -15 32 -33v-99h94c17 0 29 -15 29 -31zM335 293h-113v-238h124
c66 0 101 39 101 121c0 57 -16 117 -112 117z" />
    <glyph glyph-name="uni0490" unicode="&#x490;" horiz-adv-x="430" 
d="M79 668c0 20 16 39 39 39h243v100c0 18 15 34 34 34c18 0 32 -16 32 -34v-133c0 -17 -14 -31 -31 -31h-251v-618c0 -18 -14 -33 -32 -33c-19 0 -34 15 -34 33v643z" />
    <glyph glyph-name="uni0491" unicode="&#x491;" horiz-adv-x="375" 
d="M308 506v107c0 19 14 33 33 33c17 0 32 -14 32 -33v-132c0 -17 -15 -32 -32 -32h-197v-424c0 -18 -15 -32 -32 -32c-19 0 -33 14 -33 32v452c0 17 13 29 30 29h199z" />
    <glyph glyph-name="Wgrave" unicode="&#x1e80;" horiz-adv-x="776" 
d="M517 33l-125 554c-37 -167 -89 -389 -126 -555c-6 -18 -19 -41 -47 -41c-25 0 -41 18 -48 41l-153 648v4c0 18 21 28 39 28c12 0 25 -10 30 -24l134 -578l125 552c8 33 18 54 46 54c27 0 38 -22 45 -54l127 -553l133 579c5 14 15 24 27 24c18 0 41 -9 41 -29
c0 -1 0 -6 -1 -9v-1l-152 -641c-6 -21 -22 -41 -47 -41c-26 0 -42 21 -48 42zM368 916l86 -91c3 -3 4 -7 4 -10c0 -16 -13 -28 -26 -28c-11 0 -19 6 -28 16l-81 88c-3 4 -4 9 -4 12c0 15 13 27 24 27s16 -6 25 -14z" />
    <glyph glyph-name="wgrave" unicode="&#x1e81;" horiz-adv-x="655" 
d="M636 477l-119 -444c-8 -26 -18 -40 -44 -40c-17 0 -34 11 -40 29l-99 389c-29 -117 -66 -273 -100 -389c-5 -18 -20 -29 -41 -29c-23 0 -38 16 -45 40l-120 446v2c0 16 14 31 33 31c12 0 25 -10 30 -23l103 -403c39 142 70 272 101 395c5 17 18 31 39 31
c19 0 32 -14 37 -31c23 -98 50 -200 102 -395l102 403c3 13 17 23 30 23c17 0 31 -14 31 -33v-2zM308 716l86 -91c3 -3 4 -7 4 -10c0 -16 -13 -28 -26 -28c-11 0 -19 6 -28 16l-81 88c-3 4 -4 9 -4 12c0 15 13 27 24 27s16 -6 25 -14z" />
    <glyph glyph-name="Wacute" unicode="&#x1e82;" horiz-adv-x="776" 
d="M517 33l-125 554c-37 -167 -89 -389 -126 -555c-6 -18 -19 -41 -47 -41c-25 0 -41 18 -48 41l-153 648v4c0 18 21 28 39 28c12 0 25 -10 30 -24l134 -578l125 552c8 33 18 54 46 54c27 0 38 -22 45 -54l127 -553l133 579c5 14 15 24 27 24c18 0 41 -9 41 -29
c0 -1 0 -6 -1 -9v-1l-152 -641c-6 -21 -22 -41 -47 -41c-26 0 -42 21 -48 42zM323 825l87 91c6 6 13 14 23 14c14 0 25 -14 25 -27c0 -4 -1 -9 -3 -12l-82 -87c-10 -10 -16 -17 -27 -17c-15 0 -27 13 -27 28c0 4 1 6 4 10z" />
    <glyph glyph-name="wacute" unicode="&#x1e83;" horiz-adv-x="655" 
d="M636 477l-119 -444c-8 -26 -18 -40 -44 -40c-17 0 -34 11 -40 29l-99 389c-29 -117 -66 -273 -100 -389c-5 -18 -20 -29 -41 -29c-23 0 -38 16 -45 40l-120 446v2c0 16 14 31 33 31c12 0 25 -10 30 -23l103 -403c39 142 70 272 101 395c5 17 18 31 39 31
c19 0 32 -14 37 -31c23 -98 50 -200 102 -395l102 403c3 13 17 23 30 23c17 0 31 -14 31 -33v-2zM263 625l87 91c6 6 13 14 23 14c14 0 25 -14 25 -27c0 -4 -1 -9 -3 -12l-82 -87c-10 -10 -16 -17 -27 -17c-15 0 -27 13 -27 28c0 4 1 6 4 10z" />
    <glyph glyph-name="Wdieresis" unicode="&#x1e84;" horiz-adv-x="776" 
d="M517 33l-125 554c-37 -167 -89 -389 -126 -555c-6 -18 -19 -41 -47 -41c-25 0 -41 18 -48 41l-153 648v4c0 18 21 28 39 28c12 0 25 -10 30 -24l134 -578l125 552c8 33 18 54 46 54c27 0 38 -22 45 -54l127 -553l133 579c5 14 15 24 27 24c18 0 41 -9 41 -29
c0 -1 0 -6 -1 -9v-1l-152 -641c-6 -21 -22 -41 -47 -41c-26 0 -42 21 -48 42zM516 846c0 -24 -18 -42 -40 -42s-42 19 -42 42c0 21 20 41 42 41s40 -19 40 -41zM343 846c0 -24 -18 -42 -41 -42c-22 0 -40 19 -40 42c0 21 18 41 40 41c23 0 41 -19 41 -41z" />
    <glyph glyph-name="wdieresis" unicode="&#x1e85;" horiz-adv-x="655" 
d="M636 477l-119 -444c-8 -26 -18 -40 -44 -40c-17 0 -34 11 -40 29l-99 389c-29 -117 -66 -273 -100 -389c-5 -18 -20 -29 -41 -29c-23 0 -38 16 -45 40l-120 446v2c0 16 14 31 33 31c12 0 25 -10 30 -23l103 -403c39 142 70 272 101 395c5 17 18 31 39 31
c19 0 32 -14 37 -31c23 -98 50 -200 102 -395l102 403c3 13 17 23 30 23c17 0 31 -14 31 -33v-2zM456 646c0 -24 -18 -42 -40 -42s-42 19 -42 42c0 21 20 41 42 41s40 -19 40 -41zM283 646c0 -24 -18 -42 -41 -42c-22 0 -40 19 -40 42c0 21 18 41 40 41c23 0 41 -19 41 -41z
" />
    <glyph glyph-name="Ygrave" unicode="&#x1ef2;" horiz-adv-x="476" 
d="M241 -9c-20 0 -35 15 -35 35v253l-182 386c-2 5 -4 12 -4 17c0 18 17 34 35 34c9 0 19 -4 24 -13v1l162 -351l161 351v-1c5 9 15 13 25 13c17 0 33 -16 33 -34c0 -5 -2 -13 -3 -17l-183 -390v-249c0 -19 -14 -35 -33 -35zM189 916l86 -91c3 -3 4 -7 4 -10
c0 -16 -13 -28 -26 -28c-11 0 -19 6 -28 16l-81 88c-3 4 -4 9 -4 12c0 15 13 27 24 27s16 -6 25 -14z" />
    <glyph glyph-name="ygrave" unicode="&#x1ef3;" horiz-adv-x="412" 
d="M399 469l-126 -409c-46 -146 -92 -262 -215 -262c-20 0 -34 13 -34 31c0 15 11 30 30 31c71 3 100 37 133 135l-164 476c-3 3 -3 8 -3 11c0 18 15 30 33 30c12 0 24 -9 29 -21l136 -415c36 127 84 287 120 415c6 11 18 21 30 21c16 0 32 -13 32 -33c0 -5 -1 -8 -1 -10z
M186 716l86 -91c3 -3 4 -7 4 -10c0 -16 -13 -28 -26 -28c-11 0 -19 6 -28 16l-81 88c-3 4 -4 9 -4 12c0 15 13 27 24 27s16 -6 25 -14z" />
    <glyph glyph-name="endash" unicode="&#x2013;" horiz-adv-x="431" 
d="M390 286c0 -16 -13 -29 -30 -29h-286c-17 0 -30 13 -30 29s13 31 30 31h286c17 0 30 -15 30 -31z" />
    <glyph glyph-name="emdash" unicode="&#x2014;" horiz-adv-x="530" 
d="M492 286c0 -16 -14 -29 -30 -29h-388c-18 0 -31 13 -31 29s13 31 31 31h388c16 0 30 -15 30 -31z" />
    <glyph glyph-name="quoteleft" unicode="&#x2018;" horiz-adv-x="230" 
d="M68 566c0 65 45 160 71 160c6 0 11 -2 11 -10c0 -16 -7 -28 -16 -44c-8 -12 -14 -20 -23 -56c30 -3 51 -23 51 -50c0 -26 -20 -46 -47 -46c-25 0 -47 20 -47 46z" />
    <glyph glyph-name="quoteright" unicode="&#x2019;" horiz-adv-x="230" 
d="M162 679c0 -65 -45 -159 -69 -159c-6 0 -13 2 -13 9c0 15 9 28 18 44c7 12 13 21 22 56c-29 3 -52 24 -52 50s22 47 48 47s46 -21 46 -47z" />
    <glyph glyph-name="quotesinglbase" unicode="&#x201a;" horiz-adv-x="230" 
d="M162 39c0 -66 -45 -160 -69 -160c-6 0 -13 2 -13 10c0 14 9 27 18 44c7 12 13 20 22 56c-29 3 -52 23 -52 50c0 25 22 47 48 47s46 -22 46 -47z" />
    <glyph glyph-name="quotedblleft" unicode="&#x201c;" horiz-adv-x="369" 
d="M67 566c0 65 45 160 71 160c6 0 11 -2 11 -10c0 -16 -7 -28 -16 -44c-7 -12 -13 -20 -23 -56c30 -3 51 -23 51 -50c0 -26 -20 -46 -47 -46c-25 0 -47 20 -47 46zM210 566c0 65 46 160 71 160c6 0 11 -2 11 -10c0 -16 -7 -28 -16 -44c-7 -12 -13 -20 -23 -56
c30 -3 51 -23 51 -50c0 -26 -20 -46 -47 -46c-25 0 -47 20 -47 46z" />
    <glyph glyph-name="quotedblright" unicode="&#x201d;" horiz-adv-x="369" 
d="M304 679c0 -65 -44 -159 -69 -159c-6 0 -12 2 -12 9c0 15 8 28 17 44c7 12 13 21 23 56c-30 3 -53 24 -53 50s22 47 48 47s46 -21 46 -47zM161 679c0 -65 -46 -159 -69 -159c-7 0 -12 2 -12 9c0 15 8 28 17 44c7 12 13 21 23 56c-30 3 -53 24 -53 50s22 47 48 47
s46 -21 46 -47z" />
    <glyph glyph-name="quotedblbase" unicode="&#x201e;" horiz-adv-x="369" 
d="M304 39c0 -66 -44 -160 -69 -160c-6 0 -12 3 -12 10c0 15 7 29 16 44c8 13 16 28 24 56c-30 2 -53 24 -53 50s22 47 48 47s46 -22 46 -47zM161 39c0 -66 -46 -160 -69 -160c-7 0 -12 3 -12 10c0 15 7 29 16 44c8 13 16 28 24 56c-30 2 -53 24 -53 50s22 47 48 47
s46 -22 46 -47z" />
    <glyph glyph-name="dagger" unicode="&#x2020;" horiz-adv-x="432" 
d="M440 477c0 -16 -13 -28 -29 -28h-161v-521c0 -12 -1 -18 -1 -21c-2 -13 -15 -25 -32 -25c-15 0 -28 12 -31 25c-1 7 -1 14 -1 21v521h-161c-5 0 -7 0 -8 1c-12 3 -21 14 -21 27c0 17 13 30 29 30h161v172c0 6 0 15 1 21c3 14 16 26 31 26c17 0 30 -11 32 -26
c0 -4 1 -7 1 -21v-172h161c1 0 3 -1 7 -3c12 -2 22 -14 22 -27z" />
    <glyph glyph-name="daggerdbl" unicode="&#x2021;" horiz-adv-x="574" 
d="M509 34c0 -17 -14 -29 -30 -29h-160v-183c0 -9 -1 -14 -1 -17c-4 -13 -18 -26 -32 -26c-16 0 -30 12 -32 25c-1 5 -2 14 -2 18v183h-159c-17 0 -31 12 -31 29s14 29 31 29h159v386h-159c-17 0 -31 12 -31 28c0 17 14 31 31 31h159v185c0 1 0 3 1 4c3 16 17 29 33 29
c18 0 33 -15 33 -33v-185h160c16 0 30 -14 30 -31c0 -16 -14 -28 -30 -28h-160v-386h160c16 0 30 -12 30 -29z" />
    <glyph glyph-name="bullet" unicode="&#x2022;" horiz-adv-x="303" 
d="M224 273c0 -40 -32 -72 -71 -72s-72 32 -72 72c0 39 33 71 72 71s71 -32 71 -71z" />
    <glyph glyph-name="ellipsis" unicode="&#x2026;" horiz-adv-x="583" 
d="M522 38c0 -26 -20 -47 -47 -47c-26 0 -47 21 -47 47s21 48 47 48c27 0 47 -22 47 -48zM341 38c0 -26 -20 -47 -47 -47c-25 0 -48 21 -48 47s23 48 48 48c27 0 47 -22 47 -48zM160 38c0 -26 -20 -47 -47 -47c-25 0 -47 21 -47 47s22 48 47 48c27 0 47 -22 47 -48z" />
    <glyph glyph-name="guilsinglleft" unicode="&#x2039;" horiz-adv-x="318" 
d="M124 256l146 -216c1 -3 3 -9 3 -13c0 -19 -13 -34 -33 -34c-15 0 -21 7 -32 23c-52 80 -107 159 -159 238l153 230c9 15 16 24 31 24s31 -13 31 -31c0 -6 0 -12 -3 -15z" />
    <glyph glyph-name="guilsinglright" unicode="&#x203a;" horiz-adv-x="318" 
d="M51 40l146 216l-136 206c-4 5 -5 10 -5 15c0 18 17 31 32 31s23 -9 32 -24l152 -230l-158 -238c-12 -16 -18 -23 -33 -23c-20 0 -34 15 -34 34c0 4 1 8 4 13z" />
    <glyph glyph-name="fraction" unicode="&#x2044;" horiz-adv-x="153" 
d="M222 660l-238 -666c-4 -12 -17 -20 -30 -18c-16 3 -25 17 -23 33l2 7l237 665c4 13 17 20 30 18c15 -3 25 -21 22 -39z" />
    <glyph glyph-name="Euro" unicode="&#x20ac;" horiz-adv-x="500" 
d="M47 450h55v44c0 134 61 222 192 222c89 0 172 -37 172 -80c0 -16 -12 -28 -28 -28c-9 0 -15 3 -24 9c-4 2 -7 5 -10 7c-33 22 -65 33 -105 33c-99 0 -131 -62 -131 -163v-44h194c16 0 32 -14 32 -31c0 -16 -15 -30 -32 -30h-194v-72h153c17 0 32 -14 32 -31
c0 -16 -14 -30 -32 -30h-153v-42c0 -101 32 -163 131 -163c40 0 73 10 105 32l10 7c10 7 17 10 24 10c16 0 28 -13 28 -28c0 -44 -83 -80 -172 -80c-131 0 -192 88 -192 222v42h-55c-18 0 -32 14 -32 30c0 17 16 31 32 31h55v72h-55c-18 0 -32 14 -32 30c0 17 16 31 32 31z
" />
    <glyph glyph-name="uni20B4" unicode="&#x20b4;" horiz-adv-x="500" 
d="M54 450h266c29 37 49 83 49 124c0 55 -33 78 -114 78c-56 0 -84 -12 -105 -21c-10 -4 -19 -8 -32 -8c-23 0 -35 15 -35 31c0 51 116 62 172 62c110 0 184 -45 184 -147c0 -45 -17 -84 -42 -119h54c16 0 32 -14 32 -31c0 -16 -15 -30 -32 -30h-116c-9 -8 -21 -17 -31 -25
l-56 -47h203c16 0 32 -14 32 -31c0 -16 -15 -30 -32 -30h-257c-25 -35 -47 -79 -47 -124c0 -46 20 -77 113 -77c65 0 101 15 127 26c14 6 25 10 33 10c17 0 30 -16 30 -33c0 -49 -115 -67 -184 -67c-109 0 -192 48 -192 154c0 39 14 76 37 111h-57c-18 0 -32 14 -32 30
c0 17 16 31 32 31h117l32 24l62 48h-211c-18 0 -32 14 -32 30c0 17 16 31 32 31z" />
    <glyph glyph-name="uni20BD" unicode="&#x20bd;" horiz-adv-x="500" 
d="M47 331h47v333c0 23 20 42 42 42h120c163 0 222 -106 222 -222c0 -140 -87 -217 -222 -217h-95v-69h160c17 0 32 -13 32 -30s-14 -30 -32 -30h-160v-112c0 -19 -16 -35 -33 -35s-34 15 -34 35v112h-47c-18 0 -32 13 -32 30s16 30 32 30h47v73h-47c-18 0 -32 13 -32 29
c0 18 16 31 32 31zM161 642v-311h95c102 0 155 49 155 154c0 78 -29 157 -155 157h-95z" />
    <glyph glyph-name="trademark" unicode="&#x2122;" horiz-adv-x="773" 
d="M731 690v-383c0 -12 -11 -21 -22 -21c-12 0 -22 9 -22 21v308l-109 -225c-4 -8 -13 -13 -22 -13s-19 5 -23 13l-109 225v-308c0 -12 -10 -21 -21 -21c-13 0 -22 9 -22 21v383c0 14 10 24 25 24c10 0 18 -6 23 -15l127 -260l128 261c5 10 14 14 23 14c12 0 24 -12 24 -24z
M313 687c0 -13 -10 -22 -22 -22h-105v-357c0 -13 -10 -22 -22 -22c-14 0 -24 9 -24 22v357h-103c-13 0 -24 9 -24 22c0 12 11 22 24 22h254c12 0 22 -10 22 -22z" />
    <glyph glyph-name="estimated" unicode="&#x212e;" horiz-adv-x="903" 
d="M825 317h-605c-3 0 -5 -1 -5 -4v-183c0 -8 4 -15 9 -21c57 -61 139 -99 229 -99c96 0 182 43 240 111h55c-68 -79 -176 -131 -296 -131c-206 0 -374 150 -374 336s168 336 374 336s373 -150 373 -336v-9zM689 341v184c0 9 -4 16 -10 22c-58 58 -138 95 -226 95
c-90 0 -170 -38 -228 -98c-6 -6 -10 -14 -10 -23v-180c0 -3 2 -5 5 -5h464c3 0 5 2 5 5z" />
    <glyph glyph-name="arrowleft" unicode="&#x2190;" horiz-adv-x="559" 
d="M504 354c0 -17 -14 -29 -29 -29h-323l163 -188v1c2 -3 3 -8 3 -13c0 -19 -14 -34 -33 -34c-12 0 -17 5 -24 14l-10 10h1l-183 219c-8 10 -7 26 0 37l177 210l6 9l-1 -3c8 11 16 19 27 19c14 0 31 -13 31 -31c0 -6 0 -12 -4 -15v1l-153 -177h323c16 0 29 -14 29 -30z" />
    <glyph glyph-name="arrowup" unicode="&#x2191;" horiz-adv-x="629" 
d="M534 354l-193 163v-405c0 -15 -12 -28 -29 -28c-16 0 -30 12 -30 28v404l-177 -153c-16 -14 -48 4 -45 28c1 11 9 20 18 27l217 182c5 4 11 6 17 6c7 0 15 -2 20 -6l229 -191c9 -7 17 -16 18 -27c3 -24 -29 -42 -45 -28z" />
    <glyph glyph-name="arrowright" unicode="&#x2192;" horiz-adv-x="559" 
d="M60 354c0 16 14 30 30 30h322l-152 177v-1c-4 5 -5 10 -5 15c0 18 17 31 32 31c11 0 18 -8 27 -19l-1 3l6 -9l177 -210c8 -10 7 -26 0 -37l-183 -219h1l-10 -10c-7 -9 -12 -14 -24 -14c-20 0 -34 15 -34 34c0 4 1 8 4 13v-1l163 188h-323c-15 0 -30 12 -30 29z" />
    <glyph glyph-name="arrowdown" unicode="&#x2193;" horiz-adv-x="629" 
d="M312 612c17 0 29 -14 29 -30v-404l188 162c4 4 9 4 12 4c19 0 34 -13 34 -33c0 -13 -5 -18 -14 -25l-11 -9v1l-218 -183c-11 -8 -26 -7 -37 0l-211 177l-8 6l2 -1c-10 8 -18 15 -18 26c0 16 13 32 31 32c4 0 10 0 14 -4l177 -153v404c0 17 14 30 30 30z" />
    <glyph glyph-name="uni2196" unicode="&#x2196;" horiz-adv-x="529" 
d="M465 156c-11 -11 -32 -13 -43 -1l-286 286l-16 -234c0 -5 -4 -9 -7 -12c-13 -12 -34 -10 -44 1c-11 10 -10 20 -8 34c0 2 1 3 1 5l24 274c1 16 10 26 28 27l284 26c2 0 4 1 6 1c15 2 24 3 34 -7c7 -6 10 -13 10 -23s-4 -19 -11 -25c-3 -3 -7 -7 -11 -7l-247 -19l286 -284
c11 -11 11 -30 0 -42z" />
    <glyph glyph-name="uni2197" unicode="&#x2197;" horiz-adv-x="532" 
d="M71 165c-13 11 -13 30 -1 41l285 285l-233 18c-4 0 -9 5 -13 8c-12 12 -9 33 1 44h-1c10 9 19 8 31 7c3 0 6 -1 9 -1l274 -24c16 -1 26 -10 27 -27l25 -283c3 -20 3 -33 -6 -42c-6 -6 -13 -9 -22 -9c-11 0 -20 4 -26 10c-2 2 -6 6 -6 10l-18 248l-286 -285
c-10 -12 -29 -12 -40 0z" />
    <glyph glyph-name="uni2198" unicode="&#x2198;" horiz-adv-x="529" 
d="M70 538c10 11 30 11 43 1l285 -287l16 234c0 5 5 11 8 14c12 12 33 9 43 -1c11 -12 9 -24 7 -42c-7 -89 -16 -182 -23 -271c-1 -16 -11 -27 -28 -28l-282 -25h-2c-18 -2 -32 -4 -41 6c-7 7 -10 14 -10 22c0 10 4 19 11 26c3 3 7 7 11 7l247 18l-285 285
c-11 11 -12 30 0 41zM138 134c-1 0 -1 -1 -1 -1z" />
    <glyph glyph-name="uni2199" unicode="&#x2199;" horiz-adv-x="532" 
d="M467 530c12 -11 12 -30 1 -42l-285 -286l232 -16c5 0 10 -5 13 -8c13 -12 9 -33 -1 -44h1c-9 -9 -19 -8 -31 -7c-4 0 -7 2 -10 2l1 -1l-273 24c-17 1 -26 9 -27 27l-26 284c0 3 -1 5 -1 7c-2 14 -2 25 8 34c7 7 14 10 22 10c9 0 18 -4 26 -11c2 -2 5 -5 5 -11l18 -247
l286 285c10 12 30 12 41 0z" />
    <glyph glyph-name="minus" unicode="&#x2212;" horiz-adv-x="500" 
d="M80 387h345c17 0 32 -14 32 -32s-14 -32 -32 -32h-345c-18 0 -33 14 -33 32s17 32 33 32z" />
    <glyph glyph-name="triagup" unicode="&#x25b2;" horiz-adv-x="758" 
d="M656 1h-546c-33 0 -50 7 -50 25c0 9 4 21 12 37l281 561c12 23 21 35 30 35c8 0 17 -12 30 -35l281 -561c7 -15 11 -27 11 -37c0 -18 -15 -25 -49 -25z" />
    <glyph glyph-name="triagrt" unicode="&#x25ba;" horiz-adv-x="785" 
d="M59 59v559c0 34 8 50 26 50c9 0 21 -4 37 -12l577 -288c21 -11 33 -21 33 -30s-11 -18 -33 -29l-577 -288c-15 -7 -27 -11 -37 -11c-18 0 -26 16 -26 49z" />
    <glyph glyph-name="triagdn" unicode="&#x25bc;" horiz-adv-x="758" 
d="M110 678h546c34 0 49 -8 49 -25c0 -10 -4 -23 -11 -38c-88 -178 -192 -383 -281 -561c-12 -22 -21 -34 -30 -34s-19 12 -30 34l-281 561c-8 16 -12 29 -12 38c0 17 17 25 50 25z" />
    <glyph glyph-name="triaglf" unicode="&#x25c4;" horiz-adv-x="785" 
d="M95 368l576 288c16 8 29 12 38 12c16 0 24 -16 24 -50v-559c0 -33 -8 -49 -24 -49c-10 0 -23 4 -38 11l-576 288c-24 11 -35 20 -35 29c0 8 11 18 35 30z" />
    <glyph glyph-name="uni2639" unicode="&#x2639;" horiz-adv-x="733" 
d="M681 251c0 -167 -138 -309 -310 -309c-171 0 -312 140 -312 309c0 171 141 311 312 311s310 -141 310 -311zM650 251c0 154 -127 280 -279 280s-280 -124 -280 -280c0 -154 127 -279 280 -279c152 0 279 126 279 279zM281 317c0 -18 -14 -32 -33 -32c-17 0 -32 14 -32 32
s15 33 32 33c19 0 33 -15 33 -33zM524 317c0 -18 -14 -32 -31 -32c-19 0 -34 14 -34 32s15 33 34 33c17 0 31 -15 31 -33zM250 83l-15 11c33 56 77 86 136 86s104 -30 136 -87l-19 -9c-28 43 -67 68 -117 68c-52 0 -92 -23 -121 -69z" />
    <glyph glyph-name="uni263A" unicode="&#x263a;" horiz-adv-x="733" 
d="M681 251c0 -167 -138 -309 -310 -309c-171 0 -312 140 -312 309c0 171 141 311 312 311s310 -141 310 -311zM650 251c0 154 -127 280 -279 280s-280 -124 -280 -280c0 -154 127 -279 280 -279c152 0 279 126 279 279zM281 317c0 -18 -14 -32 -33 -32c-17 0 -32 14 -32 32
s15 33 32 33c19 0 33 -15 33 -33zM524 317c0 -18 -14 -32 -31 -32c-19 0 -34 14 -34 32s15 33 34 33c17 0 31 -15 31 -33zM235 146l16 9c28 -44 68 -67 120 -67c53 0 92 22 119 68l17 -9c-31 -53 -79 -87 -136 -87c-59 0 -104 31 -136 86z" />
    <glyph glyph-name="uni263B" unicode="&#x263b;" horiz-adv-x="732" 
d="M680 251c0 -169 -138 -309 -310 -309c-171 0 -311 139 -311 309c0 172 141 311 311 311c171 0 310 -140 310 -311zM295 317c0 26 -20 49 -47 49c-26 0 -49 -23 -49 -49s23 -47 49 -47c27 0 47 21 47 47zM540 317c0 26 -22 49 -47 49c-27 0 -50 -23 -50 -49s23 -47 50 -47
c25 0 47 21 47 47zM258 177l-45 -25c36 -69 87 -107 157 -107c68 0 122 38 158 107l-47 25c-26 -48 -63 -74 -111 -74c-47 0 -85 26 -112 74z" />
    <glyph glyph-name="uni2661" unicode="&#x2661;" horiz-adv-x="642" 
d="M308 392v1c3 -14 8 -23 17 -25c9 4 13 15 16 24c27 84 74 121 126 121c57 0 121 -36 121 -138c0 -53 -17 -77 -99 -185l-16 -21v1c-54 -71 -60 -81 -116 -169c-9 -14 -17 -26 -33 -26c-15 0 -23 12 -32 26c-58 92 -61 95 -116 169v-1l-16 21c-83 109 -100 133 -100 185
c0 102 65 138 120 138c56 0 105 -36 128 -121zM147 252c10 -13 20 -28 33 -47l133 -190c2 -6 3 -9 11 -9c5 0 8 3 11 6v2c43 63 90 129 134 191c13 19 23 34 33 47c47 67 61 85 61 126c0 78 -52 109 -94 109c-59 0 -83 -56 -103 -101c-11 -25 -23 -45 -42 -45
c-16 0 -28 16 -41 45c-21 47 -48 101 -103 101c-44 0 -95 -31 -95 -109c0 -40 14 -59 62 -126z" />
    <glyph glyph-name="uni2665" unicode="&#x2665;" horiz-adv-x="642" 
d="M308 392c12 -43 23 -39 35 0c24 86 71 121 122 121c67 0 123 -48 123 -126c0 -68 -44 -130 -105 -208l-11 -14c-50 -64 -67 -85 -113 -164c-8 -13 -17 -26 -34 -26c-16 0 -24 12 -33 26c-55 88 -60 95 -116 169v-1l-16 21c-83 109 -100 133 -100 185
c0 102 64 138 121 138c53 0 104 -36 127 -121z" />
    <glyph glyph-name="uni266A" unicode="&#x266a;" horiz-adv-x="510" 
d="M252 174v492c177 -1 235 -36 235 -187c0 -34 -6 -43 -17 -44c-11 1 -16 7 -17 19c0 74 -59 113 -145 113h-22v-425c0 -100 -45 -159 -148 -159c-67 0 -110 41 -110 103c0 65 53 116 130 116c25 0 56 -9 94 -28z" />
    <glyph glyph-name="uni266B" unicode="&#x266b;" horiz-adv-x="760" 
d="M275 129v417c0 52 23 82 73 99l241 74c13 4 23 6 32 6c24 0 35 -18 35 -56v-471c0 -106 -48 -157 -145 -157c-69 0 -112 43 -112 103c0 62 54 116 130 116c26 0 34 -3 92 -26v341c0 28 -12 37 -38 29l-238 -74c-23 -7 -36 -22 -36 -47v-386c0 -106 -49 -160 -147 -160
c-68 0 -111 42 -111 103c0 65 53 116 130 116c23 0 54 -9 94 -27z" />
    <glyph glyph-name="typography.com.ua" unicode="&#xe020;" horiz-adv-x="885" 
d="M846 475c-4 -26 -21 -26 -35 -24c-12 1 -26 3 -29 3c-37 0 -70 -30 -79 -73l-29 -166h93c17 0 30 -15 30 -31c0 -17 -13 -31 -30 -31h-105l-39 -225c-17 -96 -52 -164 -141 -164c-43 0 -75 1 -75 29c0 19 13 31 32 30l30 -1c57 0 77 32 88 98l40 233h-147v-129
c0 -18 -15 -32 -32 -32c-18 0 -33 14 -33 32v129h-262c-21 0 -35 17 -35 36c0 2 3 14 8 25l196 491c6 10 18 19 28 19c14 0 32 -13 32 -36c0 -2 0 -5 -2 -8l-186 -465h221v263c0 19 15 33 33 33c17 0 32 -14 32 -33v-263h158l32 176c12 73 66 120 155 120c35 0 55 -7 51 -36
z" />
    <glyph glyph-name="commaaccent" unicode="&#xf6c3;" horiz-adv-x="310" 
d="M203 -113c0 -54 -45 -129 -70 -129c-6 0 -12 3 -12 9c0 7 9 17 16 28c7 8 18 22 26 42c-31 2 -54 24 -54 50s21 47 48 47c25 0 46 -22 46 -47z" />
    <glyph glyph-name="R.salt" unicode="&#xe0052;" horiz-adv-x="557" 
d="M145 359h125c70 0 148 47 148 150c0 67 -33 134 -130 134h-143v-284zM145 24c0 -18 -15 -33 -33 -33s-34 15 -34 33v641c0 24 20 42 42 42h173c128 0 191 -99 191 -200c0 -95 -61 -146 -143 -185c83 -33 103 -80 112 -150l3 -28c6 -51 9 -77 57 -96c15 -6 32 -18 26 -39
c-4 -12 -17 -16 -32 -16h-13c-79 14 -99 103 -108 185c-4 44 -16 116 -143 116h-98v-270z" />
    <glyph glyph-name="uni0414.BUL" unicode="&#xe0414;" horiz-adv-x="668" 
d="M31 -110v130c0 26 14 45 33 45h34l192 602c8 28 20 49 46 49c25 0 37 -22 47 -49l190 -602h36c20 0 34 -19 34 -45v-130c0 -18 -14 -32 -34 -32c-18 0 -32 14 -32 32v111h-482v-111c0 -18 -14 -32 -31 -32c-19 0 -33 14 -33 32zM336 607l-166 -542h330z" />
    <glyph glyph-name="uni0416.BUL" unicode="&#xe0416;" horiz-adv-x="746" 
d="M410 683v-350l256 367c8 11 18 16 28 16c19 0 30 -21 30 -37c0 -6 0 -11 -3 -15l-204 -291l204 -331h-1c3 -5 4 -10 4 -15c0 -16 -11 -36 -30 -36c-11 0 -21 6 -28 15l-192 305l-64 -93v-193c0 -19 -15 -34 -33 -34s-34 15 -34 34v195l-64 91l-191 -305
c-7 -9 -16 -15 -28 -15c-20 0 -31 20 -31 36c0 4 1 8 5 15h-1l203 331l-203 291h1c-4 7 -5 11 -5 15c0 16 11 37 31 37c10 0 20 -5 28 -16l255 -366v349c0 17 16 33 34 33s33 -16 33 -33z" />
    <glyph glyph-name="uni041B.BUL" unicode="&#xe041b;" horiz-adv-x="549" 
d="M277 607l-180 -592c-6 -12 -21 -24 -32 -24c-19 0 -35 13 -35 33c0 3 1 10 2 13l199 630c8 28 20 49 46 49c25 0 38 -22 47 -49l199 -630c0 -2 1 -9 1 -13c0 -20 -15 -33 -35 -33c-12 0 -28 10 -32 24z" />
    <glyph glyph-name="uni0432.BUL" unicode="&#xe0432;" horiz-adv-x="468" 
d="M68 173v339c0 121 61 194 169 194c93 0 162 -56 162 -167c0 -92 -56 -142 -112 -168c99 -24 136 -88 136 -175c0 -119 -57 -203 -179 -203c-112 0 -176 68 -176 180zM359 196c0 84 -29 145 -143 145h-83v-171c0 -78 39 -118 111 -118c79 0 115 52 115 144zM133 515v-120
h96c35 0 107 35 107 135c0 79 -43 117 -104 117c-69 0 -99 -45 -99 -132z" />
    <glyph glyph-name="uni0433.BUL" unicode="&#xe0433;" horiz-adv-x="406" 
d="M355 374c0 -120 -121 -130 -199 -169c-22 -12 -41 -31 -41 -73c0 -59 41 -84 102 -84c45 0 78 13 108 25c3 1 4 1 6 1c19 0 31 -15 31 -30c0 -41 -94 -51 -145 -51c-109 0 -165 54 -165 142c0 120 108 130 187 169c39 21 53 39 53 75c0 53 -31 81 -99 81
c-39 0 -59 -9 -82 -20c-5 -2 -9 -4 -15 -4c-17 0 -29 13 -29 29c0 38 78 50 129 50c104 0 159 -56 159 -141z" />
    <glyph glyph-name="uni0434.BUL" unicode="&#xe0434;" horiz-adv-x="485" 
d="M347 100v257c0 62 -44 100 -116 100c-79 0 -116 -46 -116 -121v-163c0 -77 30 -125 109 -125c45 0 89 16 123 52zM412 357v-405c0 -102 -54 -182 -176 -182c-47 0 -136 13 -136 55c0 14 12 28 27 28c4 0 9 -1 15 -3h-1c24 -13 47 -24 86 -24c86 0 120 46 120 126v85
c-42 -27 -88 -43 -139 -43c-120 0 -158 77 -158 179v163c0 101 61 179 181 179c115 0 181 -70 181 -158z" />
    <glyph glyph-name="uni0436.BUL" unicode="&#xe0436;" horiz-adv-x="628" 
d="M351 700v-403l200 207c4 5 12 7 19 7c17 0 30 -13 30 -30c0 -9 -2 -16 -7 -21l-156 -159l178 -263c2 -4 4 -14 4 -19h1c-1 -16 -14 -26 -31 -26c-12 0 -21 5 -27 15l-165 251l-46 -48v-186c0 -18 -15 -32 -32 -32c-19 0 -33 14 -33 32v187l-46 47l-164 -251
c-7 -10 -16 -15 -27 -15c-18 0 -30 10 -31 26c0 4 3 14 5 19l176 263l-154 159c-7 6 -9 13 -9 21c0 17 14 30 31 30c7 0 15 -2 19 -7l200 -206v402c0 18 14 33 33 33c17 0 32 -15 32 -33z" />
    <glyph glyph-name="uni0437.BUL" unicode="&#xe0437;" horiz-adv-x="408" 
d="M353 329c0 -85 -29 -149 -104 -165v-13c81 -17 115 -83 115 -179c0 -119 -54 -196 -173 -196c-47 0 -147 10 -147 54c0 20 23 31 33 28l6 -2c28 -11 68 -24 110 -24c71 0 108 39 108 139c0 39 -5 150 -128 157c-17 0 -43 0 -43 28c0 25 23 25 40 26c102 8 121 96 121 154
c0 76 -31 124 -107 124c-31 0 -60 -10 -84 -20c-5 -2 -9 -4 -16 -4c-17 0 -29 13 -29 28c0 39 85 51 134 51c112 0 164 -72 164 -186z" />
    <glyph glyph-name="uni0438.BUL" unicode="&#xe0438;" horiz-adv-x="509" 
d="M366 120v360c0 18 11 32 33 32c21 0 32 -14 32 -32v-360c0 -50 5 -58 11 -65s15 -18 15 -28c0 -16 -14 -28 -30 -28c-17 0 -30 13 -43 33c-48 -28 -101 -39 -148 -39c-104 0 -157 75 -157 186v301c0 18 12 32 33 32s32 -14 32 -32v-301c0 -82 36 -130 103 -130
c42 0 84 14 121 38c-1 10 -2 20 -2 33z" />
    <glyph glyph-name="uni0439.BUL" unicode="&#xe0439;" horiz-adv-x="509" 
d="M256 632c24 0 49 13 72 45c7 10 16 14 25 14c13 0 25 -8 19 -29c-14 -50 -72 -77 -116 -77c-43 0 -108 26 -118 77c-4 18 10 29 21 29c9 0 18 -4 24 -14c24 -32 46 -45 73 -45zM366 120v360c0 18 11 32 33 32c21 0 32 -14 32 -32v-360c0 -50 5 -58 11 -65s15 -18 15 -28
c0 -16 -14 -28 -30 -28c-17 0 -30 13 -43 33c-48 -28 -101 -39 -148 -39c-104 0 -157 75 -157 186v301c0 18 12 32 33 32s32 -14 32 -32v-301c0 -82 36 -130 103 -130c42 0 84 14 121 38c-1 10 -2 20 -2 33z" />
    <glyph glyph-name="uni043A.BUL" unicode="&#xe043a;" horiz-adv-x="439" 
d="M145 700v-403l200 207c4 5 12 7 19 7c17 0 30 -13 30 -30c0 -9 -2 -16 -7 -21l-156 -159l177 -263c3 -4 6 -14 6 -19c1 -16 -14 -26 -31 -26c-12 0 -21 5 -27 15l-165 251l-46 -48v-186c0 -18 -15 -32 -32 -32c-19 0 -33 14 -33 32v675c0 18 14 33 33 33
c17 0 32 -15 32 -33z" />
    <glyph glyph-name="uni043B.BUL" unicode="&#xe043b;" horiz-adv-x="430" 
d="M266 469l140 -436c1 -4 0 -6 0 -9c0 -19 -15 -31 -31 -31c-13 0 -24 9 -29 21v-1l-126 413c-40 -127 -87 -285 -128 -413c-6 -10 -17 -20 -28 -20c-17 0 -31 11 -33 27v7c46 144 98 299 144 443c10 28 22 42 45 42s35 -14 46 -43z" />
    <glyph glyph-name="uni043F.BUL" unicode="&#xe043f;" horiz-adv-x="509" 
d="M129 464c49 34 101 49 150 49c104 0 155 -75 155 -187v-301c0 -18 -11 -31 -32 -31s-33 13 -33 31v301c0 83 -35 131 -102 131c-42 0 -84 -19 -122 -48c2 -11 3 -23 3 -34v-350c0 -18 -11 -31 -32 -31c-22 0 -33 13 -33 31v350c0 35 -4 56 -18 76c-4 5 -6 11 -6 17
c0 17 14 29 29 29c13 0 30 -11 41 -33z" />
    <glyph glyph-name="uni0442.BUL" unicode="&#xe0442;" horiz-adv-x="778" 
d="M125 466c48 31 100 49 153 49s90 -20 118 -56c46 35 96 56 151 56c106 0 163 -68 163 -168v-322c0 -18 -10 -31 -32 -31c-21 0 -33 13 -33 31v320c0 62 -32 112 -101 112c-47 0 -94 -26 -121 -60c3 -15 5 -31 5 -50v-322c0 -18 -10 -31 -32 -31s-33 13 -33 31v299
c0 78 -13 133 -93 133c-46 0 -95 -22 -127 -46c2 -12 3 -23 3 -36v-350c0 -18 -11 -31 -32 -31c-22 0 -33 13 -33 31v350c0 35 -4 56 -18 76c-4 5 -6 11 -6 17c0 17 14 29 29 29c13 0 28 -9 39 -31z" />
    <glyph glyph-name="uni0446.BUL" unicode="&#xe0446;" horiz-adv-x="531" 
d="M247 49c42 0 86 16 127 41c-7 21 -9 45 -9 69v321c0 18 12 32 33 32c22 0 32 -14 32 -32v-321c0 -72 22 -110 62 -110c18 0 32 -14 32 -33v-131c0 -18 -14 -32 -32 -32s-33 14 -33 32v119c-21 4 -42 18 -62 38c-48 -33 -109 -49 -161 -49c-105 0 -157 75 -157 186v301
c0 18 11 32 33 32c20 0 32 -14 32 -32v-301c0 -82 36 -130 103 -130z" />
    <glyph glyph-name="uni0448.BUL" unicode="&#xe0448;" horiz-adv-x="772" 
d="M141 480v-321c0 -62 34 -111 102 -111c47 0 94 26 121 58c-4 18 -5 34 -5 51v323c0 18 11 32 33 32c20 0 32 -14 32 -32v-300c0 -77 13 -132 93 -132c46 0 93 20 124 43v389c0 18 11 32 33 32c21 0 32 -14 32 -32v-370c0 -31 10 -46 30 -67c3 -3 4 -7 4 -15
c0 -17 -14 -28 -28 -28c-22 0 -39 14 -52 35c-47 -28 -98 -45 -150 -45c-56 0 -91 18 -117 53c-47 -33 -96 -53 -152 -53c-106 0 -165 68 -165 167v323c0 18 12 32 33 32s32 -14 32 -32z" />
    <glyph glyph-name="uni0449.BUL" unicode="&#xe0449;" horiz-adv-x="805" 
d="M141 480v-321c0 -62 34 -111 102 -111c47 0 96 22 122 51c-5 20 -7 39 -7 58v323c0 18 11 32 33 32c21 0 32 -14 32 -32v-300c0 -77 13 -132 94 -132c49 0 99 21 131 46c-5 21 -7 43 -7 65v321c0 18 11 32 33 32c21 0 31 -14 31 -32v-321c0 -72 22 -110 62 -110
c18 0 32 -14 32 -33v-131c0 -18 -14 -32 -32 -32s-33 14 -33 32v119c-24 5 -45 20 -63 39c-47 -33 -104 -53 -161 -53c-56 0 -91 18 -118 53c-46 -33 -96 -53 -151 -53c-106 0 -165 68 -165 167v323c0 18 11 32 33 32c20 0 32 -14 32 -32z" />
    <glyph glyph-name="uni044A.BUL" unicode="&#xe044a;" horiz-adv-x="528" 
d="M318 -7c-119 0 -179 76 -179 175v281h-96c-16 0 -29 13 -29 28c0 17 14 29 29 29h129c18 0 32 -15 32 -33v-191c36 24 75 37 114 37c114 0 179 -73 178 -166c-1 -91 -66 -160 -178 -160zM311 261c-67 0 -107 -28 -107 -77v-16c0 -72 37 -116 114 -116
c71 0 112 40 112 105c0 64 -37 104 -119 104z" />
    <glyph glyph-name="uni044C.BUL" unicode="&#xe044c;" horiz-adv-x="472" 
d="M143 479v-197c36 24 76 37 114 37c114 0 179 -73 178 -166c-1 -91 -66 -160 -178 -160c-119 0 -179 76 -179 175v311c0 18 15 33 33 33s32 -15 32 -33zM251 261c-67 0 -108 -28 -108 -77v-16c0 -72 38 -116 114 -116c71 0 112 40 112 105c0 64 -37 104 -118 104z" />
    <glyph glyph-name="uni044E.BUL" unicode="&#xe044e;" horiz-adv-x="681" 
d="M142 706v-417h129v50c0 99 65 176 185 176c121 0 185 -77 185 -176v-171c0 -99 -64 -175 -185 -175c-120 0 -185 76 -185 175v68h-129v-211c0 -18 -14 -32 -31 -32c-19 0 -33 14 -33 32v681c0 16 13 33 32 33c17 0 32 -14 32 -33zM456 52c80 0 120 44 120 116v172
c0 72 -40 117 -120 117c-79 0 -120 -45 -120 -117v-172c0 -72 41 -116 120 -116z" />
    <glyph glyph-name="uni0431.SRB" unicode="&#xf0431;" horiz-adv-x="464" 
d="M235 481c121 0 185 -77 185 -176v-137c0 -99 -64 -175 -185 -175c-120 0 -185 76 -185 175v137c0 59 35 112 103 142c-54 26 -87 66 -87 122c0 77 66 127 167 137c6 0 10 1 15 1c37 2 67 3 107 36c4 4 15 14 24 14c13 0 23 -14 23 -28c0 -53 -90 -77 -169 -81
c-36 -2 -102 -9 -102 -80c0 -59 37 -87 104 -87zM235 52c80 0 120 44 120 116v138c0 72 -40 117 -120 117c-79 0 -120 -45 -120 -117v-138c0 -72 41 -116 120 -116z" />
    <glyph glyph-name="uni0434.tri" unicode="&#xf0434;" horiz-adv-x="538" 
d="M320 469l134 -415h32c18 0 32 -15 32 -33v-132c0 -18 -14 -32 -32 -32s-33 14 -33 32v112h-361v-112c0 -18 -15 -32 -32 -32c-19 0 -33 14 -33 32v132c0 18 14 33 33 33h34l136 416c10 28 21 42 45 42c23 0 35 -14 45 -43zM275 426l-115 -372h228z" />
    <glyph glyph-name="parenright.caps" horiz-adv-x="275" 
d="M140 344c0 139 -34 288 -99 408c-4 9 -10 20 -10 24c0 18 10 36 32 36c11 0 21 -6 28 -16c77 -132 115 -302 115 -452c0 -149 -38 -319 -115 -451c-6 -9 -17 -16 -28 -16c-22 0 -32 18 -32 35c0 5 6 16 10 24c65 121 99 269 99 408z" />
    <glyph glyph-name="parenleft.caps" horiz-adv-x="276" 
d="M138 344c0 -137 35 -287 100 -408c3 -6 9 -18 9 -24c0 -17 -9 -35 -31 -35c-11 0 -22 7 -28 16c-77 133 -116 302 -116 451c0 150 39 319 116 452c7 10 17 16 28 16c22 0 31 -18 31 -36c0 -7 -5 -15 -9 -24c-65 -120 -100 -271 -100 -408z" />
    <glyph glyph-name="zero.numerator" 
d="M123 668c-40 0 -55 -27 -55 -68v-149c0 -36 19 -61 55 -61c35 0 55 25 55 61v149c0 41 -16 68 -55 68zM123 714c72 0 102 -53 102 -118v-145c0 -60 -35 -106 -102 -106s-105 46 -105 106v145c0 65 33 118 105 118z" />
    <glyph glyph-name="one.numerator" 
d="M127 367v278l-52 -36c-8 -5 -15 -9 -23 -9c-13 0 -24 10 -24 21c0 9 5 16 13 22l97 61c6 4 10 5 14 5c14 0 25 -11 25 -27v-315c0 -11 -11 -22 -24 -22c-15 0 -26 11 -26 22z" />
    <glyph glyph-name="two.numerator" 
d="M227 371c0 -13 -11 -21 -22 -21h-162c-16 0 -27 9 -27 23c0 5 1 13 5 21c19 45 55 80 88 112c10 11 33 34 43 46c13 12 26 33 26 57c0 35 -19 59 -56 59c-15 0 -30 -4 -44 -9l-13 -6c-5 -3 -13 -7 -19 -7c-11 0 -25 9 -25 21c0 11 3 14 6 17c34 22 65 30 95 30
c66 0 103 -44 103 -99c0 -43 -15 -72 -34 -95c-9 -11 -21 -22 -32 -33l-10 -10c-28 -26 -55 -53 -71 -81h127c11 0 22 -11 22 -25z" />
    <glyph glyph-name="three.numerator" 
d="M210 659l-78 -100c52 -4 92 -41 92 -100c0 -51 -30 -114 -104 -114c-20 0 -100 5 -100 39c0 14 10 25 24 25c2 0 7 -2 15 -6c12 -7 27 -14 52 -14c50 0 65 37 65 69c0 43 -27 60 -62 60c-6 0 -13 -1 -17 -3l-3 -2c-1 -1 -4 -1 -8 -1c-17 0 -28 21 -17 36l82 108h-99
c-15 0 -26 9 -26 22c0 15 11 27 26 27h137c15 0 24 -11 24 -29c0 -7 0 -14 -3 -17z" />
    <glyph glyph-name="four.numerator" 
d="M204 422v-55c0 -12 -11 -22 -24 -22c-15 0 -25 10 -25 22v55h-117c-16 0 -26 12 -26 26c0 0 2 8 5 13l96 237c3 8 11 15 19 15c12 0 24 -11 24 -26c0 -4 0 -6 -1 -8c-27 -67 -56 -143 -84 -211h84v91c0 14 10 24 25 24c13 0 24 -10 24 -24v-91h15c13 0 23 -10 23 -23
c0 -12 -10 -23 -23 -23h-15z" />
    <glyph glyph-name="five.numerator" 
d="M224 462c0 -56 -30 -117 -103 -117c-21 0 -101 5 -101 39c0 14 10 25 24 25c3 0 7 -1 13 -5c12 -7 27 -15 54 -15c50 0 65 36 65 71c0 48 -25 70 -57 70c-10 0 -22 -4 -32 -10l-13 -8c-5 -3 -8 -6 -16 -6c-13 0 -25 11 -24 25l3 146c0 18 16 28 29 28h118
c13 0 27 -7 27 -25c0 -16 -14 -22 -27 -22h-102l-4 -95c16 8 30 10 42 10c62 0 104 -40 104 -111z" />
    <glyph glyph-name="six.numerator" 
d="M135 663c-52 0 -68 -48 -70 -108c19 11 43 17 62 17c57 0 102 -36 102 -112c0 -63 -34 -115 -106 -115c-83 0 -109 71 -109 171c0 125 38 193 114 193c17 0 81 -3 81 -33c0 -11 -10 -22 -23 -22l-12 3c-11 3 -25 6 -39 6zM64 498v-8c0 -49 12 -98 61 -98
c43 0 57 34 57 67c0 47 -23 67 -57 67c-19 0 -46 -15 -61 -28z" />
    <glyph glyph-name="seven.numerator" 
d="M225 678c0 -5 -1 -9 -2 -13l-121 -307c-2 -6 -13 -13 -22 -13c-11 0 -26 9 -24 25c0 0 1 4 2 6l113 280h-127c-14 0 -25 10 -25 23c0 15 10 26 25 26h158c11 0 23 -11 23 -27z" />
    <glyph glyph-name="eight.numerator" 
d="M235 449c0 -61 -45 -104 -112 -104c-66 0 -114 42 -114 102c0 41 24 71 56 89c-26 19 -45 42 -45 79c0 57 47 94 102 94c57 0 100 -39 100 -93c0 -34 -12 -58 -40 -77c30 -19 53 -48 53 -90zM176 614c0 31 -24 49 -53 49c-30 0 -54 -18 -54 -49c0 -32 25 -51 53 -56
c28 7 54 28 54 56zM188 450c0 35 -35 57 -67 65c-33 -10 -64 -34 -64 -66c0 -34 29 -60 66 -60s65 27 65 61z" />
    <glyph glyph-name="nine.numerator" 
d="M111 389c53 0 68 49 70 108c-19 -13 -41 -17 -62 -17c-57 0 -105 37 -105 111c0 66 33 118 106 118c86 0 109 -70 109 -177c0 -124 -35 -187 -112 -187c-17 0 -80 3 -81 29c-1 19 11 30 24 25l13 -5c7 -3 20 -5 38 -5zM181 552v8c0 58 -16 100 -62 100
c-41 0 -55 -33 -55 -69c0 -43 23 -63 57 -63c22 0 46 12 60 24z" />
    <glyph glyph-name="parenleft.numerator" horiz-adv-x="138" 
d="M76 520c0 -64 13 -130 47 -192c2 -4 4 -8 4 -12c0 -12 -8 -24 -23 -24c-8 0 -15 5 -19 11c-38 64 -59 150 -59 217s23 156 59 219c4 8 10 14 19 14c15 0 23 -15 23 -27c0 -4 -1 -7 -4 -12c-1 0 -1 -1 -1 -2c-33 -59 -46 -126 -46 -192z" />
    <glyph glyph-name="parenright.numerator" horiz-adv-x="137" 
d="M59 520c0 68 -14 135 -48 194l-2 3l1 -1c-3 4 -4 8 -4 10c0 12 8 27 25 27c9 0 15 -6 21 -14c35 -63 55 -145 55 -219c0 -75 -17 -153 -55 -217c-6 -8 -12 -11 -21 -11c-17 0 -25 12 -25 24c0 0 3 7 7 14c30 57 46 124 46 190z" />
    <glyph glyph-name="hyphen.numerator" horiz-adv-x="199" 
d="M182 497c0 -12 -10 -22 -22 -22h-123c-14 0 -24 10 -24 22c0 14 10 25 24 25h123c12 0 22 -11 22 -25z" />
    <glyph glyph-name="comma.numerator" horiz-adv-x="115" 
d="M86 374c0 -33 -25 -84 -40 -84c-9 0 -16 2 -16 13c0 6 5 17 10 25l9 18c-13 4 -25 14 -25 28c0 19 14 33 33 33c17 0 29 -14 29 -33z" />
    <glyph glyph-name="period.numerator" horiz-adv-x="115" 
d="M86 374c0 -17 -12 -29 -29 -29c-19 0 -33 12 -33 29c0 19 14 33 33 33c17 0 29 -14 29 -33z" />
    <glyph glyph-name="zero.denominator" 
d="M123 316c-40 0 -55 -27 -55 -68v-149c0 -36 19 -61 55 -61c35 0 55 25 55 61v149c0 41 -16 68 -55 68zM123 362c72 0 102 -53 102 -118v-145c0 -60 -35 -106 -102 -106s-105 46 -105 106v145c0 65 33 118 105 118z" />
    <glyph glyph-name="one.denominator" 
d="M127 15v278l-52 -36c-8 -5 -15 -9 -23 -9c-13 0 -24 10 -24 21c0 9 5 16 13 22l97 61c6 4 10 5 14 5c14 0 25 -11 25 -27v-315c0 -11 -11 -22 -24 -22c-15 0 -26 11 -26 22z" />
    <glyph glyph-name="two.denominator" 
d="M227 19c0 -13 -11 -21 -22 -21h-162c-16 0 -27 9 -27 23c0 5 1 13 5 21c19 45 55 80 88 112c10 11 33 34 43 46c13 12 26 33 26 57c0 35 -19 59 -56 59c-15 0 -30 -4 -44 -9l-13 -6c-5 -3 -13 -7 -19 -7c-11 0 -25 9 -25 21c0 11 3 14 6 17c34 22 65 30 95 30
c66 0 103 -44 103 -99c0 -43 -15 -72 -34 -95c-9 -11 -21 -22 -32 -33l-10 -10c-28 -26 -55 -53 -71 -81h127c11 0 22 -11 22 -25z" />
    <glyph glyph-name="three.denominator" 
d="M210 307l-78 -100c52 -4 92 -41 92 -100c0 -51 -30 -114 -104 -114c-20 0 -100 5 -100 39c0 14 10 25 24 25c2 0 7 -2 15 -6c12 -7 27 -14 52 -14c50 0 65 37 65 69c0 43 -27 60 -62 60c-6 0 -13 -1 -17 -3l-3 -2c-1 -1 -4 -1 -8 -1c-17 0 -28 21 -17 36l82 108h-99
c-15 0 -26 9 -26 22c0 15 11 27 26 27h137c15 0 24 -11 24 -29c0 -7 0 -14 -3 -17z" />
    <glyph glyph-name="four.denominator" 
d="M204 70v-55c0 -12 -11 -22 -24 -22c-15 0 -25 10 -25 22v55h-117c-16 0 -26 12 -26 26c0 0 2 8 5 13l96 237c3 8 11 15 19 15c12 0 24 -11 24 -26c0 -4 0 -6 -1 -8c-27 -67 -56 -143 -84 -211h84v91c0 14 10 24 25 24c13 0 24 -10 24 -24v-91h15c13 0 23 -10 23 -23
c0 -12 -10 -23 -23 -23h-15z" />
    <glyph glyph-name="five.denominator" 
d="M224 110c0 -56 -30 -117 -103 -117c-21 0 -101 5 -101 39c0 14 10 25 24 25c3 0 7 -1 13 -5c12 -7 27 -15 54 -15c50 0 65 36 65 71c0 48 -25 70 -57 70c-10 0 -22 -4 -32 -10l-13 -8c-5 -3 -8 -6 -16 -6c-13 0 -25 11 -24 25l3 146c0 18 16 28 29 28h118
c13 0 27 -7 27 -25c0 -16 -14 -22 -27 -22h-102l-4 -95c16 8 30 10 42 10c62 0 104 -40 104 -111z" />
    <glyph glyph-name="six.denominator" 
d="M135 311c-52 0 -68 -48 -70 -108c19 11 43 17 62 17c57 0 102 -36 102 -112c0 -63 -34 -115 -106 -115c-83 0 -109 71 -109 171c0 125 38 193 114 193c17 0 81 -3 81 -33c0 -11 -10 -22 -23 -22l-12 3c-11 3 -25 6 -39 6zM64 146v-8c0 -49 12 -98 61 -98
c43 0 57 34 57 67c0 47 -23 67 -57 67c-19 0 -46 -15 -61 -28z" />
    <glyph glyph-name="seven.denominator" 
d="M225 326c0 -5 -1 -9 -2 -13l-121 -307c-2 -6 -13 -13 -22 -13c-11 0 -26 9 -24 25c0 0 1 4 2 6l113 280h-127c-14 0 -25 10 -25 23c0 15 10 26 25 26h158c11 0 23 -11 23 -27z" />
    <glyph glyph-name="eight.denominator" 
d="M235 97c0 -61 -45 -104 -112 -104c-66 0 -114 42 -114 102c0 41 24 71 56 89c-26 19 -45 42 -45 79c0 57 47 94 102 94c57 0 100 -39 100 -93c0 -34 -12 -58 -40 -77c30 -19 53 -48 53 -90zM176 262c0 31 -24 49 -53 49c-30 0 -54 -18 -54 -49c0 -32 25 -51 53 -56
c28 7 54 28 54 56zM188 98c0 35 -35 57 -67 65c-33 -10 -64 -34 -64 -66c0 -34 29 -60 66 -60s65 27 65 61z" />
    </font>
</defs>
</svg>
